<?xml version="1.0" encoding="utf-8"?>
<!-- Generator: Adobe Illustrator 25.1.0, SVG Export Plug-In . SVG Version: 6.00 Build 0)  -->
<svg version="1.1" xmlns="http://www.w3.org/2000/svg" xmlns:xlink="http://www.w3.org/1999/xlink" x="0px" y="0px"
	 viewBox="0 0 135.76 45.39" style="enable-background:new 0 0 135.76 45.39;" xml:space="preserve">
<style type="text/css">
	.st0{display:none;}
	.st1{display:inline;fill:none;}
	.st2{display:inline;}
	.st3{fill:#F0B278;}
	.st4{fill:none;}
	.st5{fill:#E7A423;}
	.st6{fill:#424720;}
	.st7{fill:#72722F;}
	.st8{fill:#BB892C;}
	.st9{fill:#9C9D3A;}
	.st10{fill:#71712E;}
	.st11{fill:#BC8A2C;}
	.st12{fill:#9D9E3C;}
	.st13{fill:#F1B378;}
	.st14{fill:#E6A424;}
	.st15{fill:#424620;}
</style>
<g id="Layer_1" class="st0">
</g>
<g id="Layer_8">
</g>
<g id="Dark_Green">
</g>
<g id="Mid_Green">
</g>
<g id="Light_Green">
</g>
<g id="Dark_Gold">
</g>
<g id="Light_Gold">
</g>
<g id="Layer_9">
	<g>
		<path class="st4" d="M72.74,4.85c-0.02,0.32-0.02,0.65-0.02,0.99C72.72,5.5,72.73,5.17,72.74,4.85L72.74,4.85z"/>
		<path class="st4" d="M77.37,23.78c-1.9-3.25-3.44-6.57-4.52-9.71C73.93,17.21,75.47,20.53,77.37,23.78
			c0.82,1.41,3.55,5.73,6.59,6.84C80.92,29.51,78.19,25.19,77.37,23.78z"/>
		<path class="st4" d="M71.76,10.4c-0.2-0.84-0.36-1.65-0.48-2.43C71.4,8.75,71.57,9.56,71.76,10.4z"/>
		<path class="st4" d="M87.24,31.49c0.78,0.35,1.39,0.84,1.85,1.46C88.64,32.33,88.03,31.84,87.24,31.49z"/>
		<path class="st4" d="M73.41,12.27L73.41,12.27c-0.33-1.13-0.58-2.21-0.76-3.23C72.84,10.07,73.09,11.15,73.41,12.27z"/>
		<path class="st4" d="M110.26,41.52c-5.28-0.08-10.31-0.8-15.37-2.2c-2.93-0.81-3.95-2.39-4.63-3.92c0.68,1.53,1.7,3.1,4.63,3.92
			C99.95,40.72,104.98,41.44,110.26,41.52c1.6,0.02,2.62,0.14,3.32,0.31C112.88,41.66,111.86,41.54,110.26,41.52z"/>
		<path class="st4" d="M87.2,31.47c0,0-0.01,0-0.01,0C87.19,31.46,87.2,31.47,87.2,31.47z"/>
		<path class="st4" d="M117.63,44.34c-0.79-0.15-1.31-0.39-1.7-0.69C116.32,43.95,116.84,44.19,117.63,44.34z"/>
		<path class="st4" d="M87.77,6.43C87.77,6.42,87.77,6.42,87.77,6.43c0.04,0.06,0.09,0.14,0.14,0.21
			C87.86,6.57,87.82,6.49,87.77,6.43z"/>
		<path class="st4" d="M82.66,3.95c1.9-0.17,3.36,0.16,4.87,2.15C86.02,4.11,84.56,3.78,82.66,3.95c-0.64,0.06-1.23,0.02-1.8-0.08
			C81.43,3.96,82.03,4.01,82.66,3.95z"/>
		<path class="st4" d="M88.97,8.37C88.97,8.37,88.97,8.37,88.97,8.37c-0.06-0.1-0.12-0.2-0.17-0.29
			C88.86,8.18,88.91,8.27,88.97,8.37z"/>
		<path class="st4" d="M74.06,1.82c0.49-0.19,1.12-0.08,1.79,0.27C75.18,1.74,74.55,1.63,74.06,1.82c-0.28,0.11-0.5,0.3-0.67,0.54
			C73.56,2.12,73.78,1.93,74.06,1.82z"/>
		<path class="st4" d="M89.36,9.2c0,0-0.14-0.33-0.39-0.81c0,0,0,0,0-0.01C89.22,8.86,89.36,9.19,89.36,9.2
			C89.36,9.19,89.36,9.19,89.36,9.2z"/>
		<path class="st4" d="M72.78,4.38c0.01-0.07,0.01-0.14,0.02-0.21c0.01-0.07,0.02-0.15,0.03-0.22c0.04-0.26,0.09-0.53,0.18-0.8
			c-0.08,0.27-0.14,0.55-0.18,0.8l-0.05-0.01c-0.02,0.29-0.03,0.59-0.04,0.9c0.01-0.15,0.02-0.3,0.04-0.45L72.78,4.38z"/>
		<path class="st4" d="M117.42,39.63c-0.64-0.86-1.95-1.89-3.35-2.87c-0.1-0.06-0.2-0.12-0.3-0.18c-0.11-0.06-0.21-0.13-0.31-0.19
			c-0.1-0.06-0.2-0.12-0.31-0.19c-0.1-0.06-0.2-0.13-0.31-0.19c-0.1-0.06-0.21-0.13-0.31-0.19c-0.1-0.06-0.2-0.13-0.3-0.19
			c-0.1-0.07-0.21-0.13-0.31-0.2c-0.1-0.06-0.2-0.13-0.29-0.19c-0.1-0.07-0.21-0.14-0.31-0.2c-0.1-0.06-0.19-0.13-0.29-0.19
			c-0.11-0.07-0.21-0.14-0.31-0.21c-0.09-0.06-0.19-0.13-0.28-0.19c-0.11-0.07-0.21-0.14-0.32-0.22c-0.09-0.06-0.18-0.13-0.27-0.19
			c-0.11-0.07-0.21-0.15-0.32-0.23c-0.09-0.06-0.18-0.12-0.26-0.19c-0.11-0.08-0.22-0.16-0.33-0.24c-0.08-0.06-0.17-0.12-0.25-0.18
			c-0.11-0.08-0.23-0.17-0.34-0.25c-0.08-0.06-0.15-0.11-0.23-0.17c-0.13-0.09-0.25-0.19-0.38-0.29c-0.06-0.05-0.13-0.1-0.19-0.15
			c-0.19-0.14-0.38-0.29-0.57-0.44c-2.67-2.1-8.39-7.62-12.33-13.52c-1.83-2.73-3.87-6.21-5.23-8.5c-0.55-0.94-0.99-1.68-1.28-2.15
			c-0.03-0.04-0.05-0.08-0.08-0.12c0.31,0.31,0.61,0.66,0.92,1.05c-0.31-0.4-0.62-0.75-0.92-1.05c-0.34-0.54-0.68-0.98-1.01-1.36
			c0.34,0.37,0.67,0.82,1.01,1.36c-3.04-3.05-5.79-1.94-7.39-1.83c-1.82,0.13-2.91-1.61-4.71-2.25c-1.79-0.64-2.45,1.23-2.72,2.96
			c-0.13,0.87-0.09,2.32-0.01,3.54c-0.15-0.72-0.27-1.42-0.36-2.1c0.09,0.67,0.21,1.37,0.36,2.1c0,0,0,0,0,0
			c0.87,4.08,2.8,8.87,5.58,13.63c1.7,2.91,4.27,5.95,6.19,6.19c2.99,0.38,5.02,1.67,6.04,3.83c0.17,0.36,0.31,0.71,0.45,1.05
			c0.66,1.62,1.18,2.9,3.75,3.61c2.17,0.6,4.33,1.07,6.52,1.42C107.38,40.32,118.36,40.91,117.42,39.63z M87.04,15.58
			c-0.24,0.47-0.81,0.63-1.29,0.37c-0.48-0.26-0.67-0.85-0.43-1.32c0.24-0.47,0.81-0.63,1.29-0.37
			C87.08,14.52,87.28,15.11,87.04,15.58z M88.25,17.32c-0.12,0.23-0.41,0.32-0.64,0.19c-0.24-0.13-0.33-0.43-0.22-0.66
			c0.12-0.23,0.41-0.32,0.64-0.19C88.27,16.79,88.37,17.09,88.25,17.32z M76.23,12.78c0.39-0.34,1-0.29,1.36,0.11
			c0.36,0.41,0.34,1.02-0.05,1.36c-0.39,0.35-1,0.29-1.36-0.11C75.82,13.74,75.84,13.13,76.23,12.78z M77.44,15.55
			c0.19-0.17,0.5-0.15,0.68,0.06c0.18,0.2,0.17,0.51-0.02,0.68c-0.19,0.17-0.5,0.15-0.68-0.06C77.23,16.03,77.24,15.72,77.44,15.55z
			 M83.6,26.88c-0.12,0.23-0.41,0.32-0.64,0.19c-0.24-0.13-0.33-0.43-0.22-0.66c0.12-0.23,0.41-0.32,0.64-0.19
			C83.62,26.36,83.72,26.65,83.6,26.88z M82.39,25.14c-0.24,0.47-0.81,0.63-1.29,0.37c-0.48-0.26-0.67-0.85-0.43-1.32
			c0.24-0.47,0.81-0.63,1.29-0.37C82.43,24.08,82.63,24.67,82.39,25.14z M98.98,37.41C98.98,37.41,98.98,37.41,98.98,37.41
			c-3.53-1.06-5.56-3.21-5.56-3.21c6.82,3.1,12.85,2.75,12.85,2.75c-8.78-0.5-15.54-6.06-17.82-8.3c-2.72-2.69-5.03-6.45-5.68-7.31
			c-1.12-1.5-2.22-1.51-2.76-0.86c-0.94,1.14,0.7,2.26,0.7,2.26c-1,0.4-2.19-0.6-2.52-1.87c-0.33-1.27,0.5-2.55,2.07-2.49
			c1.36,0.05,2.2,1.17,4.34,3.93c3.6,4.63,5.38,6.17,9.13,8.53c3.18,2,5.24,2.59,8.53,3.12c-10.17-3.96-16.46-11.41-18.4-14.32
			c-2.33-3.49-3.96-8.01-4.46-9.07c-0.87-1.85-2.05-2.11-2.78-1.55c-1.28,0.99,0.24,2.55,0.24,2.55c-1.18,0.19-2.51-1.07-2.58-2.49
			c-0.07-1.42,1.12-2.75,2.82-2.32c1.46,0.37,2.39,1.84,4.07,5.26c2.83,5.74,4.4,7.79,7.91,11.17c2.98,2.86,8.81,6.93,12.31,8.69
			c-3.33-2.8-6.65-6.82-8.81-10.12c-2.16-3.3-4.3-8.8-4.9-9.98c-1.05-2.05-2.39-2.3-3.19-1.63c-1.4,1.17,0.37,2.87,0.37,2.87
			c-1.31,0.26-2.87-1.1-3-2.7c-0.13-1.6,1.15-3.15,3.07-2.73c1.65,0.36,2.76,1.98,4.79,5.77c2.08,3.88,3.72,6.67,5.62,9.22
			c0.07,0.1,0.15,0.2,0.22,0.3c0.12,0.16,0.25,0.32,0.37,0.48c0.06,0.08,0.12,0.15,0.18,0.23c0.18,0.23,0.36,0.45,0.55,0.68
			c0.07,0.08,0.14,0.17,0.21,0.25c0.13,0.15,0.25,0.3,0.38,0.45c0.09,0.1,0.17,0.2,0.26,0.3c0.12,0.14,0.24,0.27,0.36,0.41
			c0.09,0.1,0.19,0.21,0.28,0.31c0.13,0.14,0.26,0.28,0.39,0.42c0.09,0.1,0.18,0.2,0.28,0.3c0.17,0.18,0.35,0.37,0.53,0.55
			c0.05,0.05,0.1,0.1,0.15,0.16c3.26,3.33,8.36,7.03,10.08,8.29c2.61,1.92,3.21,2.68,3.03,2.97c-0.14,0.23-0.78,0.17-1.27,0.17
			c-0.56,0-2.47-0.07-4.73-0.25c-2.27-0.18-4.9-0.49-6.9-0.96c-0.1-0.03-0.2-0.06-0.31-0.08c-0.15-0.04-0.29-0.08-0.44-0.12
			C98.99,37.41,98.99,37.41,98.98,37.41z"/>
		<path class="st4" d="M94.67,17.68c3.95,5.9,9.66,11.42,12.33,13.52c3.84,3.01,8.01,5.56,12.6,7.72c0,0,0.01,0,0.01,0.01
			c-4.59-2.16-8.77-4.72-12.61-7.73C104.33,29.1,98.61,23.57,94.67,17.68c-1.83-2.73-3.87-6.21-5.23-8.5
			c-0.03-0.06-0.06-0.11-0.09-0.16c0.03,0.05,0.06,0.11,0.09,0.16C90.8,11.47,92.84,14.94,94.67,17.68z"/>
		<path class="st4" d="M75.94,1.38c-0.7-0.38-1.36-0.49-1.86-0.3c-0.01,0-0.02,0.01-0.03,0.02c0.01,0,0.02-0.01,0.03-0.02
			C74.59,0.88,75.24,0.99,75.94,1.38z"/>
		<path class="st4" d="M72.95,1.92c0.13-0.24,0.28-0.42,0.46-0.54C73.23,1.5,73.07,1.67,72.95,1.92c-0.26,0.51-0.45,1.17-0.55,1.96
			c-0.03,0.26-0.06,0.54-0.07,0.83c0.02-0.29,0.04-0.56,0.07-0.83C72.5,3.09,72.69,2.43,72.95,1.92z"/>
		<path class="st4" d="M71.03,4.71C71.03,4.71,71.03,4.71,71.03,4.71c0,0.08-0.01,0.16-0.01,0.24C71.02,4.87,71.02,4.78,71.03,4.71z
			"/>
		<path class="st10" d="M110.18,40.54c4.53,0.07,5.51,0.92,6.31,2.04c0.32,0.44,0.53,0.73,1.84,0.88c3.69,0.43,7.54,0.11,10.22-0.25
			c0,0,0,0,0,0l-1.62-0.55c-0.91-0.32-1.8-0.65-2.69-0.99c-0.04-0.02-0.09-0.03-0.13-0.05c-0.17-0.07-0.34-0.13-0.51-0.2
			c-0.07-0.03-0.13-0.05-0.2-0.08c-0.16-0.06-0.32-0.13-0.47-0.19c-0.08-0.03-0.15-0.06-0.23-0.09c-0.15-0.06-0.3-0.13-0.45-0.19
			c-0.08-0.03-0.16-0.07-0.24-0.1c-0.15-0.06-0.29-0.13-0.43-0.19c-0.09-0.04-0.17-0.07-0.25-0.11c-0.14-0.06-0.28-0.13-0.42-0.19
			c-0.09-0.04-0.17-0.08-0.26-0.12c-0.14-0.06-0.28-0.13-0.41-0.19c-0.09-0.04-0.17-0.08-0.26-0.12c-0.14-0.06-0.27-0.13-0.41-0.19
			c-0.09-0.04-0.18-0.08-0.26-0.13c-0.13-0.06-0.27-0.13-0.4-0.19c-0.09-0.04-0.18-0.09-0.26-0.13c-0.13-0.06-0.26-0.13-0.4-0.19
			c-0.09-0.04-0.17-0.09-0.26-0.13c-0.13-0.07-0.26-0.13-0.39-0.2c-0.08-0.04-0.17-0.09-0.25-0.13c-0.13-0.07-0.27-0.14-0.4-0.21
			c-0.08-0.04-0.15-0.08-0.23-0.12c-0.14-0.07-0.28-0.15-0.41-0.22c-0.02-0.01-0.04-0.02-0.06-0.03c-0.32-0.17-0.64-0.35-0.96-0.53
			c-0.08-0.04-0.15-0.09-0.23-0.13c-0.12-0.07-0.23-0.13-0.34-0.2c-0.1-0.05-0.19-0.11-0.29-0.16c-0.11-0.06-0.22-0.13-0.33-0.19
			c0,0,0,0,0,0c1.4,0.97,2.71,2,3.35,2.87c0.94,1.28-10.05,0.69-15.66,0.18C104.52,40.25,107.31,40.5,110.18,40.54z"/>
		<path class="st10" d="M123.26,40.53c0.66,0.27,1.59,0.72,2.48,1.18C124.85,41.25,123.92,40.79,123.26,40.53
			c-1.25-0.51-2.46-1.05-3.65-1.61c0,0-0.01,0-0.01-0.01C120.8,39.48,122.01,40.02,123.26,40.53z"/>
		<path class="st12" d="M82.74,26.41c-0.12,0.23-0.02,0.53,0.22,0.66c0.24,0.13,0.53,0.05,0.64-0.19c0.12-0.23,0.02-0.53-0.22-0.66
			C83.15,26.09,82.86,26.18,82.74,26.41z"/>
		<path class="st12" d="M108.22,37.08c-4.06-0.86-8.26-2.49-9.23-2.88c1.96,0.77,5.28,1.31,7.28,1.58c1,0.14,1.07-0.3,0.13-1.13
			c-1.29-1.14-3.22-2.89-5.12-4.75c-3.28-3.2-6.09-7.55-6.11-7.59c0.06,0.08,0.12,0.16,0.18,0.25c-1.9-2.55-3.54-5.34-5.62-9.22
			c-2.03-3.79-3.14-5.41-4.79-5.77c-1.92-0.42-3.2,1.13-3.07,2.73c0.13,1.6,1.69,2.96,3,2.7c0,0-1.77-1.7-0.37-2.87
			c0.8-0.67,2.14-0.42,3.19,1.63c0.6,1.18,2.74,6.68,4.9,9.98c2.16,3.3,5.48,7.32,8.81,10.12c-3.5-1.76-9.33-5.83-12.31-8.69
			c-3.52-3.37-5.08-5.42-7.91-11.17c-1.69-3.42-2.62-4.89-4.07-5.26c-1.69-0.43-2.88,0.9-2.82,2.32c0.07,1.42,1.4,2.68,2.58,2.49
			c0,0-1.52-1.57-0.24-2.55c0.73-0.56,1.92-0.3,2.78,1.55c0.5,1.06,2.13,5.58,4.46,9.07c1.94,2.91,8.24,10.35,18.4,14.32
			c-3.29-0.52-5.35-1.12-8.53-3.12c-3.75-2.36-5.53-3.9-9.13-8.53c-2.15-2.76-2.98-3.88-4.34-3.93c-1.58-0.06-2.4,1.22-2.07,2.49
			c0.33,1.27,1.52,2.27,2.52,1.87c0,0-1.64-1.12-0.7-2.26c0.54-0.65,1.63-0.64,2.76,0.86c0.64,0.86,2.95,4.62,5.68,7.31
			c2.27,2.25,9.04,7.81,17.82,8.3c0,0-6.03,0.35-12.85-2.75c0,0,2.03,2.15,5.57,3.21C104.82,38.18,112.15,37.91,108.22,37.08z
			 M97.17,32.92c0.01,0.01,0.03,0.01,0.04,0.02C97.2,32.93,97.18,32.92,97.17,32.92z M97.21,32.94c0.06,0.03,0.13,0.06,0.19,0.08
			C97.32,32.98,97.25,32.95,97.21,32.94z"/>
		<path class="st12" d="M96.91,24.51c0.13,0.15,0.25,0.3,0.38,0.45C97.16,24.81,97.03,24.66,96.91,24.51z"/>
		<path class="st12" d="M96.14,23.58c0.18,0.23,0.36,0.45,0.55,0.68C96.51,24.03,96.32,23.81,96.14,23.58z"/>
		<path class="st12" d="M98.19,25.98c0.13,0.14,0.26,0.28,0.39,0.42C98.45,26.26,98.32,26.12,98.19,25.98z"/>
		<path class="st12" d="M99,37.41c0.14,0.04,0.29,0.08,0.44,0.12C99.29,37.49,99.14,37.46,99,37.41z"/>
		<path class="st12" d="M95.59,22.87c0.12,0.16,0.25,0.32,0.37,0.48C95.84,23.19,95.71,23.03,95.59,22.87z"/>
		<path class="st12" d="M97.91,25.67c-0.12-0.14-0.24-0.27-0.36-0.41C97.67,25.4,97.79,25.53,97.91,25.67z"/>
		<path class="st12" d="M98.86,26.7c0.17,0.18,0.35,0.37,0.53,0.55C99.21,27.06,99.03,26.88,98.86,26.7z"/>
		<path class="st12" d="M111.38,38.83c-0.56,0-2.47-0.07-4.73-0.25C108.91,38.76,110.82,38.83,111.38,38.83
			c0.5,0,1.13,0.06,1.27-0.17C112.5,38.89,111.87,38.83,111.38,38.83z"/>
		<path class="st12" d="M77.54,14.26c0.39-0.34,0.41-0.95,0.05-1.36c-0.36-0.41-0.97-0.46-1.36-0.11c-0.39,0.35-0.41,0.96-0.05,1.36
			C76.55,14.55,77.16,14.6,77.54,14.26z"/>
		<path class="st12" d="M78.09,16.29c0.19-0.17,0.2-0.48,0.02-0.68c-0.18-0.2-0.49-0.23-0.68-0.06c-0.19,0.17-0.2,0.48-0.02,0.68
			C77.59,16.43,77.9,16.46,78.09,16.29z"/>
		<path class="st12" d="M80.67,24.19c-0.24,0.47-0.04,1.06,0.43,1.32c0.48,0.26,1.05,0.1,1.29-0.37c0.24-0.47,0.04-1.06-0.43-1.32
			C81.48,23.56,80.91,23.73,80.67,24.19z"/>
		<path class="st12" d="M86.61,14.26c-0.48-0.26-1.05-0.09-1.29,0.37c-0.24,0.47-0.04,1.06,0.43,1.32c0.48,0.26,1.05,0.1,1.29-0.37
			C87.28,15.11,87.08,14.52,86.61,14.26z"/>
		<path class="st12" d="M87.39,16.85c-0.12,0.23-0.02,0.53,0.22,0.66c0.24,0.13,0.53,0.05,0.64-0.19c0.12-0.23,0.02-0.53-0.22-0.66
			C87.8,16.53,87.51,16.62,87.39,16.85z"/>
		<path class="st10" d="M97.29,24.96c0.09,0.1,0.17,0.2,0.26,0.3C97.46,25.16,97.38,25.06,97.29,24.96z"/>
		<path class="st10" d="M98.58,26.4c0.09,0.1,0.18,0.2,0.28,0.3C98.77,26.6,98.67,26.5,98.58,26.4z"/>
		<path class="st10" d="M96.7,24.26c0.07,0.08,0.14,0.17,0.21,0.25C96.84,24.43,96.76,24.34,96.7,24.26z"/>
		<path class="st10" d="M98.19,25.98c-0.09-0.1-0.19-0.21-0.28-0.31C98.01,25.77,98.1,25.88,98.19,25.98z"/>
		<path class="st10" d="M109.62,35.69c2.61,1.92,3.21,2.68,3.03,2.97C112.83,38.37,112.23,37.62,109.62,35.69
			c-1.71-1.26-6.82-4.96-10.08-8.29c-0.05-0.05-0.1-0.1-0.15-0.16c0.05,0.05,0.1,0.1,0.15,0.16
			C102.79,30.73,107.9,34.43,109.62,35.69z"/>
		<path class="st10" d="M98.98,37.41c0.01,0,0.01,0,0.02,0C98.99,37.41,98.99,37.41,98.98,37.41
			C98.98,37.41,98.98,37.41,98.98,37.41z"/>
		<path class="st10" d="M95.96,23.35c0.06,0.08,0.12,0.15,0.18,0.23C96.08,23.5,96.02,23.42,95.96,23.35z"/>
		<path class="st10" d="M95.37,22.57c0.07,0.1,0.15,0.2,0.22,0.3C95.52,22.77,95.44,22.67,95.37,22.57z"/>
		<path class="st10" d="M99.43,37.53c0.1,0.03,0.2,0.06,0.31,0.08c2,0.48,4.63,0.78,6.9,0.96c-2.27-0.18-4.9-0.49-6.9-0.96
			C99.64,37.59,99.54,37.56,99.43,37.53z"/>
		<path class="st10" d="M99.74,37.61c2,0.48,4.63,0.78,6.9,0.96c2.27,0.18,4.18,0.25,4.73,0.25c0.5,0,1.13,0.06,1.27-0.17
			c0.18-0.29-0.41-1.04-3.03-2.97c-1.71-1.26-6.82-4.96-10.08-8.29c-0.05-0.05-0.1-0.1-0.15-0.16c-0.18-0.18-0.36-0.37-0.53-0.55
			c-0.09-0.1-0.19-0.2-0.28-0.3c-0.13-0.14-0.26-0.28-0.39-0.42c-0.09-0.1-0.19-0.21-0.28-0.31c-0.12-0.14-0.24-0.27-0.36-0.41
			c-0.09-0.1-0.17-0.2-0.26-0.3c-0.13-0.15-0.26-0.3-0.38-0.45c-0.07-0.08-0.14-0.17-0.21-0.25c-0.19-0.23-0.37-0.45-0.55-0.68
			c-0.06-0.08-0.12-0.15-0.18-0.23c-0.12-0.16-0.25-0.32-0.37-0.48c-0.08-0.1-0.15-0.2-0.22-0.3c-0.06-0.08-0.12-0.16-0.18-0.25
			c0.02,0.04,2.83,4.38,6.11,7.59c1.9,1.86,3.83,3.61,5.12,4.75c0.94,0.83,0.87,1.27-0.13,1.13c-2-0.27-5.33-0.81-7.28-1.58
			c0.97,0.39,5.17,2.02,9.23,2.88c3.92,0.83-3.41,1.1-9.24,0.33c0,0,0.01,0,0.01,0c0.14,0.04,0.29,0.08,0.44,0.12
			C99.54,37.56,99.64,37.59,99.74,37.61z"/>
		<path class="st12" d="M73.25,6.53c0.27-1.73,0.92-3.6,2.72-2.96c1.79,0.64,2.89,2.38,4.71,2.25c1.6-0.11,4.34-1.22,7.39,1.83
			c-0.34-0.54-0.68-0.98-1.01-1.36c-1.35-1.5-2.7-1.74-4.41-1.59c-2.93,0.26-5.16-1.46-6-2.1c-0.27-0.2-0.53-0.37-0.78-0.5
			c-0.68-0.35-1.31-0.46-1.79-0.27c-0.28,0.11-0.5,0.3-0.67,0.54c-0.17,0.23-0.29,0.51-0.38,0.79c-0.08,0.27-0.14,0.55-0.18,0.8
			c-0.01,0.07-0.02,0.15-0.03,0.22c-0.01,0.07-0.02,0.14-0.02,0.21l0,0.01c-0.02,0.15-0.03,0.3-0.04,0.45c0,0,0,0,0,0l0,0
			c-0.02,0.32-0.03,0.65-0.02,0.99c0.01,0.67,0.06,1.39,0.15,2.13c0.09,0.67,0.21,1.37,0.36,2.1C73.16,8.85,73.11,7.4,73.25,6.53z"
			/>
		<path class="st11" d="M71.76,10.4c0.13,0.55,0.27,1.1,0.44,1.67c0.19,0.66,0.41,1.33,0.64,2c1.09,3.14,2.63,6.46,4.52,9.71
			c0.82,1.41,3.55,5.73,6.59,6.84c0.31,0.11,0.62,0.21,0.94,0.25c0.88,0.11,1.65,0.31,2.3,0.6c0,0,0.01,0,0.01,0
			c0.02,0.01,0.03,0.02,0.04,0.02c0.78,0.35,1.39,0.84,1.85,1.46c0.16,0.22,0.31,0.45,0.43,0.71c0.15,0.31,0.28,0.63,0.41,0.96
			c0.1,0.25,0.21,0.51,0.32,0.77c0.68,1.53,1.7,3.1,4.63,3.92c5.06,1.41,10.09,2.13,15.37,2.2c1.6,0.02,2.62,0.14,3.32,0.31
			c1.04,0.25,1.32,0.63,1.56,0.97c0.22,0.31,0.46,0.6,0.79,0.85c0.39,0.3,0.91,0.54,1.7,0.69c0.19,0.04,0.39,0.07,0.6,0.09
			c6.86,0.79,13.99-0.82,14.29-0.88l1.79-0.41l-1.85-0.52c-9.59-2.7-17.6-6.63-24.48-12.02c-2.58-2.03-8.11-7.37-11.94-13.09
			c-1.8-2.69-3.83-6.13-5.17-8.41c-0.56-0.95-1-1.7-1.3-2.18c-2.35-3.81-4.84-4.14-7.18-3.94c-2,0.18-3.6-0.83-4.77-1.73
			c-1.47-1.13-3.02-1.51-4.25-1.04c-0.85,0.32-1.93,1.18-2.25,3.43c-0.05,0.34-0.08,0.69-0.1,1.06c-0.01,1.01,0.08,2.12,0.26,3.29
			C71.4,8.75,71.57,9.56,71.76,10.4z M72.4,3.87l-0.42-0.08L72.4,3.87c0.1-0.78,0.28-1.45,0.55-1.96c0.13-0.24,0.28-0.42,0.46-0.54
			c0.14-0.1,0.29-0.16,0.46-0.2c0.06-0.04,0.12-0.06,0.19-0.09c0.01,0,0.02-0.01,0.03-0.02c0.5-0.19,1.15-0.08,1.86,0.3
			c0.23,0.13,0.48,0.28,0.72,0.47c0.66,0.51,2.17,1.66,4.2,2.02c0.56,0.1,1.16,0.14,1.8,0.08c1.9-0.17,3.36,0.16,4.87,2.15
			c0.08,0.1,0.16,0.21,0.24,0.32c0,0,0,0,0,0c0,0,0,0,0,0.01c0,0,0-0.01-0.01-0.01c0.52,0.69,0.93,1.42,1.21,1.96c0,0,0-0.01,0-0.01
			c0,0,0,0,0,0.01c0,0,0,0,0,0c0,0,0,0,0,0c0,0,0,0,0,0.01c0,0,0-0.01,0-0.01c0.12,0.2,0.24,0.41,0.38,0.64
			c0.03,0.05,0.06,0.11,0.09,0.16c1.35,2.3,3.4,5.77,5.23,8.5c3.95,5.9,9.66,11.42,12.33,13.52c3.84,3.01,8.02,5.57,12.61,7.73
			c4.6,1.98,10.47,4.31,10.47,4.31c-2.89,0.81-9.78,1.25-11.46,1.12c-1.68-0.13-2.13-1.03-2.87-1.93c-0.74-0.9-2.23-1.13-3.14-1.21
			c-0.9-0.08-3.17-0.23-5.5-0.39c-2.33-0.16-6.39-1.11-6.39-1.11c0.32,0.03,0.66,0.07,1.03,0.1c-2.18-0.35-4.35-0.81-6.52-1.42
			c-2.57-0.71-3.09-1.99-3.75-3.61c-0.14-0.34-0.28-0.7-0.45-1.05c-1.02-2.16-3.05-3.45-6.04-3.83c-1.92-0.24-4.49-3.29-6.19-6.19
			c-2.78-4.76-4.71-9.55-5.58-13.63c0.08,1.21,0.18,2.2,0.18,2.2c0,0,0,0,0,0l0,0c-0.33-1.13-0.58-2.21-0.76-3.23
			c-0.29-1.63-0.4-3.1-0.33-4.34C72.34,4.41,72.37,4.13,72.4,3.87z"/>
		<path class="st11" d="M71.03,4.67C71.03,4.67,71.03,4.67,71.03,4.67c0,0.01,0,0.02,0,0.04c0,0,0,0,0,0
			C71.03,4.7,71.03,4.68,71.03,4.67z"/>
		<path class="st11" d="M71.03,4.71c-0.01,0.14-0.01,0.27-0.02,0.41c0-0.06,0-0.12,0.01-0.18C71.02,4.87,71.02,4.79,71.03,4.71z"/>
		<path class="st11" d="M71.01,5.78c0-0.14,0-0.29,0-0.43C71,5.49,71.01,5.63,71.01,5.78z"/>
		<path class="st11" d="M125.75,41.71c1.44,0.74,2.8,1.5,2.8,1.5l0,0c0,0,0,0,0,0c-2.68,0.36-6.53,0.68-10.22,0.25
			c-1.31-0.15-1.52-0.44-1.84-0.88c-0.81-1.11-1.78-1.97-6.31-2.04c-2.87-0.04-5.65-0.29-8.41-0.72c-0.37-0.03-0.72-0.07-1.03-0.1
			c0,0,4.05,0.96,6.39,1.11c2.33,0.16,4.6,0.31,5.5,0.39c0.91,0.08,2.4,0.31,3.14,1.21c0.74,0.9,1.19,1.8,2.87,1.93
			c1.68,0.13,8.57-0.31,11.46-1.12c0,0-5.87-2.33-10.47-4.31c1.19,0.56,2.4,1.1,3.65,1.61C123.92,40.79,124.85,41.25,125.75,41.71z"
			/>
		<path class="st13" d="M88.16,7.02c0.16,0.27,0.38,0.63,0.64,1.06c0.05,0.09,0.11,0.18,0.17,0.28c-0.28-0.53-0.68-1.25-1.2-1.94
			c0.05,0.07,0.09,0.14,0.14,0.21C88,6.76,88.08,6.88,88.16,7.02z"/>
		<path class="st13" d="M88.97,8.37c-0.28-0.54-0.69-1.27-1.21-1.96c0,0,0,0.01,0.01,0.01C88.28,7.11,88.69,7.83,88.97,8.37
			C88.97,8.37,88.97,8.37,88.97,8.37z"/>
		<path class="st14" d="M89.36,9.19C89.36,9.19,89.36,9.2,89.36,9.19c-0.13-0.17-0.25-0.34-0.38-0.5c-0.31-0.39-0.62-0.75-0.92-1.05
			c0.03,0.04,0.05,0.08,0.08,0.12c0.29,0.47,0.73,1.21,1.28,2.15c1.35,2.3,3.4,5.77,5.23,8.5c3.95,5.9,9.66,11.42,12.33,13.52
			c0.19,0.15,0.38,0.29,0.57,0.44c0.06,0.05,0.13,0.1,0.19,0.15c0.13,0.1,0.25,0.19,0.38,0.29c0.08,0.06,0.15,0.11,0.23,0.17
			c0.11,0.08,0.23,0.17,0.34,0.25c0.08,0.06,0.17,0.12,0.25,0.18c0.11,0.08,0.22,0.16,0.33,0.24c0.09,0.06,0.18,0.12,0.26,0.19
			c0.11,0.08,0.21,0.15,0.32,0.23c0.09,0.06,0.18,0.13,0.27,0.19c0.11,0.07,0.21,0.15,0.32,0.22c0.09,0.06,0.19,0.13,0.28,0.19
			c0.1,0.07,0.21,0.14,0.31,0.21c0.1,0.06,0.19,0.13,0.29,0.19c0.1,0.07,0.21,0.14,0.31,0.2c0.1,0.06,0.2,0.13,0.29,0.19
			c0.1,0.07,0.21,0.13,0.31,0.2c0.1,0.06,0.2,0.13,0.3,0.19c0.1,0.06,0.2,0.13,0.31,0.19c0.1,0.06,0.2,0.13,0.31,0.19
			c0.1,0.06,0.2,0.12,0.31,0.19c0.11,0.06,0.21,0.13,0.31,0.19c0.1,0.06,0.2,0.12,0.3,0.18c-0.85-0.59-1.74-1.17-2.53-1.68
			c0,0,0.25,0.16,4.28,2.12c0.97,0.47,2.31,1.07,3.77,1.7c-4.58-2.16-8.76-4.72-12.6-7.72c-2.67-2.1-8.39-7.62-12.33-13.52
			c-1.83-2.73-3.87-6.21-5.23-8.5c-0.03-0.06-0.06-0.11-0.09-0.16c-0.13-0.22-0.26-0.43-0.37-0.63C89.23,8.87,89.36,9.2,89.36,9.19
			C89.36,9.19,89.36,9.19,89.36,9.19z"/>
		<path class="st14" d="M114.4,36.96c0.09,0.06,0.19,0.11,0.29,0.16c0.11,0.07,0.23,0.13,0.34,0.2c0.08,0.04,0.15,0.09,0.23,0.13
			c0.32,0.18,0.64,0.35,0.96,0.53c0.02,0.01,0.04,0.02,0.06,0.03c0.14,0.07,0.28,0.15,0.41,0.22c0.08,0.04,0.15,0.08,0.23,0.12
			c0.13,0.07,0.26,0.14,0.4,0.21c0.08,0.04,0.17,0.09,0.25,0.13c0.13,0.07,0.26,0.13,0.39,0.2c0.09,0.04,0.17,0.09,0.26,0.13
			c0.13,0.06,0.26,0.13,0.4,0.19c0.09,0.04,0.17,0.09,0.26,0.13c0.13,0.06,0.27,0.13,0.4,0.19c0.09,0.04,0.17,0.08,0.26,0.13
			c0.14,0.06,0.27,0.13,0.41,0.19c0.09,0.04,0.17,0.08,0.26,0.12c0.14,0.06,0.28,0.13,0.41,0.19c0.09,0.04,0.17,0.08,0.26,0.12
			c0.14,0.06,0.28,0.13,0.42,0.19c0.08,0.04,0.17,0.07,0.25,0.11c0.14,0.06,0.29,0.13,0.43,0.19c0.08,0.03,0.16,0.07,0.24,0.1
			c0.15,0.06,0.3,0.13,0.45,0.19c0.07,0.03,0.15,0.06,0.23,0.09c0.16,0.07,0.32,0.13,0.47,0.19c0.07,0.03,0.13,0.05,0.2,0.08
			c0.17,0.07,0.34,0.14,0.51,0.2c0.04,0.02,0.09,0.03,0.13,0.05c0.88,0.34,1.78,0.67,2.69,0.99l1.62,0.55
			c-0.02-0.01-1.36-0.76-2.79-1.49c-0.9-0.46-1.83-0.92-2.48-1.18c-1.25-0.51-2.47-1.05-3.66-1.61c-1.46-0.63-2.8-1.23-3.77-1.7
			c-4.04-1.96-4.28-2.12-4.28-2.12c0.79,0.51,1.67,1.08,2.53,1.68c0,0,0,0,0,0C114.19,36.83,114.29,36.9,114.4,36.96z"/>
		<path class="st14" d="M88.97,8.37C88.97,8.38,88.98,8.38,88.97,8.37c0.12,0.21,0.25,0.42,0.38,0.64
			C89.22,8.79,89.09,8.57,88.97,8.37z"/>
		<path class="st14" d="M128.54,43.21c0,0-1.36-0.75-2.8-1.5C127.18,42.45,128.53,43.2,128.54,43.21L128.54,43.21z"/>
		<path class="st14" d="M73.41,12.27c0,0-0.11-0.99-0.18-2.2c0,0,0,0,0,0c0,0,0,0,0,0c-0.15-0.72-0.27-1.42-0.36-2.1
			c-0.09-0.75-0.14-1.46-0.15-2.13c0-0.34,0-0.67,0.02-0.99l0,0c0,0,0,0,0,0c0,0,0,0,0,0c0-0.31,0.01-0.61,0.04-0.9l0.05,0.01
			c0.04-0.26,0.1-0.53,0.18-0.8c0.09-0.29,0.21-0.56,0.38-0.79c0.17-0.24,0.39-0.44,0.67-0.55c0.49-0.18,1.12-0.08,1.79,0.27
			c0.26,0.13,0.52,0.3,0.78,0.5c0.84,0.65,3.07,2.36,6,2.1c1.71-0.15,3.06,0.1,4.41,1.59c0.34,0.37,0.67,0.82,1.01,1.36
			c0.31,0.31,0.61,0.66,0.92,1.05c0.13,0.16,0.25,0.32,0.38,0.5c0-0.01-0.14-0.34-0.39-0.82c0,0,0,0,0,0c0,0,0,0,0,0
			c-0.06-0.1-0.11-0.19-0.17-0.29c-0.26-0.43-0.47-0.79-0.64-1.06c-0.08-0.14-0.17-0.26-0.25-0.39c-0.05-0.07-0.1-0.15-0.14-0.22
			c0,0,0,0,0,0c-0.08-0.11-0.16-0.22-0.24-0.32c-1.51-1.99-2.97-2.31-4.87-2.15c-0.64,0.06-1.23,0.02-1.8-0.08
			c-2.03-0.36-3.55-1.51-4.2-2.02c-0.24-0.19-0.48-0.34-0.72-0.47c-0.7-0.38-1.36-0.49-1.86-0.3c-0.01,0-0.02,0.01-0.03,0.02
			c-0.07,0.03-0.13,0.06-0.19,0.09c-0.17,0.03-0.32,0.1-0.46,0.2c-0.18,0.12-0.33,0.29-0.46,0.54c-0.26,0.51-0.45,1.17-0.55,1.96
			c-0.03,0.26-0.06,0.54-0.07,0.83c-0.07,1.24,0.04,2.72,0.33,4.34C72.84,10.07,73.09,11.15,73.41,12.27z"/>
		<polygon class="st14" points="72.75,4.85 72.75,4.85 72.75,4.85 72.75,4.85 		"/>
		<path class="st14" d="M82.64,4.69c1.71-0.15,3.06,0.1,4.41,1.59C85.7,4.79,84.35,4.54,82.64,4.69c-2.93,0.26-5.16-1.46-6-2.1
			c-0.26-0.2-0.53-0.37-0.78-0.5c0.26,0.13,0.52,0.3,0.78,0.5C77.48,3.24,79.71,4.95,82.64,4.69z"/>
		<path class="st14" d="M73.01,3.15c0.09-0.28,0.21-0.56,0.38-0.79C73.22,2.6,73.1,2.87,73.01,3.15z"/>
		<path class="st14" d="M72.87,7.97c-0.09-0.75-0.14-1.46-0.15-2.13C72.73,6.52,72.78,7.23,72.87,7.97z"/>
		<path class="st14" d="M73.41,12.27C73.41,12.27,73.41,12.27,73.41,12.27c0,0-0.11-0.99-0.18-2.2c0,0,0,0,0,0
			C73.31,11.28,73.41,12.27,73.41,12.27z"/>
		<path class="st14" d="M74.05,1.09c-0.07,0.03-0.13,0.06-0.19,0.09c-0.17,0.03-0.32,0.1-0.46,0.2c0.14-0.1,0.29-0.16,0.46-0.2
			C73.92,1.15,73.99,1.12,74.05,1.09z"/>
		<polygon class="st14" points="88.97,8.37 88.97,8.37 88.97,8.37 88.97,8.37 		"/>
		<path class="st14" d="M87.77,6.42C87.77,6.42,87.77,6.42,87.77,6.42c-0.08-0.12-0.16-0.22-0.24-0.32
			C87.61,6.2,87.69,6.3,87.77,6.42C87.77,6.42,87.77,6.42,87.77,6.42z"/>
		<path class="st14" d="M72.66,9.04c-0.29-1.63-0.4-3.1-0.33-4.34C72.26,5.94,72.37,7.42,72.66,9.04z"/>
		<path class="st14" d="M80.87,3.87c-2.03-0.36-3.55-1.51-4.2-2.02c-0.24-0.19-0.48-0.34-0.72-0.47c0.23,0.13,0.48,0.28,0.72,0.47
			C77.32,2.35,78.83,3.51,80.87,3.87z"/>
		<path class="st14" d="M87.91,6.64c0.08,0.13,0.17,0.25,0.25,0.39c0.16,0.27,0.38,0.63,0.64,1.06c-0.26-0.43-0.47-0.79-0.64-1.06
			C88.08,6.88,88,6.76,87.91,6.64z"/>
		<path class="st14" d="M89.36,9.19c-0.13-0.18-0.25-0.34-0.38-0.5C89.11,8.85,89.24,9.02,89.36,9.19
			C89.36,9.2,89.36,9.19,89.36,9.19z"/>
		<path class="st14" d="M71.01,5.15c0-0.01,0-0.02,0-0.02c0,0.08-0.01,0.15-0.01,0.23c0,0,0-0.01,0-0.01
			C71.01,5.28,71.01,5.21,71.01,5.15z"/>
		<path class="st14" d="M71.03,4.68c0,0,0-0.01,0-0.01c0,0,0,0,0,0C71.03,4.68,71.03,4.68,71.03,4.68
			C71.03,4.69,71.03,4.68,71.03,4.68z"/>
		<path class="st14" d="M134.32,43.14L134.32,43.14l-1.79,0.41c-0.3,0.07-7.43,1.68-14.29,0.88c-0.22-0.03-0.42-0.06-0.6-0.09
			c-0.79-0.15-1.31-0.39-1.7-0.69c-0.33-0.25-0.57-0.54-0.79-0.85c-0.25-0.34-0.52-0.71-1.56-0.97c-0.69-0.17-1.72-0.29-3.32-0.31
			c-5.28-0.08-10.31-0.8-15.37-2.2c-2.93-0.82-3.95-2.39-4.63-3.92c-0.12-0.26-0.22-0.52-0.33-0.77c-0.14-0.34-0.27-0.65-0.41-0.96
			c-0.12-0.26-0.27-0.49-0.43-0.71c-0.45-0.62-1.06-1.11-1.85-1.46c-0.01-0.01-0.03-0.02-0.04-0.02c0,0-0.01,0-0.01,0
			c-0.65-0.29-1.41-0.48-2.3-0.6c-0.31-0.04-0.63-0.13-0.94-0.25c-3.03-1.11-5.76-5.43-6.59-6.84c-1.9-3.25-3.44-6.57-4.52-9.71
			c-0.23-0.67-0.45-1.34-0.64-2c-0.16-0.57-0.31-1.12-0.44-1.67c-0.2-0.84-0.36-1.65-0.48-2.43c-0.18-1.17-0.26-2.27-0.26-3.28
			c0,0.01,0,0.01,0,0.02c0,0.08-0.01,0.16-0.01,0.24c0,0.07-0.01,0.14-0.01,0.2c0,0.06-0.01,0.13-0.01,0.19c0,0.21,0,0.43,0,0.65
			c0-0.07,0-0.14,0-0.21c0,0.07,0,0.14,0,0.21l0,0.02c0,0.07,0,0.14,0.01,0.21l0,0.02c0.01,0.38,0.04,0.76,0.08,1.16
			c0,0.01,0,0.02,0,0.03c0.01,0.07,0.01,0.13,0.02,0.2c0,0.02,0,0.04,0.01,0.06c0.01,0.06,0.01,0.13,0.02,0.19
			c0,0.02,0.01,0.05,0.01,0.07c0.01,0.06,0.02,0.13,0.02,0.19c0,0.03,0.01,0.05,0.01,0.08c0.01,0.06,0.02,0.13,0.03,0.19
			c0,0.02,0,0.04,0.01,0.05c0.03,0.21,0.06,0.43,0.1,0.65c0.01,0.04,0.01,0.07,0.02,0.11c0.01,0.05,0.02,0.11,0.03,0.16
			c0.01,0.04,0.02,0.08,0.02,0.12c0.01,0.05,0.02,0.1,0.03,0.16c0.01,0.05,0.02,0.09,0.03,0.13c0.01,0.05,0.02,0.1,0.03,0.15
			c0.01,0.05,0.02,0.1,0.03,0.14c0.01,0.05,0.02,0.1,0.03,0.15c0.01,0.05,0.02,0.11,0.04,0.16c0.01,0.04,0.02,0.09,0.03,0.13
			c0.02,0.09,0.04,0.19,0.06,0.29c0.01,0.03,0.01,0.07,0.02,0.1c0.02,0.07,0.03,0.14,0.05,0.2c0.01,0.04,0.02,0.08,0.03,0.12
			c0.01,0.06,0.03,0.12,0.04,0.18c0.01,0.04,0.02,0.08,0.03,0.13c0.01,0.06,0.03,0.12,0.05,0.18c0.01,0.04,0.02,0.08,0.03,0.13
			c0.02,0.06,0.03,0.13,0.05,0.19c0.01,0.04,0.02,0.08,0.03,0.12c0.02,0.07,0.04,0.14,0.06,0.21c0.01,0.03,0.02,0.07,0.03,0.1
			c0.03,0.1,0.06,0.21,0.09,0.31c1.07,3.71,2.86,7.76,5.17,11.71c0.91,1.55,4.13,6.65,7.52,7.09c2.37,0.3,3.88,1.22,4.63,2.8
			c0.15,0.31,0.28,0.63,0.41,0.96c0.71,1.75,1.52,3.74,4.95,4.69c5.06,1.41,10.09,2.13,15.37,2.2c4,0.06,4.47,0.71,4.88,1.28
			c0.55,0.76,1.16,1.4,3.1,1.63c6.86,0.79,13.99-0.81,14.29-0.88l3.26-0.75L134.32,43.14L134.32,43.14z"/>
		<path class="st14" d="M71.29,7.97c-0.18-1.17-0.26-2.27-0.26-3.29c0,0,0,0,0,0C71.02,5.7,71.11,6.8,71.29,7.97z"/>
		<path class="st14" d="M115.14,42.8c-0.25-0.34-0.52-0.71-1.56-0.97C114.62,42.09,114.89,42.46,115.14,42.8
			c0.22,0.31,0.46,0.6,0.79,0.85C115.6,43.4,115.36,43.11,115.14,42.8z"/>
		<path class="st14" d="M89.52,33.66c-0.12-0.26-0.27-0.49-0.43-0.71C89.25,33.18,89.4,33.41,89.52,33.66
			c0.15,0.31,0.28,0.63,0.41,0.96c0.1,0.25,0.21,0.51,0.33,0.77c-0.11-0.26-0.22-0.52-0.32-0.77C89.8,34.29,89.67,33.98,89.52,33.66
			z"/>
		<path class="st14" d="M118.24,44.43c-0.22-0.03-0.42-0.06-0.6-0.09C117.82,44.37,118.02,44.4,118.24,44.43
			c6.86,0.79,13.99-0.82,14.29-0.88l1.79-0.41l0,0l-1.79,0.41C132.23,43.61,125.1,45.22,118.24,44.43z"/>
		<path class="st14" d="M83.95,30.62c0.31,0.11,0.62,0.21,0.94,0.25c0.88,0.11,1.65,0.31,2.3,0.6c-0.65-0.29-1.41-0.48-2.3-0.6
			C84.58,30.83,84.26,30.74,83.95,30.62z"/>
		<path class="st14" d="M71.76,10.4c0.13,0.55,0.27,1.1,0.44,1.67c0.19,0.66,0.41,1.33,0.64,2c-0.23-0.67-0.45-1.34-0.64-2
			C72.04,11.5,71.89,10.95,71.76,10.4z"/>
		<path class="st14" d="M87.24,31.49c-0.01-0.01-0.03-0.02-0.04-0.02C87.22,31.47,87.23,31.48,87.24,31.49z"/>
		<path class="st14" d="M71.02,4.94c0,0.06,0,0.12-0.01,0.18c0,0.01,0,0.02,0,0.02C71.01,5.08,71.02,5.01,71.02,4.94z"/>
		<path class="st14" d="M71.01,5.34C71.01,5.34,71.01,5.35,71.01,5.34c0,0.15,0,0.29,0,0.44c0,0.07,0,0.14,0,0.21
			C71,5.77,71,5.55,71.01,5.34z"/>
		<path class="st14" d="M71.01,5.15c0,0.06-0.01,0.13-0.01,0.19C71.01,5.28,71.01,5.21,71.01,5.15z"/>
		<path class="st14" d="M71.03,4.69c0,0,0-0.01,0-0.01c0,0.01,0,0.02,0,0.03C71.03,4.7,71.03,4.69,71.03,4.69z"/>
		<path class="st10" d="M97.4,33.02c-0.07-0.03-0.13-0.05-0.19-0.08C97.25,32.95,97.32,32.98,97.4,33.02z"/>
	</g>
	<g>
		<path class="st4" d="M63.02,4.85c0.02,0.32,0.02,0.65,0.02,0.99C63.04,5.5,63.04,5.17,63.02,4.85L63.02,4.85z"/>
		<path class="st4" d="M58.4,23.78c1.9-3.25,3.44-6.57,4.52-9.71C61.83,17.21,60.3,20.53,58.4,23.78c-0.82,1.41-3.55,5.73-6.59,6.84
			C54.84,29.51,57.57,25.19,58.4,23.78z"/>
		<path class="st4" d="M64,10.4c0.2-0.84,0.36-1.65,0.48-2.43C64.36,8.75,64.2,9.56,64,10.4z"/>
		<path class="st4" d="M48.52,31.49c-0.78,0.35-1.39,0.84-1.85,1.46C47.13,32.33,47.74,31.84,48.52,31.49z"/>
		<path class="st4" d="M62.35,12.27L62.35,12.27c0.33-1.13,0.58-2.21,0.76-3.23C62.93,10.07,62.68,11.15,62.35,12.27z"/>
		<path class="st4" d="M25.5,41.52c5.28-0.08,10.31-0.8,15.37-2.2c2.93-0.81,3.95-2.39,4.63-3.92c-0.68,1.53-1.7,3.1-4.63,3.92
			C35.82,40.72,30.79,41.44,25.5,41.52c-1.6,0.02-2.62,0.14-3.32,0.31C22.88,41.66,23.91,41.54,25.5,41.52z"/>
		<path class="st4" d="M48.56,31.47c0,0,0.01,0,0.01,0C48.57,31.46,48.57,31.47,48.56,31.47z"/>
		<path class="st4" d="M18.13,44.34c0.79-0.15,1.31-0.39,1.7-0.69C19.45,43.95,18.93,44.19,18.13,44.34z"/>
		<path class="st4" d="M47.99,6.43C47.99,6.42,48,6.42,47.99,6.43c-0.04,0.06-0.09,0.14-0.14,0.21C47.9,6.57,47.95,6.49,47.99,6.43z
			"/>
		<path class="st4" d="M53.1,3.95c-1.9-0.17-3.36,0.16-4.87,2.15C49.74,4.11,51.2,3.78,53.1,3.95c0.64,0.06,1.23,0.02,1.8-0.08
			C54.34,3.96,53.74,4.01,53.1,3.95z"/>
		<path class="st4" d="M46.79,8.37C46.79,8.37,46.8,8.37,46.79,8.37c0.06-0.1,0.12-0.2,0.17-0.29C46.91,8.18,46.85,8.27,46.79,8.37z
			"/>
		<path class="st4" d="M61.7,1.82c-0.49-0.19-1.12-0.08-1.79,0.27C60.59,1.74,61.22,1.63,61.7,1.82c0.28,0.11,0.5,0.3,0.67,0.54
			C62.2,2.12,61.98,1.93,61.7,1.82z"/>
		<path class="st4" d="M46.4,9.2c0,0,0.14-0.33,0.39-0.81c0,0,0,0,0-0.01C46.54,8.86,46.4,9.19,46.4,9.2
			C46.4,9.19,46.4,9.19,46.4,9.2z"/>
		<path class="st4" d="M62.98,4.38c-0.01-0.07-0.01-0.14-0.02-0.21c-0.01-0.07-0.02-0.15-0.03-0.22c-0.04-0.26-0.09-0.53-0.18-0.8
			c0.08,0.27,0.14,0.55,0.18,0.8l0.05-0.01c0.02,0.29,0.03,0.59,0.04,0.9C63.01,4.69,63,4.54,62.98,4.4L62.98,4.38z"/>
		<path class="st4" d="M34,39.81c2.18-0.35,4.35-0.81,6.52-1.42c2.57-0.71,3.09-1.99,3.75-3.61c0.14-0.34,0.28-0.7,0.45-1.05
			c1.02-2.16,3.05-3.45,6.04-3.83c1.92-0.24,4.49-3.29,6.19-6.19c2.78-4.76,4.71-9.55,5.58-13.63c0,0,0,0,0,0
			c0.15-0.72,0.27-1.42,0.36-2.1c-0.09,0.67-0.21,1.37-0.36,2.1c0.08-1.22,0.12-2.67-0.01-3.54c-0.27-1.73-0.92-3.6-2.72-2.96
			c-1.79,0.64-2.89,2.38-4.71,2.25c-1.6-0.11-4.34-1.22-7.39,1.83c0.34-0.54,0.68-0.98,1.01-1.36c-0.34,0.37-0.67,0.82-1.01,1.36
			c-0.31,0.31-0.61,0.66-0.92,1.05c0.31-0.39,0.62-0.75,0.92-1.05c-0.03,0.04-0.05,0.08-0.08,0.12c-0.29,0.47-0.73,1.21-1.28,2.15
			c-1.35,2.3-3.4,5.77-5.23,8.5c-3.95,5.9-9.66,11.42-12.33,13.52c-0.19,0.15-0.38,0.29-0.57,0.44c-0.06,0.05-0.13,0.1-0.19,0.15
			c-0.13,0.1-0.25,0.19-0.38,0.29c-0.08,0.06-0.15,0.11-0.23,0.17c-0.11,0.08-0.23,0.17-0.34,0.25c-0.08,0.06-0.17,0.12-0.25,0.18
			c-0.11,0.08-0.22,0.16-0.33,0.24c-0.09,0.06-0.18,0.12-0.26,0.19c-0.11,0.08-0.21,0.15-0.32,0.23c-0.09,0.06-0.18,0.13-0.27,0.19
			c-0.11,0.07-0.21,0.15-0.32,0.22c-0.09,0.06-0.19,0.13-0.28,0.19c-0.1,0.07-0.21,0.14-0.31,0.21c-0.1,0.06-0.19,0.13-0.29,0.19
			c-0.1,0.07-0.21,0.14-0.31,0.2c-0.1,0.06-0.2,0.13-0.29,0.19c-0.1,0.07-0.21,0.13-0.31,0.2c-0.1,0.06-0.2,0.13-0.3,0.19
			c-0.1,0.06-0.2,0.13-0.31,0.19c-0.1,0.06-0.2,0.13-0.31,0.19c-0.1,0.06-0.2,0.12-0.31,0.19c-0.11,0.06-0.21,0.13-0.31,0.19
			c-0.1,0.06-0.2,0.12-0.3,0.18c-1.4,0.97-2.71,2-3.35,2.87C17.4,40.91,28.39,40.32,34,39.81z M49.16,14.26
			c0.48-0.26,1.05-0.09,1.29,0.37c0.24,0.47,0.04,1.06-0.43,1.32c-0.48,0.26-1.05,0.1-1.29-0.37
			C48.49,15.11,48.68,14.52,49.16,14.26z M47.73,16.66c0.24-0.13,0.53-0.05,0.64,0.19c0.12,0.23,0.02,0.53-0.22,0.66
			c-0.24,0.13-0.53,0.05-0.64-0.19C47.39,17.09,47.49,16.79,47.73,16.66z M59.58,14.14c-0.36,0.41-0.97,0.46-1.36,0.11
			c-0.39-0.34-0.41-0.95-0.05-1.36c0.36-0.41,0.97-0.46,1.36-0.11C59.92,13.13,59.94,13.74,59.58,14.14z M58.35,16.23
			c-0.18,0.2-0.49,0.23-0.68,0.06c-0.19-0.17-0.2-0.48-0.02-0.68c0.18-0.2,0.49-0.23,0.68-0.06C58.52,15.72,58.53,16.03,58.35,16.23
			z M52.38,26.22c0.24-0.13,0.53-0.05,0.64,0.19c0.12,0.23,0.02,0.53-0.22,0.66c-0.24,0.13-0.53,0.05-0.64-0.19
			C52.04,26.65,52.14,26.36,52.38,26.22z M53.81,23.82c0.48-0.26,1.05-0.09,1.29,0.37c0.24,0.47,0.04,1.06-0.43,1.32
			c-0.48,0.26-1.05,0.1-1.29-0.37C53.14,24.67,53.33,24.08,53.81,23.82z M36.77,37.41c-0.14,0.04-0.29,0.08-0.44,0.12
			c-0.1,0.03-0.2,0.06-0.31,0.08c-2,0.48-4.63,0.78-6.9,0.96c-2.27,0.18-4.17,0.25-4.73,0.25c-0.5,0-1.13,0.06-1.27-0.17
			c-0.18-0.29,0.41-1.04,3.03-2.97c1.72-1.26,6.82-4.96,10.08-8.29c0.05-0.05,0.1-0.1,0.15-0.16c0.18-0.18,0.36-0.37,0.53-0.55
			c0.09-0.1,0.18-0.2,0.28-0.3c0.13-0.14,0.26-0.28,0.39-0.42c0.09-0.1,0.19-0.21,0.28-0.31c0.12-0.14,0.24-0.27,0.36-0.41
			c0.09-0.1,0.17-0.2,0.26-0.3c0.13-0.15,0.26-0.3,0.38-0.45c0.07-0.08,0.14-0.17,0.21-0.25c0.19-0.23,0.37-0.45,0.55-0.68
			c0.06-0.08,0.12-0.15,0.18-0.23c0.12-0.16,0.25-0.32,0.37-0.48c0.08-0.1,0.15-0.2,0.22-0.3c1.9-2.55,3.54-5.34,5.62-9.22
			c2.03-3.79,3.14-5.41,4.79-5.77c1.92-0.42,3.2,1.13,3.07,2.73c-0.13,1.6-1.69,2.96-3,2.7c0,0,1.77-1.7,0.37-2.87
			c-0.8-0.67-2.14-0.42-3.19,1.63c-0.6,1.18-2.74,6.68-4.9,9.98c-2.16,3.3-5.48,7.32-8.81,10.12c3.5-1.76,9.33-5.83,12.31-8.69
			c3.52-3.37,5.08-5.42,7.91-11.17c1.69-3.42,2.62-4.89,4.07-5.26c1.69-0.43,2.88,0.9,2.82,2.32c-0.07,1.42-1.4,2.68-2.58,2.49
			c0,0,1.52-1.57,0.24-2.55c-0.73-0.56-1.92-0.3-2.78,1.55c-0.5,1.06-2.13,5.58-4.46,9.07c-1.94,2.91-8.24,10.35-18.4,14.32
			c3.29-0.52,5.35-1.12,8.53-3.12c3.75-2.36,5.53-3.9,9.13-8.53c2.15-2.76,2.98-3.88,4.34-3.93c1.58-0.06,2.4,1.22,2.07,2.49
			c-0.33,1.27-1.52,2.27-2.52,1.87c0,0,1.64-1.12,0.7-2.26c-0.54-0.65-1.63-0.64-2.76,0.86c-0.64,0.86-2.95,4.62-5.68,7.31
			c-2.27,2.25-9.04,7.81-17.82,8.3c0,0,6.03,0.35,12.85-2.75c0,0-2.03,2.15-5.57,3.21c0,0,0,0,0.01,0
			C36.78,37.41,36.77,37.41,36.77,37.41z"/>
		<path class="st4" d="M41.09,17.68c-3.95,5.9-9.66,11.42-12.33,13.52c-3.84,3.01-8.01,5.56-12.6,7.72c0,0-0.01,0-0.01,0.01
			c4.59-2.16,8.77-4.72,12.61-7.73C31.44,29.1,37.15,23.57,41.09,17.68c1.83-2.73,3.87-6.21,5.23-8.5c0.03-0.06,0.06-0.11,0.09-0.16
			c-0.03,0.05-0.06,0.11-0.09,0.16C44.97,11.47,42.92,14.94,41.09,17.68z"/>
		<path class="st4" d="M59.82,1.38c0.7-0.38,1.36-0.49,1.86-0.3c0.01,0,0.02,0.01,0.03,0.02c-0.01,0-0.02-0.01-0.03-0.02
			C61.18,0.88,60.52,0.99,59.82,1.38z"/>
		<path class="st4" d="M62.82,1.92c-0.13-0.24-0.28-0.42-0.46-0.54C62.54,1.5,62.69,1.67,62.82,1.92c0.26,0.51,0.45,1.17,0.55,1.96
			c0.03,0.26,0.06,0.54,0.07,0.83c-0.02-0.29-0.04-0.56-0.07-0.83C63.26,3.09,63.08,2.43,62.82,1.92z"/>
		<path class="st4" d="M64.74,4.71C64.74,4.71,64.74,4.71,64.74,4.71c0,0.08,0.01,0.16,0.01,0.24C64.74,4.87,64.74,4.78,64.74,4.71z
			"/>
		<path class="st10" d="M25.59,40.54c-4.53,0.07-5.51,0.92-6.31,2.04c-0.32,0.44-0.53,0.73-1.84,0.88
			c-3.69,0.43-7.54,0.11-10.22-0.25c0,0,0,0,0,0l1.62-0.55c0.91-0.32,1.8-0.65,2.69-0.99c0.04-0.02,0.09-0.03,0.13-0.05
			c0.17-0.07,0.34-0.13,0.51-0.2c0.07-0.03,0.13-0.05,0.2-0.08c0.16-0.06,0.32-0.13,0.47-0.19c0.08-0.03,0.15-0.06,0.23-0.09
			c0.15-0.06,0.3-0.13,0.45-0.19c0.08-0.03,0.16-0.07,0.24-0.1c0.15-0.06,0.29-0.13,0.43-0.19c0.09-0.04,0.17-0.07,0.25-0.11
			c0.14-0.06,0.28-0.13,0.42-0.19c0.09-0.04,0.17-0.08,0.26-0.12c0.14-0.06,0.28-0.13,0.41-0.19c0.09-0.04,0.17-0.08,0.26-0.12
			c0.14-0.06,0.27-0.13,0.41-0.19c0.09-0.04,0.18-0.08,0.26-0.13c0.13-0.06,0.27-0.13,0.4-0.19c0.09-0.04,0.18-0.09,0.26-0.13
			c0.13-0.06,0.26-0.13,0.4-0.19c0.09-0.04,0.17-0.09,0.26-0.13c0.13-0.07,0.26-0.13,0.39-0.2c0.08-0.04,0.17-0.09,0.25-0.13
			c0.13-0.07,0.27-0.14,0.4-0.21c0.08-0.04,0.15-0.08,0.23-0.12c0.14-0.07,0.28-0.15,0.41-0.22c0.02-0.01,0.04-0.02,0.06-0.03
			c0.32-0.17,0.64-0.35,0.96-0.53c0.08-0.04,0.15-0.09,0.23-0.13c0.12-0.07,0.23-0.13,0.34-0.2c0.1-0.05,0.19-0.11,0.29-0.16
			c0.11-0.06,0.22-0.13,0.33-0.19c0,0,0,0,0,0c-1.4,0.97-2.71,2-3.35,2.87C17.4,40.91,28.39,40.32,34,39.81
			C31.24,40.25,28.46,40.5,25.59,40.54z"/>
		<path class="st10" d="M12.5,40.53c-0.66,0.27-1.59,0.72-2.48,1.18C10.91,41.25,11.84,40.79,12.5,40.53
			c1.25-0.51,2.46-1.05,3.65-1.61c0,0,0.01,0,0.01-0.01C14.97,39.48,13.75,40.02,12.5,40.53z"/>
		<path class="st12" d="M53.02,26.41c0.12,0.23,0.02,0.53-0.22,0.66c-0.24,0.13-0.53,0.05-0.64-0.19c-0.12-0.23-0.02-0.53,0.22-0.66
			C52.62,26.09,52.9,26.18,53.02,26.41z"/>
		<path class="st12" d="M36.78,37.41c3.54-1.06,5.57-3.21,5.57-3.21c-6.82,3.1-12.85,2.75-12.85,2.75c8.78-0.5,15.54-6.06,17.82-8.3
			c2.72-2.69,5.03-6.45,5.68-7.31c1.12-1.5,2.22-1.51,2.76-0.86c0.94,1.14-0.7,2.26-0.7,2.26c1,0.4,2.19-0.6,2.52-1.87
			c0.33-1.27-0.5-2.55-2.07-2.49c-1.36,0.05-2.2,1.17-4.34,3.93c-3.6,4.63-5.38,6.17-9.13,8.53c-3.18,2-5.24,2.59-8.53,3.12
			c10.17-3.96,16.46-11.41,18.4-14.32c2.33-3.49,3.96-8.01,4.46-9.07c0.87-1.85,2.05-2.11,2.78-1.55c1.28,0.99-0.24,2.55-0.24,2.55
			c1.18,0.19,2.51-1.07,2.58-2.49c0.07-1.42-1.12-2.75-2.82-2.32c-1.46,0.37-2.39,1.84-4.07,5.26c-2.83,5.74-4.4,7.79-7.91,11.17
			c-2.98,2.86-8.81,6.93-12.31,8.69c3.33-2.8,6.65-6.82,8.81-10.12c2.16-3.3,4.3-8.8,4.9-9.98c1.05-2.05,2.39-2.3,3.19-1.63
			c1.4,1.17-0.37,2.87-0.37,2.87c1.31,0.26,2.87-1.1,3-2.7c0.13-1.6-1.15-3.15-3.07-2.73c-1.65,0.36-2.76,1.98-4.79,5.77
			c-2.08,3.88-3.72,6.67-5.62,9.22c0.06-0.08,0.12-0.16,0.18-0.25c-0.02,0.04-2.83,4.38-6.11,7.59c-1.9,1.86-3.83,3.61-5.12,4.75
			c-0.94,0.83-0.87,1.27,0.13,1.13c2-0.27,5.33-0.81,7.28-1.58c-0.97,0.39-5.17,2.02-9.23,2.88C23.62,37.91,30.95,38.18,36.78,37.41
			z M38.55,32.94c0.02-0.01,0.03-0.01,0.04-0.02C38.58,32.92,38.57,32.93,38.55,32.94z M38.36,33.02c0.07-0.03,0.13-0.05,0.19-0.08
			C38.52,32.95,38.45,32.98,38.36,33.02z"/>
		<path class="st12" d="M38.86,24.51c-0.13,0.15-0.25,0.3-0.38,0.45C38.6,24.81,38.73,24.66,38.86,24.51z"/>
		<path class="st12" d="M39.62,23.58c-0.18,0.23-0.36,0.45-0.55,0.68C39.26,24.03,39.44,23.81,39.62,23.58z"/>
		<path class="st12" d="M37.57,25.98c-0.13,0.14-0.26,0.28-0.39,0.42C37.31,26.26,37.44,26.12,37.57,25.98z"/>
		<path class="st12" d="M36.77,37.41c-0.14,0.04-0.29,0.08-0.44,0.12C36.48,37.49,36.63,37.46,36.77,37.41z"/>
		<path class="st12" d="M40.17,22.87c-0.12,0.16-0.25,0.32-0.37,0.48C39.93,23.19,40.05,23.03,40.17,22.87z"/>
		<path class="st12" d="M37.85,25.67c0.12-0.14,0.24-0.27,0.36-0.41C38.09,25.4,37.97,25.53,37.85,25.67z"/>
		<path class="st12" d="M36.9,26.7c-0.17,0.18-0.35,0.37-0.53,0.55C36.56,27.06,36.73,26.88,36.9,26.7z"/>
		<path class="st12" d="M24.39,38.83c0.56,0,2.47-0.07,4.73-0.25C26.86,38.76,24.95,38.83,24.39,38.83c-0.5,0-1.13,0.06-1.27-0.17
			C23.26,38.89,23.89,38.83,24.39,38.83z"/>
		<path class="st12" d="M58.22,14.26c-0.39-0.34-0.41-0.95-0.05-1.36c0.36-0.41,0.97-0.46,1.36-0.11c0.39,0.35,0.41,0.96,0.05,1.36
			C59.22,14.55,58.61,14.6,58.22,14.26z"/>
		<path class="st12" d="M57.67,16.29c-0.19-0.17-0.2-0.48-0.02-0.68c0.18-0.2,0.49-0.23,0.68-0.06c0.19,0.17,0.2,0.48,0.02,0.68
			C58.17,16.43,57.87,16.46,57.67,16.29z"/>
		<path class="st12" d="M55.1,24.19c0.24,0.47,0.04,1.06-0.43,1.32c-0.48,0.26-1.05,0.1-1.29-0.37c-0.24-0.47-0.04-1.06,0.43-1.32
			C54.28,23.56,54.86,23.73,55.1,24.19z"/>
		<path class="st12" d="M49.16,14.26c0.48-0.26,1.05-0.09,1.29,0.37c0.24,0.47,0.04,1.06-0.43,1.32c-0.48,0.26-1.05,0.1-1.29-0.37
			C48.49,15.11,48.68,14.52,49.16,14.26z"/>
		<path class="st12" d="M48.37,16.85c0.12,0.23,0.02,0.53-0.22,0.66c-0.24,0.13-0.53,0.05-0.64-0.19c-0.12-0.23-0.02-0.53,0.22-0.66
			C47.97,16.53,48.25,16.62,48.37,16.85z"/>
		<path class="st10" d="M38.47,24.96c-0.09,0.1-0.17,0.2-0.26,0.3C38.3,25.16,38.39,25.06,38.47,24.96z"/>
		<path class="st10" d="M37.18,26.4c-0.09,0.1-0.18,0.2-0.28,0.3C37,26.6,37.09,26.5,37.18,26.4z"/>
		<path class="st10" d="M39.07,24.26c-0.07,0.08-0.14,0.17-0.21,0.25C38.93,24.43,39,24.34,39.07,24.26z"/>
		<path class="st10" d="M37.57,25.98c0.09-0.1,0.19-0.21,0.28-0.31C37.76,25.77,37.66,25.88,37.57,25.98z"/>
		<path class="st10" d="M26.15,35.69c-2.61,1.92-3.21,2.68-3.03,2.97C22.94,38.37,23.53,37.62,26.15,35.69
			c1.71-1.26,6.82-4.96,10.08-8.29c0.05-0.05,0.1-0.1,0.15-0.16c-0.05,0.05-0.1,0.1-0.15,0.16C32.97,30.73,27.86,34.43,26.15,35.69z
			"/>
		<path class="st10" d="M36.78,37.41c-0.01,0-0.01,0-0.02,0C36.77,37.41,36.78,37.41,36.78,37.41
			C36.78,37.41,36.78,37.41,36.78,37.41z"/>
		<path class="st10" d="M39.8,23.35c-0.06,0.08-0.12,0.15-0.18,0.23C39.68,23.5,39.74,23.42,39.8,23.35z"/>
		<path class="st10" d="M40.4,22.57c-0.07,0.1-0.15,0.2-0.22,0.3C40.25,22.77,40.32,22.67,40.4,22.57z"/>
		<path class="st10" d="M36.33,37.53c-0.1,0.03-0.2,0.06-0.31,0.08c-2,0.48-4.63,0.78-6.9,0.96c2.27-0.18,4.9-0.49,6.9-0.96
			C36.13,37.59,36.23,37.56,36.33,37.53z"/>
		<path class="st10" d="M36.02,37.61c-2,0.48-4.63,0.78-6.9,0.96c-2.27,0.18-4.18,0.25-4.73,0.25c-0.5,0-1.13,0.06-1.27-0.17
			c-0.18-0.29,0.41-1.04,3.03-2.97c1.71-1.26,6.82-4.96,10.08-8.29c0.05-0.05,0.1-0.1,0.15-0.16c0.18-0.18,0.36-0.37,0.53-0.55
			c0.09-0.1,0.19-0.2,0.28-0.3c0.13-0.14,0.26-0.28,0.39-0.42c0.09-0.1,0.19-0.21,0.28-0.31c0.12-0.14,0.24-0.27,0.36-0.41
			c0.09-0.1,0.17-0.2,0.26-0.3c0.13-0.15,0.26-0.3,0.38-0.45c0.07-0.08,0.14-0.17,0.21-0.25c0.19-0.23,0.37-0.45,0.55-0.68
			c0.06-0.08,0.12-0.15,0.18-0.23c0.12-0.16,0.25-0.32,0.37-0.48c0.08-0.1,0.15-0.2,0.22-0.3c0.06-0.08,0.12-0.16,0.18-0.25
			c-0.02,0.04-2.83,4.38-6.11,7.59c-1.9,1.86-3.83,3.61-5.12,4.75c-0.94,0.83-0.87,1.27,0.13,1.13c2-0.27,5.33-0.81,7.28-1.58
			c-0.97,0.39-5.17,2.02-9.23,2.88c-3.92,0.83,3.41,1.1,9.24,0.33c0,0-0.01,0-0.01,0c-0.14,0.04-0.29,0.08-0.44,0.12
			C36.23,37.56,36.13,37.59,36.02,37.61z"/>
		<path class="st12" d="M62.52,6.53c-0.27-1.73-0.92-3.6-2.72-2.96c-1.79,0.64-2.89,2.38-4.71,2.25c-1.6-0.11-4.34-1.22-7.39,1.83
			c0.34-0.54,0.68-0.98,1.01-1.36c1.35-1.5,2.7-1.74,4.41-1.59c2.93,0.26,5.16-1.46,6-2.1c0.27-0.2,0.53-0.37,0.78-0.5
			c0.68-0.35,1.31-0.46,1.79-0.27c0.28,0.11,0.5,0.3,0.67,0.54c0.17,0.23,0.29,0.51,0.38,0.79c0.08,0.27,0.14,0.55,0.18,0.8
			c0.01,0.07,0.02,0.15,0.03,0.22c0.01,0.07,0.02,0.14,0.02,0.21l0,0.01c0.02,0.15,0.03,0.3,0.04,0.45c0,0,0,0,0,0l0,0
			c0.02,0.32,0.03,0.65,0.02,0.99c-0.01,0.67-0.06,1.39-0.15,2.13c-0.09,0.67-0.21,1.37-0.36,2.1C62.61,8.85,62.65,7.4,62.52,6.53z"
			/>
		<path class="st11" d="M64.48,7.97c0.18-1.17,0.26-2.27,0.26-3.29c-0.02-0.36-0.05-0.72-0.1-1.06c-0.32-2.25-1.4-3.11-2.25-3.43
			c-1.23-0.47-2.78-0.09-4.25,1.04c-1.17,0.9-2.77,1.91-4.77,1.73c-2.34-0.21-4.83,0.13-7.18,3.94c-0.3,0.48-0.74,1.23-1.3,2.18
			c-1.34,2.28-3.37,5.73-5.17,8.41c-3.83,5.72-9.35,11.06-11.94,13.09c-6.88,5.39-14.88,9.32-24.48,12.02l-1.85,0.52l1.79,0.41
			c0.3,0.07,7.43,1.68,14.29,0.88c0.22-0.03,0.42-0.06,0.6-0.09c0.79-0.15,1.31-0.39,1.7-0.69c0.33-0.25,0.57-0.54,0.79-0.85
			c0.25-0.34,0.52-0.71,1.56-0.97c0.69-0.17,1.72-0.29,3.32-0.31c5.28-0.08,10.31-0.8,15.37-2.2c2.93-0.81,3.95-2.39,4.63-3.92
			c0.11-0.26,0.22-0.52,0.32-0.77c0.14-0.34,0.27-0.65,0.41-0.96c0.12-0.26,0.27-0.49,0.43-0.71c0.45-0.62,1.06-1.11,1.85-1.46
			c0.01-0.01,0.03-0.02,0.04-0.02c0,0,0.01,0,0.01,0c0.65-0.29,1.41-0.48,2.3-0.6c0.31-0.04,0.63-0.13,0.94-0.25
			c3.03-1.11,5.76-5.43,6.59-6.84c1.9-3.25,3.44-6.57,4.52-9.71c0.23-0.67,0.45-1.34,0.64-2c0.16-0.57,0.31-1.12,0.44-1.67
			C64.2,9.56,64.36,8.75,64.48,7.97z M63.44,4.7c0.07,1.24-0.04,2.72-0.33,4.34c-0.18,1.03-0.43,2.11-0.76,3.23l0,0c0,0,0,0,0,0
			c0,0,0.11-0.99,0.18-2.2c-0.87,4.08-2.8,8.87-5.58,13.63c-1.7,2.91-4.27,5.95-6.19,6.19c-2.99,0.38-5.02,1.67-6.04,3.83
			c-0.17,0.36-0.31,0.71-0.45,1.05c-0.66,1.62-1.18,2.9-3.75,3.61c-2.17,0.6-4.33,1.07-6.52,1.42c0.37-0.03,0.72-0.07,1.03-0.1
			c0,0-4.05,0.96-6.39,1.11c-2.33,0.16-4.6,0.31-5.5,0.39c-0.91,0.08-2.4,0.31-3.14,1.21c-0.74,0.9-1.19,1.8-2.87,1.93
			c-1.68,0.13-8.57-0.31-11.46-1.12c0,0,5.87-2.33,10.47-4.31c4.59-2.16,8.77-4.72,12.61-7.73c2.67-2.1,8.39-7.62,12.33-13.52
			c1.83-2.73,3.87-6.21,5.23-8.5c0.03-0.06,0.06-0.11,0.09-0.16c0.13-0.22,0.26-0.44,0.38-0.64c0,0,0,0.01,0,0.01c0,0,0,0,0-0.01
			c0,0,0,0,0,0c0,0,0,0,0,0c0,0,0,0,0-0.01c0,0,0,0.01,0,0.01c0.28-0.54,0.69-1.27,1.21-1.96c0,0,0,0.01-0.01,0.01c0,0,0,0,0-0.01
			c0,0,0,0,0,0c0.08-0.11,0.16-0.22,0.24-0.32c1.51-1.99,2.97-2.31,4.87-2.15c0.64,0.06,1.23,0.02,1.8-0.08
			c2.03-0.36,3.55-1.51,4.2-2.02c0.24-0.19,0.48-0.34,0.72-0.47c0.7-0.38,1.36-0.49,1.86-0.3c0.01,0,0.02,0.01,0.03,0.02
			c0.07,0.03,0.13,0.06,0.19,0.09c0.17,0.03,0.32,0.1,0.46,0.2c0.18,0.12,0.33,0.29,0.46,0.54c0.26,0.51,0.45,1.17,0.55,1.96
			l0.42-0.08l-0.42,0.08C63.4,4.13,63.42,4.41,63.44,4.7z"/>
		<path class="st11" d="M64.73,4.67C64.73,4.67,64.73,4.67,64.73,4.67c0,0.01,0,0.02,0,0.04c0,0,0,0,0,0
			C64.73,4.7,64.73,4.68,64.73,4.67z"/>
		<path class="st11" d="M64.74,4.71c0.01,0.14,0.01,0.27,0.02,0.41c0-0.06,0-0.12-0.01-0.18C64.74,4.87,64.74,4.79,64.74,4.71z"/>
		<path class="st11" d="M64.76,5.78c0-0.14,0-0.29,0-0.43C64.76,5.49,64.76,5.63,64.76,5.78z"/>
		<path class="st11" d="M10.02,41.71c-1.44,0.74-2.8,1.5-2.8,1.5l0,0c0,0,0,0,0,0c2.68,0.36,6.53,0.68,10.22,0.25
			c1.31-0.15,1.52-0.44,1.84-0.88c0.81-1.11,1.78-1.97,6.31-2.04c2.87-0.04,5.65-0.29,8.41-0.72c0.37-0.03,0.72-0.07,1.03-0.1
			c0,0-4.05,0.96-6.39,1.11c-2.33,0.16-4.6,0.31-5.5,0.39c-0.91,0.08-2.4,0.31-3.14,1.21c-0.74,0.9-1.19,1.8-2.87,1.93
			c-1.68,0.13-8.57-0.31-11.46-1.12c0,0,5.87-2.33,10.47-4.31c-1.19,0.56-2.4,1.1-3.65,1.61C11.84,40.79,10.91,41.25,10.02,41.71z"
			/>
		<path class="st13" d="M47.6,7.02c-0.16,0.27-0.38,0.63-0.64,1.06c-0.05,0.09-0.11,0.18-0.17,0.28c0.28-0.53,0.68-1.25,1.2-1.94
			c-0.05,0.07-0.09,0.14-0.14,0.21C47.77,6.76,47.68,6.88,47.6,7.02z"/>
		<path class="st13" d="M46.79,8.37c0.28-0.54,0.69-1.27,1.21-1.96c0,0,0,0.01-0.01,0.01C47.48,7.11,47.07,7.83,46.79,8.37
			C46.79,8.37,46.79,8.37,46.79,8.37z"/>
		<path class="st14" d="M46.4,9.19C46.4,9.19,46.4,9.2,46.4,9.19c0.13-0.17,0.25-0.34,0.38-0.5c0.31-0.39,0.62-0.75,0.92-1.05
			c-0.03,0.04-0.05,0.08-0.08,0.12c-0.29,0.47-0.73,1.21-1.28,2.15c-1.35,2.3-3.4,5.77-5.23,8.5c-3.95,5.9-9.66,11.42-12.33,13.52
			c-0.19,0.15-0.38,0.29-0.57,0.44c-0.06,0.05-0.13,0.1-0.19,0.15c-0.13,0.1-0.25,0.19-0.38,0.29c-0.08,0.06-0.15,0.11-0.23,0.17
			c-0.11,0.08-0.23,0.17-0.34,0.25c-0.08,0.06-0.17,0.12-0.25,0.18c-0.11,0.08-0.22,0.16-0.33,0.24c-0.09,0.06-0.18,0.12-0.26,0.19
			c-0.11,0.08-0.21,0.15-0.32,0.23c-0.09,0.06-0.18,0.13-0.27,0.19c-0.11,0.07-0.21,0.15-0.32,0.22c-0.09,0.06-0.19,0.13-0.28,0.19
			c-0.1,0.07-0.21,0.14-0.31,0.21c-0.1,0.06-0.19,0.13-0.29,0.19c-0.1,0.07-0.21,0.14-0.31,0.2c-0.1,0.06-0.2,0.13-0.29,0.19
			c-0.1,0.07-0.21,0.13-0.31,0.2c-0.1,0.06-0.2,0.13-0.3,0.19c-0.1,0.06-0.2,0.13-0.31,0.19c-0.1,0.06-0.2,0.13-0.31,0.19
			c-0.1,0.06-0.2,0.12-0.31,0.19c-0.11,0.06-0.21,0.13-0.31,0.19c-0.1,0.06-0.2,0.12-0.3,0.18c0.85-0.59,1.74-1.17,2.53-1.68
			c0,0-0.25,0.16-4.28,2.12c-0.97,0.47-2.31,1.07-3.77,1.7c4.58-2.16,8.76-4.72,12.6-7.72c2.67-2.1,8.39-7.62,12.33-13.52
			c1.83-2.73,3.87-6.21,5.23-8.5c0.03-0.06,0.06-0.11,0.09-0.16c0.13-0.22,0.26-0.43,0.37-0.63C46.54,8.87,46.4,9.2,46.4,9.19
			C46.4,9.19,46.4,9.19,46.4,9.19z"/>
		<path class="st14" d="M21.36,36.96c-0.09,0.06-0.19,0.11-0.29,0.16c-0.11,0.07-0.23,0.13-0.34,0.2c-0.08,0.04-0.15,0.09-0.23,0.13
			c-0.32,0.18-0.64,0.35-0.96,0.53c-0.02,0.01-0.04,0.02-0.06,0.03c-0.14,0.07-0.28,0.15-0.41,0.22c-0.08,0.04-0.15,0.08-0.23,0.12
			c-0.13,0.07-0.26,0.14-0.4,0.21c-0.08,0.04-0.17,0.09-0.25,0.13c-0.13,0.07-0.26,0.13-0.39,0.2c-0.09,0.04-0.17,0.09-0.26,0.13
			c-0.13,0.06-0.26,0.13-0.4,0.19c-0.09,0.04-0.17,0.09-0.26,0.13c-0.13,0.06-0.27,0.13-0.4,0.19c-0.09,0.04-0.17,0.08-0.26,0.13
			c-0.14,0.06-0.27,0.13-0.41,0.19c-0.09,0.04-0.17,0.08-0.26,0.12c-0.14,0.06-0.28,0.13-0.41,0.19c-0.09,0.04-0.17,0.08-0.26,0.12
			c-0.14,0.06-0.28,0.13-0.42,0.19c-0.08,0.04-0.17,0.07-0.25,0.11c-0.14,0.06-0.29,0.13-0.43,0.19c-0.08,0.03-0.16,0.07-0.24,0.1
			c-0.15,0.06-0.3,0.13-0.45,0.19c-0.07,0.03-0.15,0.06-0.23,0.09c-0.16,0.07-0.32,0.13-0.47,0.19c-0.07,0.03-0.13,0.05-0.2,0.08
			c-0.17,0.07-0.34,0.14-0.51,0.2c-0.04,0.02-0.09,0.03-0.13,0.05c-0.88,0.34-1.78,0.67-2.69,0.99L7.22,43.2
			c0.02-0.01,1.36-0.76,2.79-1.49c0.9-0.46,1.83-0.92,2.48-1.18c1.25-0.51,2.47-1.05,3.66-1.61c1.46-0.63,2.8-1.23,3.77-1.7
			c4.04-1.96,4.28-2.12,4.28-2.12c-0.79,0.51-1.67,1.08-2.53,1.68c0,0,0,0,0,0C21.58,36.83,21.47,36.9,21.36,36.96z"/>
		<path class="st14" d="M46.79,8.37C46.79,8.38,46.79,8.38,46.79,8.37c-0.12,0.21-0.25,0.42-0.38,0.64
			C46.55,8.79,46.67,8.57,46.79,8.37z"/>
		<path class="st14" d="M7.22,43.21c0,0,1.36-0.75,2.8-1.5C8.58,42.45,7.24,43.2,7.22,43.21L7.22,43.21z"/>
		<path class="st14" d="M62.35,12.27c0,0,0.11-0.99,0.18-2.2c0,0,0,0,0,0c0,0,0,0,0,0c0.15-0.72,0.27-1.42,0.36-2.1
			c0.09-0.75,0.14-1.46,0.15-2.13c0-0.34,0-0.67-0.02-0.99l0,0c0,0,0,0,0,0c0,0,0,0,0,0c0-0.31-0.01-0.61-0.04-0.9l-0.05,0.01
			c-0.04-0.26-0.1-0.53-0.18-0.8c-0.09-0.29-0.21-0.56-0.38-0.79c-0.17-0.24-0.39-0.44-0.67-0.55c-0.49-0.18-1.12-0.08-1.79,0.27
			c-0.26,0.13-0.52,0.3-0.78,0.5c-0.84,0.65-3.07,2.36-6,2.1c-1.71-0.15-3.06,0.1-4.41,1.59c-0.34,0.37-0.67,0.82-1.01,1.36
			c-0.31,0.31-0.61,0.66-0.92,1.05c-0.13,0.16-0.25,0.32-0.38,0.5c0-0.01,0.14-0.34,0.39-0.82c0,0,0,0,0,0c0,0,0,0,0,0
			c0.06-0.1,0.11-0.19,0.17-0.29c0.26-0.43,0.47-0.79,0.64-1.06c0.08-0.14,0.17-0.26,0.25-0.39c0.05-0.07,0.1-0.15,0.14-0.22
			c0,0,0,0,0,0c0.08-0.11,0.16-0.22,0.24-0.32c1.51-1.99,2.97-2.31,4.87-2.15c0.64,0.06,1.23,0.02,1.8-0.08
			c2.03-0.36,3.55-1.51,4.2-2.02c0.24-0.19,0.48-0.34,0.72-0.47c0.7-0.38,1.36-0.49,1.86-0.3c0.01,0,0.02,0.01,0.03,0.02
			c0.07,0.03,0.13,0.06,0.19,0.09c0.17,0.03,0.32,0.1,0.46,0.2c0.18,0.12,0.33,0.29,0.46,0.54c0.26,0.51,0.45,1.17,0.55,1.96
			c0.03,0.26,0.06,0.54,0.07,0.83c0.07,1.24-0.04,2.72-0.33,4.34C62.93,10.07,62.68,11.15,62.35,12.27z"/>
		<polygon class="st14" points="63.02,4.85 63.02,4.85 63.02,4.85 63.02,4.85 		"/>
		<path class="st14" d="M53.13,4.69c-1.71-0.15-3.06,0.1-4.41,1.59C50.07,4.79,51.42,4.54,53.13,4.69c2.93,0.26,5.16-1.46,6-2.1
			c0.26-0.2,0.53-0.37,0.78-0.5c-0.26,0.13-0.52,0.3-0.78,0.5C58.29,3.24,56.06,4.95,53.13,4.69z"/>
		<path class="st14" d="M62.75,3.15c-0.09-0.28-0.21-0.56-0.38-0.79C62.54,2.6,62.66,2.87,62.75,3.15z"/>
		<path class="st14" d="M62.89,7.97c0.09-0.75,0.14-1.46,0.15-2.13C63.03,6.52,62.99,7.23,62.89,7.97z"/>
		<path class="st14" d="M62.35,12.27C62.35,12.27,62.35,12.27,62.35,12.27c0,0,0.11-0.99,0.18-2.2c0,0,0,0,0,0
			C62.46,11.28,62.35,12.27,62.35,12.27z"/>
		<path class="st14" d="M61.71,1.09c0.07,0.03,0.13,0.06,0.19,0.09c0.17,0.03,0.32,0.1,0.46,0.2c-0.14-0.1-0.29-0.16-0.46-0.2
			C61.84,1.15,61.78,1.12,61.71,1.09z"/>
		<polygon class="st14" points="46.79,8.37 46.79,8.37 46.79,8.37 46.79,8.37 		"/>
		<path class="st14" d="M48,6.42C48,6.42,48,6.42,48,6.42c0.08-0.12,0.16-0.22,0.24-0.32C48.16,6.2,48.08,6.3,48,6.42
			C48,6.42,48,6.42,48,6.42z"/>
		<path class="st14" d="M63.11,9.04c0.29-1.63,0.4-3.1,0.33-4.34C63.5,5.94,63.39,7.42,63.11,9.04z"/>
		<path class="st14" d="M54.9,3.87c2.03-0.36,3.55-1.51,4.2-2.02c0.24-0.19,0.48-0.34,0.72-0.47c-0.23,0.13-0.48,0.28-0.72,0.47
			C58.44,2.35,56.93,3.51,54.9,3.87z"/>
		<path class="st14" d="M47.85,6.64c-0.08,0.13-0.17,0.25-0.25,0.39c-0.16,0.27-0.38,0.63-0.64,1.06c0.26-0.43,0.47-0.79,0.64-1.06
			C47.68,6.88,47.77,6.76,47.85,6.64z"/>
		<path class="st14" d="M46.4,9.19c0.13-0.18,0.25-0.34,0.38-0.5C46.65,8.85,46.53,9.02,46.4,9.19C46.4,9.2,46.4,9.19,46.4,9.19z"/>
		<path class="st14" d="M64.75,5.15c0-0.01,0-0.02,0-0.02c0,0.08,0.01,0.15,0.01,0.23c0,0,0-0.01,0-0.01
			C64.76,5.28,64.75,5.21,64.75,5.15z"/>
		<path class="st14" d="M64.73,4.68c0,0,0-0.01,0-0.01c0,0,0,0,0,0C64.73,4.68,64.73,4.68,64.73,4.68
			C64.73,4.69,64.73,4.68,64.73,4.68z"/>
		<path class="st14" d="M1.45,43.14L1.45,43.14l1.79,0.41c0.3,0.07,7.43,1.68,14.29,0.88c0.22-0.03,0.42-0.06,0.6-0.09
			c0.79-0.15,1.31-0.39,1.7-0.69c0.33-0.25,0.57-0.54,0.79-0.85c0.25-0.34,0.52-0.71,1.56-0.97c0.69-0.17,1.72-0.29,3.32-0.31
			c5.28-0.08,10.31-0.8,15.37-2.2c2.93-0.82,3.95-2.39,4.63-3.92c0.12-0.26,0.22-0.52,0.33-0.77c0.14-0.34,0.27-0.65,0.41-0.96
			c0.12-0.26,0.27-0.49,0.43-0.71c0.45-0.62,1.06-1.11,1.85-1.46c0.01-0.01,0.03-0.02,0.04-0.02c0,0,0.01,0,0.01,0
			c0.65-0.29,1.41-0.48,2.3-0.6c0.31-0.04,0.63-0.13,0.94-0.25c3.03-1.11,5.76-5.43,6.59-6.84c1.9-3.25,3.44-6.57,4.52-9.71
			c0.23-0.67,0.45-1.34,0.64-2c0.16-0.57,0.31-1.12,0.44-1.67c0.2-0.84,0.36-1.65,0.48-2.43c0.18-1.17,0.26-2.27,0.26-3.28
			c0,0.01,0,0.01,0,0.02c0,0.08,0.01,0.16,0.01,0.24c0,0.07,0.01,0.14,0.01,0.2c0,0.06,0.01,0.13,0.01,0.19c0,0.21,0,0.43,0,0.65
			c0-0.07,0-0.14,0-0.21c0,0.07,0,0.14,0,0.21l0,0.02c0,0.07,0,0.14-0.01,0.21l0,0.02c-0.01,0.38-0.04,0.76-0.08,1.16
			c0,0.01,0,0.02,0,0.03c-0.01,0.07-0.01,0.13-0.02,0.2c0,0.02,0,0.04-0.01,0.06c-0.01,0.06-0.01,0.13-0.02,0.19
			c0,0.02-0.01,0.05-0.01,0.07c-0.01,0.06-0.02,0.13-0.02,0.19c0,0.03-0.01,0.05-0.01,0.08c-0.01,0.06-0.02,0.13-0.03,0.19
			c0,0.02,0,0.04-0.01,0.05c-0.03,0.21-0.06,0.43-0.1,0.65c-0.01,0.04-0.01,0.07-0.02,0.11C64.41,9.3,64.4,9.35,64.39,9.4
			c-0.01,0.04-0.02,0.08-0.02,0.12c-0.01,0.05-0.02,0.1-0.03,0.16c-0.01,0.05-0.02,0.09-0.03,0.13c-0.01,0.05-0.02,0.1-0.03,0.15
			c-0.01,0.05-0.02,0.1-0.03,0.14c-0.01,0.05-0.02,0.1-0.03,0.15c-0.01,0.05-0.02,0.11-0.04,0.16c-0.01,0.04-0.02,0.09-0.03,0.13
			c-0.02,0.09-0.04,0.19-0.06,0.29c-0.01,0.03-0.01,0.07-0.02,0.1c-0.02,0.07-0.03,0.14-0.05,0.2c-0.01,0.04-0.02,0.08-0.03,0.12
			c-0.01,0.06-0.03,0.12-0.04,0.18c-0.01,0.04-0.02,0.08-0.03,0.13c-0.01,0.06-0.03,0.12-0.05,0.18c-0.01,0.04-0.02,0.08-0.03,0.13
			c-0.02,0.06-0.03,0.13-0.05,0.19c-0.01,0.04-0.02,0.08-0.03,0.12c-0.02,0.07-0.04,0.14-0.06,0.21c-0.01,0.03-0.02,0.07-0.03,0.1
			c-0.03,0.1-0.06,0.21-0.09,0.31c-1.07,3.71-2.86,7.76-5.17,11.71c-0.91,1.55-4.13,6.65-7.52,7.09c-2.37,0.3-3.88,1.22-4.63,2.8
			c-0.15,0.31-0.28,0.63-0.41,0.96c-0.71,1.75-1.52,3.74-4.95,4.69c-5.06,1.41-10.09,2.13-15.37,2.2c-4,0.06-4.47,0.71-4.88,1.28
			c-0.55,0.76-1.16,1.4-3.1,1.63c-6.86,0.79-13.99-0.81-14.29-0.88L0,43.54L1.45,43.14L1.45,43.14z"/>
		<path class="st14" d="M64.48,7.97c0.18-1.17,0.26-2.27,0.26-3.29c0,0,0,0,0,0C64.74,5.7,64.65,6.8,64.48,7.97z"/>
		<path class="st14" d="M20.62,42.8c0.25-0.34,0.52-0.71,1.56-0.97C21.15,42.09,20.87,42.46,20.62,42.8
			c-0.22,0.31-0.46,0.6-0.79,0.85C20.16,43.4,20.4,43.11,20.62,42.8z"/>
		<path class="st14" d="M46.24,33.66c0.12-0.26,0.27-0.49,0.43-0.71C46.51,33.18,46.36,33.41,46.24,33.66
			c-0.15,0.31-0.28,0.63-0.41,0.96c-0.1,0.25-0.21,0.51-0.33,0.77c0.11-0.26,0.22-0.52,0.32-0.77
			C45.97,34.29,46.1,33.98,46.24,33.66z"/>
		<path class="st14" d="M17.53,44.43c0.22-0.03,0.42-0.06,0.6-0.09C17.95,44.37,17.75,44.4,17.53,44.43
			c-6.86,0.79-13.99-0.82-14.29-0.88l-1.79-0.41l0,0l1.79,0.41C3.53,43.61,10.66,45.22,17.53,44.43z"/>
		<path class="st14" d="M51.81,30.62c-0.31,0.11-0.62,0.21-0.94,0.25c-0.88,0.11-1.65,0.31-2.3,0.6c0.65-0.29,1.41-0.48,2.3-0.6
			C51.19,30.83,51.5,30.74,51.81,30.62z"/>
		<path class="st14" d="M64,10.4c-0.13,0.55-0.27,1.1-0.44,1.67c-0.19,0.66-0.41,1.33-0.64,2c0.23-0.67,0.45-1.34,0.64-2
			C63.73,11.5,63.87,10.95,64,10.4z"/>
		<path class="st14" d="M48.52,31.49c0.01-0.01,0.03-0.02,0.04-0.02C48.55,31.47,48.54,31.48,48.52,31.49z"/>
		<path class="st14" d="M64.74,4.94c0,0.06,0,0.12,0.01,0.18c0,0.01,0,0.02,0,0.02C64.75,5.08,64.75,5.01,64.74,4.94z"/>
		<path class="st14" d="M64.76,5.34C64.76,5.34,64.76,5.35,64.76,5.34c0,0.15,0,0.29,0,0.44c0,0.07,0,0.14,0,0.21
			C64.76,5.77,64.76,5.55,64.76,5.34z"/>
		<path class="st14" d="M64.75,5.15c0,0.06,0.01,0.13,0.01,0.19C64.76,5.28,64.75,5.21,64.75,5.15z"/>
		<path class="st14" d="M64.73,4.69c0,0,0-0.01,0-0.01c0,0.01,0,0.02,0,0.03C64.73,4.7,64.73,4.69,64.73,4.69z"/>
		<path class="st10" d="M38.36,33.02c0.07-0.03,0.13-0.05,0.19-0.08C38.52,32.95,38.45,32.98,38.36,33.02z"/>
	</g>
	<g>
		<path class="st14" d="M96.51,45.41c-18.24-1.55-28.62-5.02-28.62-5.02s-10.39,3.47-28.62,5.02"/>
		<path class="st11" d="M82.4,44.51c-9.25-0.78-14.52-2.54-14.52-2.54s-5.27,1.76-14.52,2.54H82.4z"/>
	</g>
</g>
<g id="Layer_10">
</g>
<g id="Layer_7" class="st0">
	<g class="st2">
		<path class="st4" d="M47.82-69.63v28.18v0v6.53v4.11v60.47h0.1v-60.47v-4.11v-6.53v0v-28.18c0-2.29-1.7-4.15-3.79-4.15h-332.79
			c0,0,0,0,0,0H44.03C46.12-73.77,47.82-71.91,47.82-69.63z"/>
		<path class="st4" d="M46.79,9.17c-1.03-10.51-4.69-20.73-9.25-29.83c0-0.01-0.01-0.02-0.01-0.02C42.1-11.58,45.76-1.35,46.79,9.17
			z"/>
		<path class="st4" d="M47.07,5.98L47.07,5.98c-0.17-1.01-0.37-2.01-0.58-3.01C46.7,3.96,46.9,4.97,47.07,5.98z"/>
		<path class="st4" d="M49.18-29.96v59.63h0.02v-98.17c0-0.13-0.01-0.25-0.02-0.38v34.81V-29.96z"/>
		<path class="st4" d="M45.81,11.29c-0.08-0.64-0.19-1.27-0.28-1.9C45.62,10.02,45.73,10.65,45.81,11.29l0,18.38h0V11.29z"/>
		<path class="st4" d="M43.9,0.96c0.27,1.14,0.52,2.28,0.76,3.42c0.13,0.63,0.23,1.27,0.35,1.9c-0.12-0.63-0.22-1.27-0.35-1.9
			C44.43,3.23,44.17,2.09,43.9,0.96z"/>
		<path class="st6" d="M42.91-78.01h-330.26c-7.42,0-9.87,1.26-9.87,9.51V36.4c0,0,1.97-7.54,3.5-13.39v-49.9v-42.74
			c0-3.05,2.27-5.53,5.05-5.53H44.13c2.79,0,5.05,2.48,5.05,5.53v0.74c0.01,0.13,0.02,0.25,0.02,0.38v98.17h0.02v6.73h3.57v-104.9
			C52.79-75.57,51.78-78.11,42.91-78.01z"/>
		<rect x="49.2" y="29.67" class="st6" width="0.02" height="6.73"/>
		<path class="st7" d="M-13.11-19.87C-13.11-19.87-13.11-19.87-13.11-19.87l0.01,0.04l0,0c-1.63-7.39,4.75-15.19,16.12-14.62
			c12.63,0.63,22.57,8.23,32.04,25.96c5.14,9.62,8.58,25.21,9.4,36.21c0,0,0,0,0,0c0,0,0,0,0,0v0c0.11,0.65,0.2,1.29,0.29,1.94h1.06
			V11.29c-0.08-0.64-0.19-1.27-0.28-1.9c-0.16-1.04-0.33-2.07-0.52-3.1c-0.12-0.63-0.22-1.27-0.35-1.9
			c-0.23-1.15-0.49-2.28-0.76-3.42c-1.16-4.9-2.68-9.69-4.64-14.26c-0.5-1.16-1.02-2.32-1.58-3.45
			c-4.93-9.68-12.64-19.16-22.32-23.08c-0.24-0.09-0.48-0.18-0.72-0.27c-2-0.74-4.1-1.27-6.21-1.41c-0.56-0.04-1.12-0.06-1.68-0.04
			c0,0,0,0,0,0h0c6.21-1.45,13.2,1.06,18.47,4.69c0.09,0.06,0.2,0.13,0.3,0.21c0.52,0.36,1.18,0.87,1.61,1.19
			c0.54,0.45,1.31,1.05,1.83,1.53c1.45,1.26,2.84,2.69,4.15,4.15c0.3,0.33,0.59,0.67,0.88,1c2.07,2.49,4,5.2,5.65,8.06
			c0.19,0.32,0.39,0.64,0.57,0.97c1.08,1.97,2.05,4.02,2.93,6.11c1.02,2.43,1.92,4.93,2.67,7.49v-10.82
			c-2.15-5.04-5.66-11.2-11.13-15.66C23.76-41.54,14.81-44.31,4.22-43.37c-9.02,0.81-16.53,5.46-20.42,10.95
			c-1.53,4.34-1.66,9.22-0.13,13.62c0.5,1.43,1.13,2.85,1.95,4.09c0-0.94,0.13-1.87,0.36-2.78C-13.8-18.3-13.51-19.1-13.11-19.87
			L-13.11-19.87z M-14.37-24.38c-0.1-1.09-0.03-2.2,0.17-3.29c0.38-1.9,1.09-3.59,2.03-5.08c3.03-4.77,8.55-7.49,13.81-8.16
			c0,0,0,0,0,0c0,0,0,0,0,0c-1.73,0.56-3.47,1.22-5.14,2.04c-0.01,0.01-0.02,0.01-0.04,0.02c-0.01,0.01-0.03,0.01-0.04,0.02
			c-3.69,1.82-7.02,4.41-9.05,8.35C-13.58-28.63-14.21-26.56-14.37-24.38C-14.37-24.38-14.37-24.38-14.37-24.38
			C-14.37-24.38-14.37-24.38-14.37-24.38z"/>
		<path class="st7" d="M44.68,32.38c0-0.17,0-0.35,0-0.53c0-0.04,0-0.09,0-0.13c0-0.14-0.01-0.28-0.01-0.42c0-0.04,0-0.08,0-0.12
			c0-0.15-0.01-0.29-0.01-0.44c0-0.03,0-0.07,0-0.1c-0.01-0.16-0.01-0.32-0.02-0.48c0-0.02,0-0.05,0-0.07
			c-0.01-0.14-0.01-0.29-0.02-0.43h0.14c-0.09-0.64-0.18-1.28-0.29-1.93c0.02,0.21,0.03,0.41,0.04,0.61v0.01
			c0.01,0.2,0.03,0.4,0.04,0.6l0,0.02c0.01,0.19,0.02,0.38,0.03,0.57l0,0.04c0.01,0.18,0.02,0.35,0.02,0.52c0,0.02,0,0.05,0,0.07
			c0.01,0.16,0.01,0.32,0.02,0.48c0,0.03,0,0.07,0,0.1c0.01,0.15,0.01,0.29,0.01,0.44c0,0.04,0,0.08,0,0.12
			c0,0.14,0.01,0.28,0.01,0.42c0,0.04,0,0.09,0,0.13c0,0.18,0,0.35,0,0.53c0,1.34-0.08,2.67-0.23,4.02h0.03
			C44.59,35.05,44.68,33.72,44.68,32.38z"/>
		<path class="st7" d="M44.75,29.66c-0.09-0.64-0.18-1.28-0.29-1.94v0c0,0,0,0,0,0C44.56,28.39,44.65,29.02,44.75,29.66L44.75,29.66
			z"/>
		<rect x="45.81" y="29.66" class="st7" width="0" height="6.73"/>
		<path class="st7" d="M45.81,36.4v-6.73h-1.06c0.35,2.35,0.62,4.62,0.79,6.73H45.81z"/>
		<path class="st7" d="M44.75,29.66h-0.14c0.01,0.15,0.01,0.29,0.02,0.43c0,0.02,0,0.05,0,0.07c0.01,0.16,0.01,0.32,0.02,0.48
			c0,0.03,0,0.07,0,0.1c0,0.15,0.01,0.29,0.01,0.44c0,0.04,0,0.08,0,0.12c0,0.14,0.01,0.28,0.01,0.42c0,0.04,0,0.09,0,0.13
			c0,0.18,0,0.35,0,0.53c0,1.34-0.09,2.68-0.24,4.02h1.09C45.36,34.29,45.09,32.02,44.75,29.66z"/>
		<path class="st7" d="M45.53,36.4L45.53,36.4c-0.17-2.11-0.44-4.38-0.79-6.73h0C45.09,32.02,45.36,34.29,45.53,36.4z"/>
		<rect x="45.81" y="29.66" class="st7" width="0.04" height="6.73"/>
		<path class="st5" d="M43.96-73.78h-332.69c-2.09,0-3.78,1.86-3.78,4.14v37.51l0.74-0.61v-9.6c0.09-6.06,2.18-12.09,5.73-16.73
			l-0.01-0.01c-1,1.16-1.86,2.46-2.64,3.81c-1.33,2.33-2.36,4.87-3.02,7.52V-48c-0.02,0.08-0.05,0.16-0.07,0.24v-0.28c0,0,0,0,0,0
			v-21.61c0.01-1.77,1.32-3.21,2.95-3.21h22.14c-0.01,0-0.02,0-0.03,0.01h0.1c-0.42,0.11-0.88,0.22-1.11,0.28
			c-0.3,0.1-0.9,0.29-1.21,0.38c-3.38,1.14-6.66,2.84-9.36,5.35l0.01,0.02c1.28-1.12,2.71-2.02,4.18-2.79
			c1.86-0.97,3.82-1.73,5.82-2.24l0.6-0.16l0.61-0.13l1.21-0.25l1.22-0.18c0.7-0.12,1.74-0.18,2.45-0.24
			c0.15-0.02,0.46-0.03,0.61-0.03c0.21,0,0.6-0.01,0.97-0.01v0c0.02,0,0.04,0,0.07,0c0,0,0,0,0,0v0c0.46,0,0.92,0.03,1.39,0.07
			c0.49,0.05,0.98,0.11,1.47,0.19c3.76,0.65,7.62,2.15,10.3,5.21c1.89,2.25,2.8,5.4,2.57,8.44c0.21-2.01-0.06-4.09-0.79-5.95
			c-1.68-4.23-5.79-6.73-9.91-7.97h4.87v0.01h0.07v0c0.15,0,0.29-0.01,0.44-0.01h2.87c1.17,0.03,2.35,0.1,3.52,0.23
			c1.19,0.13,2.38,0.32,3.54,0.58c0.84,0.21,1.68,0.46,2.47,0.84c2.57,1.15,3.91,4.09,2.47,6.87c0.96-1.67,0.88-3.89-0.29-5.43
			c-1.1-1.58-2.92-2.26-4.61-2.76c-0.45-0.12-0.9-0.23-1.35-0.33h27.84c-0.01,0-0.02,0.01-0.03,0.01h0.1
			c-5.47,1.3-10.67,3.97-15.2,7.53c4.17-2.87,8.77-5.04,13.53-6.37c3.84-1.1,7.73-1.33,11.61-1.02c6.44,0.51,12.86,2.52,19.01,4.53
			c4.31,1.43,10.47,3.62,14.84,4.72c-5.89-1.98-11.63-4.41-17.52-6.4c-3.56-1.2-7.19-2.28-10.88-3h69.08
			c-0.01,0-0.02,0.01-0.03,0.01h0.1c-5.8,1.34-11.61,3.97-16.62,6.8l0.01,0.03c1.81-0.97,3.66-1.83,5.54-2.63
			c5.65-2.34,11.61-4.23,17.69-4.19v0c0.98,0,1.97,0.04,2.97,0.14c6.93,0.64,14.22,3.51,20.33,6.69l0.02-0.04
			c-1.8-1.05-3.65-1.98-5.53-2.85c-1.88-0.87-3.79-1.66-5.73-2.35c-1.76-0.62-3.55-1.17-5.35-1.59h69.07
			c-0.01,0-0.02,0.01-0.03,0.01h0.1c-3.68,0.71-7.31,1.8-10.88,3c-5.84,1.98-11.54,4.38-17.38,6.35c4.39-1.12,10.44-3.27,14.7-4.69
			c8-2.6,16.45-5.23,24.82-4.54c1.94,0.16,3.87,0.49,5.8,1.04c4.82,1.34,9.47,3.55,13.68,6.47c-4.57-3.61-9.82-6.32-15.35-7.64
			h27.84c-0.01,0-0.02,0.01-0.03,0.01h0.1c-0.45,0.1-0.9,0.21-1.35,0.33c-1.28,0.38-2.58,0.85-3.66,1.72
			c-1.9,1.6-2.5,4.18-1.24,6.46l0,0c-0.43-0.82-0.64-1.79-0.58-2.72c0.13-1.9,1.48-3.45,3.05-4.15c0.79-0.37,1.62-0.63,2.47-0.84
			c2.29-0.53,4.64-0.75,6.99-0.81h2.87c0.17,0.01,0.34,0.01,0.51,0.01v-0.01h4.86c-0.01,0-0.01,0.01-0.02,0.01h0.09
			c-3.15,0.94-6.16,2.59-8.32,5.22c-1.89,2.4-2.73,5.7-2.37,8.83c-0.22-2.56,0.36-5.21,1.67-7.34c2.43-3.87,7.1-5.75,11.19-6.45
			c0.94-0.15,1.91-0.25,2.85-0.26v0c0.38,0,0.76,0.01,0.97,0.01c0.15,0,0.46,0.01,0.62,0.03c0.36,0.03,0.81,0.06,1.26,0.1
			c0.45,0.04,0.9,0.08,1.26,0.14l1.22,0.18c0.4,0.08,1.44,0.3,1.82,0.38c3.78,0.96,7.52,2.56,10.6,5.19l0.02-0.02
			c-1.26-1.2-2.68-2.17-4.15-3.03c-2.03-1.17-4.2-2.06-6.42-2.71c-0.23-0.06-0.69-0.18-1.11-0.28h22.14c0.02,0,0.04,0.01,0.07,0.01
			h0c1.62,0,2.95,1.45,2.95,3.22v21.89c-0.02-0.09-0.05-0.17-0.07-0.25v0.25c-1.03-4.2-2.98-8.13-5.65-11.33l-0.01,0.01
			c0.48,0.6,0.92,1.25,1.34,1.9c2.68,4.29,4.29,9.42,4.4,14.63v11.16v12.94c-0.65-1.84-1.41-3.63-2.26-5.37
			c1.9,4.6,2.61,8.12,2.61,8.12v2.89c0.03,0.09,0.07,0.19,0.1,0.28v42.17h0.32v-60.47v-4.11v-6.53v0v-28.18
			C47.75-71.92,46.05-73.78,43.96-73.78z"/>
		<path class="st5" d="M47.07,5.98C47.07,5.97,47.07,5.97,47.07,5.98L47.07,5.98c-0.17-1.01-0.37-2.01-0.58-3.01
			c-1.76-8.34-4.96-16.39-8.95-23.62c4.57,9.1,8.22,19.32,9.25,29.83c0.15,1.5,0.24,3.01,0.28,4.52v15.97h0.04v6.73h0v-6.73h0.29
			V-12.5v-0.28c-0.1-0.31-0.21-0.62-0.32-0.95V5.98z"/>
		<polygon class="st5" points="47.07,5.97 47.07,5.98 47.07,-13.73 47.07,-13.73 		"/>
		<path class="st5" d="M37.54-20.66c3.99,7.23,7.19,15.28,8.95,23.62c-1.76-8.35-4.96-16.41-8.96-23.64
			C37.53-20.68,37.54-20.67,37.54-20.66z"/>
		<path class="st5" d="M47.07,29.66L47.07,29.66l0-15.97c-0.04-1.51-0.13-3.02-0.28-4.52c0.15,1.5,0.24,3.01,0.28,4.52V29.66z"/>
		<path class="st5" d="M47.4,29.66h0.1V-12.5c-0.03-0.09-0.07-0.19-0.1-0.28v0.28V29.66z"/>
		<rect x="47.82" y="29.66" class="st5" width="0.1" height="6.73"/>
		<rect x="47.49" y="29.66" class="st5" width="0.32" height="6.73"/>
		<rect x="47.11" y="29.66" class="st5" width="0.29" height="6.73"/>
		<rect x="47.4" y="29.66" class="st5" width="0.1" height="6.73"/>
		<rect x="47.91" y="29.66" class="st5" width="0.04" height="6.73"/>
		<path class="st8" d="M43.14-13.64c-0.88-2.09-1.85-4.13-2.93-6.11c-0.18-0.33-0.38-0.65-0.57-0.97c-1.65-2.86-3.58-5.57-5.65-8.06
			c-0.29-0.34-0.58-0.67-0.88-1c-1.31-1.47-2.7-2.89-4.15-4.15c-0.52-0.48-1.29-1.08-1.83-1.53c-0.43-0.32-1.09-0.83-1.61-1.19
			c-0.1-0.07-0.21-0.15-0.3-0.21C19.95-40.49,12.96-43,6.75-41.55c0.56-0.02,1.12,0,1.68,0.04c2.12,0.14,4.21,0.67,6.21,1.41
			c0.24,0.09,0.48,0.18,0.72,0.27c9.68,3.92,17.4,13.39,22.32,23.08c0.56,1.13,1.08,2.29,1.58,3.45c1.97,4.57,3.49,9.37,4.64,14.26
			c0.27,1.14,0.52,2.28,0.76,3.42c0.13,0.63,0.23,1.27,0.35,1.9c0.19,1.03,0.36,2.07,0.52,3.1c0.1,0.63,0.2,1.27,0.28,1.9v18.38
			h0.04v6.73h0v-6.73h1.23V13.69c-0.04-1.51-0.13-3.02-0.28-4.52c-1.04-10.52-4.69-20.75-9.27-29.85c0,0.01,0.01,0.02,0.01,0.02
			c0-0.01-0.01-0.02-0.01-0.02c4,7.24,7.2,15.3,8.96,23.64c0.21,1,0.41,2,0.58,3.01v-19.71c0,0,0,0,0,0v0
			c-0.35-1-0.77-2.09-1.26-3.24v10.82c0,0,0,0,0,0v0C45.06-8.71,44.16-11.21,43.14-13.64z"/>
		<path class="st8" d="M45.53,9.38c-0.16-1.04-0.33-2.07-0.52-3.1C45.2,7.31,45.37,8.34,45.53,9.38z"/>
		<path class="st8" d="M43.9,0.96c-1.16-4.9-2.67-9.69-4.64-14.26C41.23-8.73,42.75-3.94,43.9,0.96z"/>
		<rect x="45.85" y="29.66" class="st8" width="1.23" height="6.73"/>
		<rect x="47.07" y="29.66" class="st8" width="0.04" height="6.73"/>
		<rect x="47.07" y="29.66" class="st8" width="0" height="6.73"/>
		<rect x="49.18" y="29.67" class="st8" width="0.02" height="6.73"/>
		<rect x="47.95" y="29.67" class="st8" width="1.23" height="6.73"/>
		<path class="st8" d="M44.13-75.16h-332.79c-2.79,0-5.05,2.48-5.05,5.53v42.74V23c0.03-0.11,0.06-0.23,0.09-0.34
			c0.45-1.73,0.86-3.29,1.16-4.44c0-0.02,0.01-0.04,0.01-0.06v-46.19l-0.1,0.08l0.1-0.08v-0.32v-3.79l0,0v-37.51
			c0-2.28,1.7-4.14,3.78-4.14c0,0,0,0,0,0H44.13c2.09,0,3.79,1.86,3.79,4.15v28.18v0v6.53v4.11v60.47h0.04v6.73h0v-6.73h1.23v-59.63
			v-4.11v-34.81v-0.74C49.18-72.68,46.91-75.16,44.13-75.16z"/>
	</g>
</g>
</svg>
