<?xml version="1.0" encoding="utf-8"?>
<!-- Generator: Adobe Illustrator 25.1.0, SVG Export Plug-In . SVG Version: 6.00 Build 0)  -->
<svg version="1.1" id="Layer_1" xmlns="http://www.w3.org/2000/svg" xmlns:xlink="http://www.w3.org/1999/xlink" x="0px" y="0px"
	 viewBox="0 0 278 25.2" style="enable-background:new 0 0 278 25.2;" xml:space="preserve">
<style type="text/css">
	.st0{display:none;}
	.st1{fill:#70712F;}
	.st2{fill:#E7A423;}
	.st3{display:inline;}
	.st4{fill:none;}
	.st5{fill:#424720;}
	.st6{fill:#BB892C;}
	.st7{fill:none;stroke:#424620;stroke-width:3;stroke-miterlimit:10;}
	.st8{fill:none;stroke:#BF8B2C;stroke-miterlimit:10;}
	.st9{fill:none;stroke:#BF8B2C;stroke-width:0.75;stroke-miterlimit:10;}
</style>
<g>
	<path class="st1" d="M133.8,9.9c1-2.2-0.8-5.1-5.4-6.4c1.4,0.2,2.7,0.7,3.9,1.4c1.1,0.7,2.1,1.5,2.7,2.6c1.1,2.2,0.3,4.8-2.1,5.6
		c-1.9,0.6-4.5-0.3-5.7-2.1l0,0l0,0C127.2,11,131.9,13.9,133.8,9.9z"/>
	<path class="st2" d="M132.9,13.1c2.4-0.8,3.2-3.4,2.1-5.6c-0.5-1.1-1.6-2-2.7-2.6c-1.2-0.7-2.5-1.2-3.9-1.4
		c-1.9-0.5-4.3-0.8-7.1-0.6c0,0,4.2-1.7,9.8,0.1c5.6,1.8,6.4,5.4,6,7.5c-0.4,1.9-1.7,3.9-4.8,3.9c-3.8-0.1-5.1-3.3-5.1-3.3l0,0
		C128.3,12.8,131,13.7,132.9,13.1z"/>
	<path class="st1" d="M150.9,11.1L150.9,11.1L150.9,11.1c-1.1,1.7-3.8,2.7-5.7,2.1c-2.4-0.8-3.2-3.4-2.1-5.6c0.5-1.1,1.6-2,2.7-2.6
		c1.2-0.7,2.5-1.2,3.9-1.4c-4.6,1.3-6.4,4.2-5.4,6.4C146.1,14,150.9,11.1,150.9,11.1z"/>
	<path class="st2" d="M150.9,11.2L150.9,11.2c0,0-1.4,3.2-5.1,3.3c-3.1,0.1-4.4-2-4.8-3.9c-0.4-2.1,0.3-5.7,6-7.5
		c5.7-1.8,9.8-0.1,9.8-0.1c-2.8-0.2-5.2,0.1-7.1,0.6c-1.3,0.2-2.7,0.7-3.9,1.4c-1.1,0.7-2.1,1.5-2.7,2.6c-1.1,2.2-0.3,4.8,2.1,5.6
		C147.1,13.8,149.7,12.9,150.9,11.2z"/>
</g>
<path class="st2" d="M158.2,17.3c2.9-1.6,5.7-2.4,8.8-2.4c2.6,0,5.4,0.6,9,1.8c0,0,3.8,1.9,4.4,2.1h-26
	C155.8,18.4,157,17.9,158.2,17.3z"/>
<path class="st2" d="M123.9,19.1H98c0.6-0.2,4.4-2.1,4.4-2.1c3.7-1.2,6.4-1.8,9-1.8c3,0,5.8,0.8,8.8,2.4
	C121.4,18.2,122.6,18.7,123.9,19.1z"/>
<path class="st2" d="M148.4,19.6c-6.4-0.5-8.9-1.8-8.9-1.8s-3,1.2-9.8,1.8H148.4z"/>
<g id="Layer_7" class="st0">
	<g class="st3">
		<path class="st4" d="M203.3-86.3v28.2l0,0v6.5v4.1V13h0.1v-60.5v-4.1v-6.5l0,0v-28.2c0-2.3-1.7-4.2-3.8-4.2h-332.8l0,0h332.7
			C201.6-90.4,203.3-88.6,203.3-86.3z"/>
		<path class="st5" d="M198.4-94.7h-330.3c-7.4,0-9.9,1.3-9.9,9.5V19.8c0,0,2-7.5,3.5-13.4v-49.9v-42.7c0-3.1,2.3-5.5,5.1-5.5h332.8
			c2.8,0,5.1,2.5,5.1,5.5v0.7c0,0.1,0,0.2,0,0.4V13h0v6.7h3.6V-85.2C208.2-92.2,207.2-94.8,198.4-94.7z"/>
		<path class="st2" d="M199.4-90.4h-332.7c-2.1,0-3.8,1.9-3.8,4.1v37.5l0.7-0.6V-59c0.1-6.1,2.2-12.1,5.7-16.7l0,0
			c-1,1.2-1.9,2.5-2.6,3.8c-1.3,2.3-2.4,4.9-3,7.5v-0.2c0,0.1-0.1,0.2-0.1,0.2v-0.3l0,0v-21.6c0-1.8,1.3-3.2,2.9-3.2h22.1
			c0,0,0,0,0,0h0.1c-0.4,0.1-0.9,0.2-1.1,0.3c-0.3,0.1-0.9,0.3-1.2,0.4c-3.4,1.1-6.7,2.8-9.4,5.3l0,0c1.3-1.1,2.7-2,4.2-2.8
			c1.9-1,3.8-1.7,5.8-2.2l0.6-0.2l0.6-0.1l1.2-0.2l1.2-0.2c0.7-0.1,1.7-0.2,2.4-0.2c0.2,0,0.5,0,0.6,0c0.2,0,0.6,0,1,0l0,0
			c0,0,0,0,0.1,0l0,0l0,0c0.5,0,0.9,0,1.4,0.1c0.5,0.1,1,0.1,1.5,0.2c3.8,0.7,7.6,2.2,10.3,5.2c1.9,2.2,2.8,5.4,2.6,8.4
			c0.2-2-0.1-4.1-0.8-5.9c-1.7-4.2-5.8-6.7-9.9-8h4.9v0h0.1l0,0c0.2,0,0.3,0,0.4,0h2.9c1.2,0,2.3,0.1,3.5,0.2
			c1.2,0.1,2.4,0.3,3.5,0.6c0.8,0.2,1.7,0.5,2.5,0.8c2.6,1.2,3.9,4.1,2.5,6.9c1-1.7,0.9-3.9-0.3-5.4c-1.1-1.6-2.9-2.3-4.6-2.8
			c-0.4-0.1-0.9-0.2-1.3-0.3h27.8c0,0,0,0,0,0h0.1c-5.5,1.3-10.7,4-15.2,7.5c4.2-2.9,8.8-5,13.5-6.4c3.8-1.1,7.7-1.3,11.6-1
			c6.4,0.5,12.9,2.5,19,4.5c4.3,1.4,10.5,3.6,14.8,4.7c-5.9-2-11.6-4.4-17.5-6.4c-3.6-1.2-7.2-2.3-10.9-3h69.1c0,0,0,0,0,0h0.1
			c-5.8,1.3-11.6,4-16.6,6.8l0,0c1.8-1,3.7-1.8,5.5-2.6c5.7-2.3,11.6-4.2,17.7-4.2l0,0c1,0,2,0,3,0.1c6.9,0.6,14.2,3.5,20.3,6.7l0,0
			c-1.8-1.1-3.7-2-5.5-2.8c-1.9-0.9-3.8-1.7-5.7-2.3c-1.8-0.6-3.5-1.2-5.3-1.6h69.1c0,0,0,0,0,0h0.1c-3.7,0.7-7.3,1.8-10.9,3
			c-5.8,2-11.5,4.4-17.4,6.3c4.4-1.1,10.4-3.3,14.7-4.7c8-2.6,16.4-5.2,24.8-4.5c1.9,0.2,3.9,0.5,5.8,1c4.8,1.3,9.5,3.6,13.7,6.5
			c-4.6-3.6-9.8-6.3-15.3-7.6h27.8c0,0,0,0,0,0h0.1c-0.4,0.1-0.9,0.2-1.4,0.3c-1.3,0.4-2.6,0.8-3.7,1.7c-1.9,1.6-2.5,4.2-1.2,6.5
			l0,0c-0.4-0.8-0.6-1.8-0.6-2.7c0.1-1.9,1.5-3.4,3.1-4.2c0.8-0.4,1.6-0.6,2.5-0.8c2.3-0.5,4.6-0.8,7-0.8h2.9c0.2,0,0.3,0,0.5,0v0
			h4.9c0,0,0,0,0,0h0.1c-3.1,0.9-6.2,2.6-8.3,5.2c-1.9,2.4-2.7,5.7-2.4,8.8c-0.2-2.6,0.4-5.2,1.7-7.3c2.4-3.9,7.1-5.8,11.2-6.4
			c0.9-0.2,1.9-0.2,2.9-0.3l0,0c0.4,0,0.8,0,1,0c0.1,0,0.5,0,0.6,0c0.4,0,0.8,0.1,1.3,0.1s0.9,0.1,1.3,0.1l1.2,0.2
			c0.4,0.1,1.4,0.3,1.8,0.4c3.8,1,7.5,2.6,10.6,5.2l0,0c-1.3-1.2-2.7-2.2-4.1-3c-2-1.2-4.2-2.1-6.4-2.7c-0.2-0.1-0.7-0.2-1.1-0.3
			h22.1c0,0,0,0,0.1,0l0,0c1.6,0,2.9,1.4,2.9,3.2v21.9c0-0.1-0.1-0.2-0.1-0.2v0.2c-1-4.2-3-8.1-5.6-11.3l0,0
			c0.5,0.6,0.9,1.2,1.3,1.9c2.7,4.3,4.3,9.4,4.4,14.6V-48v12.9c-0.6-1.8-1.4-3.6-2.3-5.4c1.9,4.6,2.6,8.1,2.6,8.1v2.9
			c0,0.1,0.1,0.2,0.1,0.3V13h0.3v-60.5v-4.1v-6.5l0,0v-28.2C203.2-88.6,201.5-90.4,199.4-90.4z"/>
		<path class="st6" d="M199.6-91.8h-332.8c-2.8,0-5.1,2.5-5.1,5.5v42.7V6.4c0-0.1,0.1-0.2,0.1-0.3c0.4-1.7,0.9-3.3,1.2-4.4
			c0,0,0,0,0-0.1v-46.2l-0.1,0.1l0.1-0.1V-45v-3.8l0,0v-37.5c0-2.3,1.7-4.1,3.8-4.1l0,0h332.8c2.1,0,3.8,1.9,3.8,4.2v28.2l0,0v6.5
			v4.1V13h0v6.7l0,0V13h1.2v-59.6v-4.1v-34.8v-0.7C204.6-89.3,202.4-91.8,199.6-91.8z"/>
	</g>
</g>
<line class="st7" x1="0" y1="24.2" x2="278" y2="24.2"/>
<line class="st8" x1="0" y1="20.9" x2="278" y2="20.9"/>
<path class="st9" d="M73.7,20.9c24.6,0,25.3-8.2,37.9-8.2c9.7,0,14.1,7.6,27.7,3.3c13.2,4.2,17.6-3.3,27.1-3.3
	c10.3,0,16.6,8.2,37.8,8.2"/>
</svg>
