<?xml version="1.0" encoding="utf-8"?>
<!-- Generator: Adobe Illustrator 25.1.0, SVG Export Plug-In . SVG Version: 6.00 Build 0)  -->
<svg version="1.1" xmlns="http://www.w3.org/2000/svg" xmlns:xlink="http://www.w3.org/1999/xlink" x="0px" y="0px"
	 viewBox="0 0 56.24 50.48" style="enable-background:new 0 0 56.24 50.48;" xml:space="preserve">
<style type="text/css">
	.st0{display:none;}
	.st1{display:inline;fill:none;}
	.st2{display:inline;}
	.st3{fill:#F0B278;}
	.st4{fill:none;}
	.st5{fill:#E7A423;}
	.st6{fill:#424720;}
	.st7{fill:#72722F;}
	.st8{fill:#BB892C;}
	.st9{fill:#9C9D3A;}
	.st10{fill:#71712E;}
	.st11{fill:#BC8A2C;}
	.st12{fill:#9D9E3C;}
	.st13{fill:#F1B378;}
	.st14{fill:#E6A424;}
	.st15{fill:#424620;}
</style>
<g id="Layer_1" class="st0">
	<path class="st1" d="M5.48,6.35H-9.11c-0.93,0-1.68,0.83-1.68,1.84v14.83c1.18-2.5,2.72-5.04,4.67-7.46
		C-3.54,12.34,0.24,8.77,5.48,6.35z"/>
</g>
<g id="Layer_8">
</g>
<g id="Dark_Green">
</g>
<g id="Mid_Green">
</g>
<g id="Light_Green">
</g>
<g id="Dark_Gold">
	<path class="st8" d="M0,9.19l0,0.03c0,0.15,0.01,0.3,0.02,0.46l0,0.03c0.01,0.16,0.03,0.32,0.05,0.48l0.01,0.06
		c0.02,0.15,0.05,0.31,0.08,0.47l0.01,0.04c0.03,0.16,0.07,0.33,0.11,0.51l0.02,0.08c0.04,0.16,0.09,0.32,0.14,0.48l0.01,0.05
		c0.06,0.18,0.12,0.35,0.19,0.53c0.01,0.04,0.03,0.07,0.04,0.11c0.06,0.17,0.13,0.33,0.21,0.5l0.02,0.05
		c0.08,0.18,0.17,0.37,0.26,0.56c0.02,0.04,0.04,0.08,0.06,0.13c0.09,0.18,0.18,0.35,0.28,0.53l0.03,0.05
		c0.11,0.19,0.23,0.39,0.35,0.58c0.03,0.05,0.06,0.09,0.09,0.14c0.12,0.19,0.25,0.38,0.38,0.58l0.02,0.03
		c0.14,0.2,0.29,0.41,0.45,0.62c0.04,0.05,0.08,0.1,0.12,0.15c0.16,0.21,0.33,0.42,0.5,0.64c6.68,8.1,16.79,21.09,21.6,27.38
		c2.78,3.64,6.25,5.53,9.72,5.53c2.11,0,4.23-0.7,6.19-2.13c5.06-3.69,10.9-11.69,12.83-14.31c0.13-0.18,0.25-0.35,0.37-0.53
		c0.04-0.06,0.08-0.13,0.12-0.19c0.07-0.11,0.15-0.23,0.22-0.34c0.05-0.08,0.09-0.16,0.14-0.24c0.06-0.1,0.12-0.2,0.17-0.3
		c0.05-0.09,0.1-0.18,0.14-0.27c0.05-0.09,0.09-0.18,0.14-0.27c0.05-0.1,0.09-0.19,0.14-0.29c0.04-0.08,0.07-0.16,0.11-0.24
		c0.05-0.1,0.09-0.21,0.13-0.31c0.03-0.07,0.06-0.14,0.08-0.22c0.04-0.11,0.09-0.23,0.13-0.34c0.02-0.06,0.04-0.12,0.06-0.18
		c0.04-0.12,0.08-0.25,0.12-0.37c0.01-0.04,0.02-0.09,0.04-0.13c0.04-0.14,0.08-0.28,0.11-0.42l0.01-0.04
		c0.29-1.22,0.35-2.46,0.2-3.71v0c-0.03-0.28-0.07-0.56-0.13-0.84c-1.34-6.74-8.83-11.59-14.34-14.65
		C33.69,5.16,25.69,1.07,16.7,0.2C8.65-0.57,2.66,1.57,0.68,5.91C0.33,6.68,0.06,7.62,0.01,8.72l0,0.01C0,8.88,0,9.04,0,9.19z
		 M5.45,8.51c0.07-0.14,0.17-0.29,0.3-0.44C5.78,8.04,5.82,8,5.85,7.97c0.04-0.04,0.08-0.08,0.13-0.12c0.04-0.03,0.08-0.07,0.12-0.1
		c0.05-0.04,0.09-0.08,0.14-0.12c0.05-0.03,0.09-0.07,0.14-0.1C6.44,7.5,6.49,7.46,6.55,7.42c0.05-0.03,0.1-0.07,0.16-0.1
		c0.06-0.04,0.13-0.08,0.2-0.11c0.06-0.03,0.11-0.06,0.18-0.09c0.08-0.04,0.16-0.07,0.24-0.11c0.06-0.03,0.12-0.05,0.18-0.08
		c0.1-0.04,0.2-0.08,0.31-0.12c0.05-0.02,0.1-0.04,0.16-0.06c0.16-0.06,0.33-0.12,0.5-0.17c0.04-0.01,0.09-0.02,0.13-0.04
		c0.14-0.04,0.28-0.08,0.42-0.12c0.07-0.02,0.15-0.03,0.22-0.05C9.38,6.33,9.51,6.3,9.64,6.27C9.73,6.26,9.81,6.24,9.9,6.22
		c0.13-0.02,0.26-0.05,0.39-0.07c0.09-0.02,0.18-0.03,0.28-0.04c0.14-0.02,0.27-0.04,0.42-0.06c0.1-0.01,0.19-0.02,0.29-0.03
		c0.15-0.02,0.3-0.03,0.46-0.04c0.1-0.01,0.19-0.02,0.29-0.02c0.17-0.01,0.35-0.02,0.53-0.03c0.09,0,0.17-0.01,0.26-0.01
		c0.27-0.01,0.55-0.01,0.83-0.01c0.81,0,1.67,0.04,2.58,0.13c8.05,0.77,15.53,4.62,23.13,8.83c0.27,0.15,0.52,0.29,0.78,0.44
		c0.09,0.05,0.17,0.1,0.26,0.15c0.16,0.1,0.33,0.19,0.49,0.29c0.09,0.06,0.19,0.11,0.28,0.17c0.14,0.09,0.29,0.17,0.43,0.26
		c0.1,0.06,0.2,0.12,0.29,0.18c0.13,0.08,0.26,0.16,0.39,0.24c0.1,0.06,0.19,0.12,0.29,0.18c0.12,0.08,0.24,0.15,0.36,0.23
		c0.09,0.06,0.19,0.12,0.28,0.18c0.11,0.07,0.23,0.15,0.34,0.22c0.09,0.06,0.18,0.12,0.27,0.18c0.11,0.07,0.21,0.14,0.32,0.22
		c0.08,0.06,0.17,0.12,0.25,0.18c0.1,0.07,0.2,0.14,0.3,0.21c0.08,0.06,0.16,0.12,0.24,0.18c0.1,0.07,0.19,0.14,0.28,0.21
		c0.08,0.06,0.15,0.11,0.23,0.17c0.09,0.07,0.18,0.14,0.27,0.21c0.07,0.06,0.14,0.11,0.21,0.16c0.09,0.07,0.17,0.14,0.26,0.21
		c0.07,0.05,0.13,0.11,0.2,0.16c0.09,0.07,0.17,0.14,0.25,0.21c0.06,0.05,0.12,0.1,0.18,0.15c0.08,0.07,0.16,0.14,0.24,0.21
		c0.05,0.05,0.11,0.09,0.16,0.14c0.08,0.08,0.17,0.15,0.25,0.23c0.04,0.04,0.09,0.08,0.13,0.12c0.12,0.11,0.23,0.22,0.34,0.33
		l0.01,0.01c0.11,0.11,0.22,0.22,0.33,0.33c0.03,0.03,0.07,0.07,0.1,0.11c0.07,0.07,0.14,0.14,0.2,0.22
		c0.04,0.04,0.08,0.08,0.11,0.13c0.06,0.06,0.11,0.12,0.17,0.19c0.04,0.04,0.08,0.09,0.11,0.13c0.05,0.06,0.1,0.12,0.15,0.18
		c0.04,0.04,0.07,0.09,0.11,0.13c0.04,0.06,0.09,0.11,0.13,0.17c0.03,0.04,0.07,0.09,0.1,0.13c0.04,0.05,0.08,0.11,0.12,0.16
		c0.03,0.04,0.06,0.09,0.09,0.13c0.04,0.05,0.07,0.1,0.11,0.15c0.03,0.04,0.06,0.09,0.09,0.13c0.03,0.05,0.06,0.1,0.1,0.15
		c0.03,0.04,0.05,0.08,0.08,0.12c0.03,0.05,0.06,0.1,0.09,0.15c0.02,0.04,0.05,0.08,0.07,0.12c0.03,0.05,0.05,0.1,0.08,0.14
		c0.02,0.04,0.04,0.08,0.06,0.12c0.02,0.05,0.05,0.09,0.07,0.14c0.02,0.04,0.04,0.08,0.05,0.11c0.02,0.05,0.04,0.09,0.06,0.14
		c0.02,0.04,0.03,0.07,0.05,0.11c0.02,0.05,0.04,0.09,0.06,0.14c0.01,0.03,0.03,0.07,0.04,0.1c0.02,0.05,0.04,0.1,0.05,0.14
		l0.03,0.08c0.02,0.06,0.04,0.13,0.06,0.19l0.01,0.03c0.04,0.15,0.08,0.29,0.11,0.43c0.05,0.26,0.05,0.53,0.05,0.89
		c-0.01,0.86-0.25,2.03-1.31,3.49c-0.72,0.98-1.4,1.89-2.08,2.78c-0.9,1.17-1.75,2.25-2.58,3.25c0,0,0,0,0,0
		c-0.48,0.58-5.4,5.94-6.96,7.08c-1.54,1.12-2.99,1.32-4.26,1.05c0.8,0.55,0.8,0.55,0,0c-2.14-0.46-3.8-2.27-4.61-3.33
		c-4.83-6.32-15-19.39-21.73-27.54C5.77,11.18,5.03,9.43,5.45,8.51z"/>
</g>
<g id="Light_Gold">
</g>
<g id="Layer_9">
	<path class="st7" d="M25.98,18.21c6.37,3.52,12.51,7.53,18.36,11.99c1.07,0.82,2.12,1.67,3.17,2.51c-0.9,1.17-1.75,2.25-2.58,3.25
		c-0.61-0.7-2.28-2.5-2.29-2.51c-0.42-0.45-9.87-10.36-18.11-15.69c-0.16-0.11-2.06-1.37-2.87-1.88c-0.01,0-0.01-0.01-0.02-0.01
		C23.1,16.64,24.55,17.42,25.98,18.21z"/>
	<path class="st9" d="M9.8,9.48c0,0,1.01-0.33,2.69,0.72c0,0,1.14-1.2,2.62-0.5c1.48,0.69,1.83,2.37,1.83,2.37s0.3-2.53,2.29-2.63
		c1.99-0.1,3.62,2.28,4.28,5.2c0,0,0.92-2.95,3.26-3.01c2.34-0.06,5.09,2.06,7.13,8.97c0,0,0.66-3.62,4.07-3.73
		c3.41-0.11,5.14,2.67,6.11,5.18c0.97,2.51,1.58,7.75,1.58,7.75s2.17-3.69,5.28-3.26c-0.01,0.86-0.29,1.99-1.35,3.44
		c-0.72,0.98-1.4,1.89-2.08,2.78c-1.05-0.84-2.1-1.7-3.17-2.51c-5.86-4.46-11.99-8.47-18.36-11.99c-1.44-0.79-2.88-1.57-4.33-2.34
		c0.01,0,0.01,0.01,0.02,0.01c-3.29-2.05-6.92-3.95-10.54-5.37l-1-0.48C10.01,9.9,9.9,9.71,9.8,9.48z"/>
	<path class="st7" d="M11.14,10.56c-0.08-0.03,2.99,1.61,3.34,1.81c0.09,0.05,0.18,0.11,0.28,0.16c0.37,0.22,0.75,0.45,1.17,0.7
		c0.05,0.03,0.1,0.06,0.14,0.09c0.38,0.23,0.78,0.48,1.2,0.75c0.11,0.07,0.21,0.13,0.32,0.2c0.46,0.3,0.94,0.61,1.44,0.94
		c0.09,0.06,0.18,0.12,0.27,0.18c0.45,0.3,0.91,0.62,1.39,0.94c0.11,0.08,0.22,0.15,0.33,0.23c0.54,0.37,1.09,0.77,1.65,1.18
		c0.13,0.09,0.26,0.19,0.39,0.29c0.53,0.39,1.07,0.79,1.62,1.21c0.08,0.06,0.15,0.11,0.22,0.17c0.6,0.46,1.21,0.94,1.83,1.44
		c0.15,0.12,0.31,0.25,0.46,0.37c0.64,0.51,1.28,1.04,1.93,1.6c0.05,0.04,0.09,0.08,0.14,0.12c0.61,0.52,1.24,1.07,1.86,1.62
		c0.16,0.14,0.32,0.28,0.48,0.43c0.66,0.59,1.32,1.2,1.99,1.83c0.12,0.11,0.23,0.22,0.35,0.34c0.6,0.57,1.2,1.16,1.8,1.76
		c0.14,0.14,0.28,0.28,0.42,0.42c0.67,0.68,1.35,1.38,2.02,2.1c0.15,0.16,0.29,0.32,0.44,0.48c0.62,0.67,1.24,1.35,1.85,2.06
		c0.09,0.11,0.19,0.21,0.28,0.32c0.68,0.78,1.36,1.59,2.03,2.41c0.15,0.18,0.3,0.37,0.45,0.55c0.1,0.12,0.2,0.25,0.3,0.38
		c-2.13,2.45-4,4.28-5.56,5.42c-1.54,1.12-2.99,1.32-4.26,1.05c-0.57-0.39-1.04-0.89-1.33-1.55c-0.2-0.47-0.32-1.01-0.31-1.64
		c0.02-1.74,0.79-3.02,1.8-3.95c1.91-1.78,4.67-2.29,4.67-2.29s-0.01,0-0.01,0c0,0,0.01,0,0.01,0s-5.29-0.1-8.96-0.86
		c-0.52-0.11-1.02-0.23-1.45-0.37c-1.73-0.54-2.95-1.27-3.75-2.07c-0.8-0.8-1.19-1.68-1.23-2.53c-0.03-0.57,0.09-1.13,0.33-1.64
		c0.35-0.74,1.01-1.26,1.73-1.63c1.37-0.71,2.93-0.88,2.93-0.88c0,0,0,0,0,0c0,0,0,0,0,0c-0.67,0.03-1.29,0.03-1.88,0.02
		c-5.09-0.05-7.76-1.24-8.52-3c-0.1-0.24-0.18-0.49-0.21-0.76c-0.1-0.82,0.15-1.43,0.51-1.89c0.69-0.88,1.81-1.19,1.81-1.19
		c0,0,0,0-0.01,0c0,0,0.01,0,0.01,0c-0.43,0.02-1.41,0.14-2.52,0.12c-0.83-0.01-1.74-0.1-2.54-0.35c-0.99-0.3-1.83-0.83-2.2-1.78
		c-0.06-0.15-0.09-0.29-0.09-0.44c-0.01-0.26,0.08-0.51,0.21-0.74c0.39-0.7,1.3-1.25,2.19-1.23c0,0-0.01,0-0.01,0c0,0,0,0,0.01,0
		c0,0-3.53,0-3.79-1.24c-0.06-0.28,0.06-0.64,0.43-1.07l0,0c0,0,0,0,0,0c0,0-0.02-0.01-0.02-0.01c-0.01,0-0.02-0.01-0.04-0.02
		c-0.01-0.01-0.04-0.02-0.06-0.02c-0.27-0.08-0.56-0.24-0.68-0.33c-0.12-0.09-0.32-0.27-0.56-0.7L11.14,10.56z"/>
</g>
<g id="Layer_10">
</g>
<g id="Layer_7" class="st0">
	<g class="st2">
		<polygon class="st3" points="15.56,45.97 14.3,47.01 14.3,49.76 15.56,49.76 		"/>
		<path class="st4" d="M34.05,8.42c1.86-0.97,3.82-1.73,5.82-2.24l0.6-0.16l0.61-0.13l1.21-0.25l1.22-0.18
			c0.7-0.12,1.74-0.18,2.45-0.24c0.16-0.02,0.46-0.03,0.62-0.03c0.21,0,0.59-0.01,0.97-0.01c-0.02,0-0.04,0-0.07,0v0
			c-0.38,0-0.76,0.01-0.97,0.01c-0.16,0-0.46,0.01-0.61,0.03c-0.72,0.06-1.75,0.12-2.45,0.24l-1.22,0.18l-1.21,0.25l-0.61,0.13
			l-0.6,0.16c-2.01,0.51-3.96,1.28-5.82,2.24c-1.47,0.78-2.91,1.67-4.19,2.79l0.03,0.04C31.12,10.11,32.57,9.2,34.05,8.42z"/>
		<path class="st4" d="M21.41,48.46c2.18-3.45,4.76-6.67,7.67-9.47c0,0,0,0,0,0C26.17,41.8,23.59,45.01,21.41,48.46
			c0.79-1.37,1.68-2.74,2.68-4.08C23.09,45.72,22.2,47.09,21.41,48.46c-0.12,0.2-0.25,0.4-0.37,0.59
			c-3.78,6.83-5.06,13.22-5.06,13.22v3.17c0,0,0,0,0,0v-3.1C15.98,62.34,17.34,55.54,21.41,48.46z"/>
		<path class="st4" d="M48.95,5.26c-0.46-0.04-0.93-0.07-1.39-0.07v0C48.02,5.19,48.48,5.21,48.95,5.26z"/>
		<path class="st4" d="M19.48,39.53c0.63-1.81,1.54-3.48,2.65-4.99C21.02,36.05,20.11,37.72,19.48,39.53
			c1.63-2.74,3.62-5.11,5.82-7.3c0.15-0.14,0.31-0.28,0.46-0.43c-0.15,0.14-0.31,0.28-0.46,0.43C23.1,34.41,21.1,36.78,19.48,39.53z
			"/>
		<path class="st4" d="M32.44,26.49c-0.5,0.14-0.98,0.33-1.46,0.55C31.45,26.82,31.94,26.62,32.44,26.49
			C32.43,26.49,32.44,26.49,32.44,26.49z"/>
		<path class="st4" d="M32.02,23.3c0.54-0.35,1.07-0.71,1.58-1.1c-0.01,0-0.02,0-0.02,0c-0.51,0.39-1.05,0.76-1.59,1.1
			c-5.17,3.19-9.62,5.93-12.3,11.97c-0.03,0.1-0.07,0.18-0.1,0.28C22.25,29.31,26.77,26.54,32.02,23.3z"/>
		<path class="st4" d="M17.67,47.07v3.88c2.61-5.43,6.25-10.28,10.67-14.08c1.28-1.13,2.6-2.21,4.01-3.14
			c0.24-0.16,0.47-0.31,0.69-0.46c0,0,0,0,0,0c-0.04-0.04-0.07-0.07-0.11-0.11c-0.36-0.34-1.18-0.93-2.14-0.29
			c-4.56,3.05-8.97,5.8-11.33,11.32c0.08-0.24,0.16-0.47,0.24-0.7c0.02-0.05,0.04-0.11,0.06-0.16c0.08-0.22,0.17-0.43,0.26-0.64
			l0.01-0.02c0.1-0.23,0.2-0.46,0.31-0.69c0.01-0.02,0.02-0.04,0.03-0.06c0.07-0.15,0.15-0.3,0.23-0.45
			c-0.48,0.71-0.94,1.43-1.36,2.18c-0.57,1.01-1.16,2.19-1.56,3.22V39.7c0.27-0.42,0.56-0.82,0.85-1.23
			c-0.29,0.41-0.57,0.81-0.85,1.23v-2.81c0-4.49,1.89-12.08,7.2-18.7c1.14-1.42,2.54-2.92,4.24-4.33c0.55-0.46,1.19-0.76,1.85-0.89
			c-0.67,0.13-1.32,0.43-1.88,0.9c-1.69,1.41-3.1,2.91-4.24,4.33c-5.31,6.61-7.19,14.21-7.19,18.7v2.81v4.56l0.03-0.02V47.07z"/>
		<path class="st4" d="M18.71,34.25C18.71,34.25,18.71,34.25,18.71,34.25c2.8-6.65,6.97-12.48,12.22-17.02c0,0,0,0,0,0
			C25.69,21.77,21.51,27.59,18.71,34.25z"/>
		<path class="st4" d="M16.38,35.69c0.09-6.06,2.18-12.09,5.73-16.73l-0.05-0.05c-0.01,0.01-0.02,0.03-0.03,0.04l0.01,0.01
			c-3.56,4.64-5.65,10.67-5.73,16.73v9.6l0.07-0.06V35.69z"/>
		<path class="st4" d="M22.13,34.53c0.06-0.08,0.12-0.14,0.17-0.22C22.25,34.39,22.18,34.45,22.13,34.53z"/>
		<path class="st4" d="M63.33,19.47c0.3-2.13,0.01-4.35-0.77-6.33c-1.68-4.23-5.79-6.73-9.91-7.97h4.8V5.17h-4.87
			c4.12,1.24,8.23,3.74,9.91,7.97c0.73,1.87,1.01,3.94,0.79,5.95c-0.01,0.12-0.01,0.25-0.02,0.37L63.33,19.47z"/>
		<path class="st4" d="M53.46,25.73c0.01,0,0.02,0,0.03,0c-1.89-1.41-1.72-4.46,0.12-5.99c0.57-0.47,1.14-0.72,1.69-0.82
			c-0.55,0.1-1.14,0.35-1.71,0.83C51.75,21.28,51.58,24.32,53.46,25.73z"/>
		<path class="st4" d="M53.35,24.28c0.32,0.57,0.94,1.11,2.22,1.16c0.55,0.02,1.08-0.03,1.58-0.15c-0.5,0.12-1.03,0.17-1.58,0.15
			C54.29,25.38,53.67,24.85,53.35,24.28z"/>
		<path class="st4" d="M53.86,21.07c0.37-0.34,0.88-0.57,1.52-0.6C54.73,20.5,54.23,20.73,53.86,21.07z"/>
		<path class="st4" d="M33.76,49.16c0.01-0.01,0.02-0.03,0.03-0.04C33.78,49.13,33.77,49.15,33.76,49.16z"/>
		<path class="st4" d="M355.83,8.39v28.18v0v6.53v4.11v60.47h0.1V47.21V43.1v-6.53v0V8.39c0-2.29-1.7-4.15-3.79-4.15H19.35
			c0,0,0,0,0,0h332.69C354.13,4.25,355.83,6.11,355.83,8.39z"/>
		<path class="st4" d="M46.96,36.96c-2.84,0.82-5.58,2.15-7.99,3.73C41.39,39.11,44.13,37.78,46.96,36.96z"/>
		<path class="st4" d="M36.01,42.82c-0.1,0.08-0.19,0.16-0.29,0.24C35.82,42.98,35.91,42.9,36.01,42.82z"/>
		<path class="st4" d="M50.82,7.59c2.89,0.41,5.31,1.38,7.14,2.85C56.12,8.97,53.71,8,50.82,7.59z"/>
		<path class="st4" d="M33.74,35.06c-1.62,1.19-3.18,2.5-4.65,3.92c0,0,0,0,0,0C30.57,37.56,32.12,36.25,33.74,35.06
			C33.74,35.06,33.74,35.06,33.74,35.06z"/>
		<path class="st4" d="M29.49,38.65c0.01-0.01,0.03-0.02,0.04-0.04c7.46-6.08,13.96-9.19,20.75-10.17
			c-6.79,0.97-13.29,4.09-20.75,10.17C29.52,38.62,29.51,38.64,29.49,38.65z"/>
		<path class="st4" d="M42.84,30.47c3.11-1.21,6.38-1.92,9.68-2.14c0,0,0,0,0,0C49.23,28.55,45.95,29.26,42.84,30.47
			C34,34.04,26.49,41.15,21.43,49.79c-1.09,1.86-2.06,3.81-2.91,5.82c0.86-2.01,1.82-3.95,2.91-5.82
			C26.49,41.15,34,34.04,42.84,30.47z"/>
		<path class="st4" d="M27.82,51.32c0.54-0.71,1.1-1.4,1.66-2.08c0.38-0.45,0.78-0.89,1.18-1.34c-0.4,0.44-0.79,0.89-1.18,1.34
			C28.92,49.91,28.36,50.61,27.82,51.32z"/>
		<path class="st4" d="M56.73,36.47C56.73,36.47,56.73,36.47,56.73,36.47c-0.5-0.02-0.99,0-1.49,0.02
			C55.74,36.46,56.23,36.45,56.73,36.47z"/>
		<path class="st4" d="M49.76,26.08c0.19-0.03,0.39-0.04,0.59-0.07c-0.48-0.93-0.73-2.01-0.71-3.13c0.07-3.01,2.42-6.17,6.2-6.1
			c0.7,0,1.48,0.28,2.08,0.81c0.33,1.11,0.38,1.88,0.39,2.01c0.02,0.01,0.03,0.02,0.03,0.02s-0.03-0.82-0.39-2.04
			c0.22,0.2,0.41,0.44,0.57,0.7c-0.16-0.26-0.35-0.5-0.57-0.7c-0.96-3.2-4.24-9.1-15.49-9.82c0,0,0,0,0,0
			c-0.44-0.03-0.9-0.05-1.36-0.06c0,0,0.78-0.26,2.07-0.52c-1.3,0.26-2.1,0.52-2.1,0.52c0.47,0.01,0.92,0.03,1.36,0.06
			c-3.01,0.49-5.65,1.4-7.96,2.55c2.66,1.49,3.94,4.66,2.59,7.72c-0.24,0.53-0.52,1.02-0.83,1.48c2.58,1.71,3.44,4.83,1.15,7.96
			c-1,1.37-2.25,2.43-3.58,3.38c0.43,0.36,0.77,0.77,1.04,1.19c2.22-1.47,4.35-2.73,8.5-4.22C45.43,27.08,47.58,26.42,49.76,26.08z"
			/>
		<path class="st4" d="M27.49,33.49c0.58-0.49,1.18-0.97,1.78-1.45c0.02-0.01,0.03-0.03,0.05-0.04c0.21-0.17,0.42-0.34,0.64-0.5
			c0.2-0.16,0.4-0.32,0.6-0.48l0.03-0.02c0.21-0.16,0.41-0.33,0.62-0.5l0.02-0.02c0.39-0.32,0.78-0.64,1.16-0.98
			c-0.66,0.46-1.31,0.93-1.94,1.43C29.44,31.72,28.45,32.58,27.49,33.49z"/>
		<path class="st4" d="M35.55,23.35c-2.23,1.27-4.43,2.62-6.48,4.22c-0.64,0.5-1.27,1.02-1.9,1.55c0.63-0.53,1.26-1.05,1.9-1.55
			C31.13,25.97,33.32,24.62,35.55,23.35z"/>
		<path class="st4" d="M50.67,28.2c0.39-0.04,0.78-0.07,1.18-0.09C51.46,28.13,51.07,28.16,50.67,28.2
			c-6.05,0.64-11.75,3.1-16.78,6.74l0,0C38.92,31.3,44.62,28.85,50.67,28.2z"/>
		<path class="st4" d="M55.46,30.34c-3.63-0.08-7.27,0.48-10.7,1.8c-5.13,1.96-9.87,4.72-13.98,8.24c4.11-3.52,8.85-6.28,13.98-8.24
			C48.19,30.82,51.83,30.26,55.46,30.34z"/>
		<path class="st4" d="M20.67,0h330.26c8.86-0.1,9.87,2.45,9.87,9.51V0h-350v9.51C10.8,1.27,13.25,0,20.67,0z"/>
		<path class="st3" d="M24.09,44.38c-1,1.34-1.89,2.72-2.68,4.08c2.18-3.45,4.76-6.67,7.67-9.47
			C27.17,40.62,25.52,42.46,24.09,44.38z"/>
		<path class="st3" d="M24.09,44.38c1.43-1.92,3.08-3.76,4.99-5.39c0,0,0,0,0.01-0.01C27.17,40.61,25.52,42.46,24.09,44.38z"/>
		<path class="st4" d="M36.34,42.55c-0.1,0.08-0.22,0.18-0.33,0.27C36.12,42.73,36.24,42.64,36.34,42.55
			c0.52-0.38,1.37-1.05,1.92-1.4c0.23-0.16,0.47-0.32,0.71-0.47c-0.24,0.16-0.48,0.31-0.71,0.47C37.71,41.5,36.86,42.17,36.34,42.55
			z"/>
		<path class="st4" d="M46.97,36.96c3.23-0.94,6.6-1.23,9.76-0.49c0,0,0,0,0,0C53.56,35.73,50.2,36.02,46.97,36.96z"/>
		<path class="st4" d="M56.73,36.47c-0.5-0.02-0.99,0-1.49,0.02C55.74,36.46,56.23,36.45,56.73,36.47
			C56.73,36.47,56.73,36.47,56.73,36.47z"/>
		<path class="st4" d="M48.12,38.19c2.28-0.91,4.69-1.56,7.12-1.69C52.8,36.63,50.39,37.28,48.12,38.19
			c-5.44,2.2-10.27,6.17-14.32,10.93C37.85,44.35,42.67,40.39,48.12,38.19z"/>
		<path class="st4" d="M30.66,47.9c1.22-1.35,2.51-2.65,3.85-3.82c0.34-0.32,0.78-0.68,1.2-1.02c-0.42,0.34-0.87,0.7-1.2,1.02
			C33.17,45.25,31.88,46.55,30.66,47.9z"/>
		<path class="st4" d="M46.97,36.96c-2.84,0.82-5.58,2.15-7.99,3.73C41.39,39.11,44.13,37.78,46.97,36.96z"/>
		<path class="st4" d="M27.82,51.32c0.54-0.71,1.1-1.4,1.66-2.08c0.38-0.45,0.78-0.89,1.18-1.34c-0.4,0.44-0.79,0.89-1.18,1.34
			C28.92,49.91,28.36,50.61,27.82,51.32z"/>
		<path class="st6" d="M350.93,0H20.67c-7.42,0-9.87,1.26-9.87,9.51v104.9c0,0,1.97-7.54,3.5-13.39v-49.9V8.39
			c0-3.05,2.27-5.53,5.05-5.53h332.79c2.79,0,5.05,2.48,5.05,5.53v0.74c0.01,0.13,0.02,0.25,0.02,0.38v98.17h0.02v6.73h3.57V9.51
			C360.8,2.45,359.79-0.1,350.93,0z"/>
		<path class="st7" d="M22.1,60.55c0.38-0.77,0.76-1.53,1.17-2.28c0.45-0.82,0.92-1.62,1.41-2.42c0.98-1.57,2.03-3.08,3.15-4.53
			c0.54-0.71,1.1-1.4,1.66-2.08c0.38-0.45,0.78-0.89,1.18-1.34c1.22-1.35,2.51-2.65,3.85-3.82c0.34-0.32,0.78-0.68,1.2-1.02
			c0.1-0.08,0.2-0.16,0.29-0.24c0.11-0.09,0.23-0.19,0.33-0.27c0.52-0.38,1.37-1.05,1.92-1.4c0.23-0.16,0.47-0.32,0.71-0.47
			c2.42-1.58,5.16-2.9,7.99-3.73c3.24-0.94,6.6-1.23,9.76-0.49c0,0,0,0,0,0c0,0,0,0,0,0c-0.5-0.02-0.99,0-1.49,0.02
			c-2.44,0.14-4.85,0.79-7.12,1.69c-5.44,2.2-10.27,6.17-14.32,10.93c-0.01,0.01-0.02,0.03-0.03,0.04
			c-0.44,0.52-0.87,1.04-1.29,1.58c-1.36,1.73-2.62,3.54-3.78,5.4c-1.05,1.68-2.02,3.4-2.9,5.13c-2.14,4.33-3.83,8.91-5.16,13.61
			c-0.7,2.48-1.31,4.99-1.82,7.53c-0.18,0.89-0.34,1.78-0.49,2.68c-0.25,1.41-0.47,2.82-0.66,4.23v6.32
			c3.77-10.03,8.18-21.27,10.75-26.08c9.47-17.73,19.41-25.33,32.04-25.96c11.37-0.57,17.75,7.24,16.12,14.62l-0.01,0.02
			c-0.12,0.54-0.27,1.05-0.45,1.51c-0.18,0.46-0.39,0.88-0.61,1.26c-0.17,0.28-0.35,0.55-0.55,0.79c-0.02,0.02-0.03,0.04-0.05,0.06
			c0.02-0.02,0.03-0.04,0.05-0.06c-0.02,0.02-0.03,0.04-0.05,0.06c-0.11,0.14-0.23,0.27-0.35,0.4c-0.21,0.21-0.42,0.4-0.64,0.57
			c-0.11,0.08-0.22,0.16-0.33,0.23c-0.78,0.51-1.62,0.8-2.47,0.88c-0.24,0.03-0.48,0.03-0.72,0.03c-0.36-0.01-0.71-0.06-1.05-0.14
			c-0.23-0.05-0.45-0.12-0.67-0.2c-0.65-0.24-1.24-0.61-1.72-1.09c-0.4-0.4-0.7-0.84-0.93-1.3c-0.09-0.19-0.17-0.37-0.23-0.56
			c-0.1-0.29-0.17-0.58-0.22-0.87c-0.04-0.19-0.06-0.39-0.08-0.58c-0.02-0.19-0.03-0.38-0.03-0.56c0-0.19,0-0.37,0.01-0.55
			c0.02-0.44,0.07-0.85,0.13-1.21c0.08-0.47,0.18-0.84,0.24-1.06c0.01-0.03,0.02-0.06,0.02-0.08c-1.36,2.25-1.34,4.93-0.81,7.5
			c0.06,0.32,0.15,0.63,0.26,0.93c0,0,0,0,0,0c0.12,0.32,0.29,0.62,0.47,0.91c0.09,0.14,0.18,0.29,0.29,0.42c0,0,0,0,0,0
			c0,0,0,0,0,0c0,0,0,0,0,0c0.15,0.19,0.31,0.36,0.48,0.52c0.7,0.64,1.51,1.06,2.37,1.3c2.32,0.64,5.01-0.07,6.87-1.68
			c0.4-0.33,0.76-0.7,1.1-1.09c0,0,0,0,0,0c0.34-0.39,0.65-0.81,0.94-1.25c0.82-1.25,1.45-2.66,1.95-4.09
			c1.53-4.4,1.41-9.28-0.13-13.62c-0.01-0.02-0.4-1.61-0.41-1.62c-3.89-5.47-11.01-8.52-20.01-9.33
			c-10.59-0.95-19.54,1.82-30.46,10.73C23.33,49.84,19.81,56,17.67,61.04v10.81c0.59-2.02,1.29-4,2.06-5.96
			C20.44,64.08,21.23,62.29,22.1,60.55z M61.82,37.11c6.91,0.88,14.27,5.28,15.85,13.24c0.2,1.09,0.28,2.2,0.17,3.29c0,0,0,0,0,0
			c0,0,0,0,0,0c-0.12-1.75-0.57-3.42-1.23-4.97c-0.16-0.38-0.33-0.76-0.52-1.13c-1.4-2.73-3.43-4.8-5.77-6.43
			C67.72,39.31,64.75,38.06,61.82,37.11C61.82,37.11,61.82,37.11,61.82,37.11C61.82,37.11,61.82,37.11,61.82,37.11z"/>
		<path class="st7" d="M35.41,25.97c0.41-0.8,0.75-1.96,0.42-2.78c-0.09,0.05-0.18,0.11-0.27,0.16c-2.23,1.27-4.43,2.62-6.48,4.22
			c-0.64,0.5-1.27,1.02-1.9,1.55c-3.21,2.72-6.19,5.84-8.67,9.35c-0.29,0.41-0.57,0.81-0.85,1.23v7.16c0.4-1.03,0.99-2.21,1.56-3.22
			c0.42-0.75,0.88-1.47,1.36-2.18c0.03-0.07,0.07-0.14,0.1-0.2c1.64-3.08,4-5.42,6.6-7.6c0.06-0.05,0.13-0.11,0.2-0.16
			c0.97-0.91,1.96-1.77,2.96-2.56c0.63-0.5,1.28-0.97,1.94-1.43C33.55,28.46,34.64,27.31,35.41,25.97z M25.75,31.8
			c-0.15,0.14-0.31,0.28-0.46,0.43c-2.2,2.18-4.19,4.55-5.82,7.3c0.63-1.81,1.54-3.48,2.65-4.99c0,0,0,0,0-0.01
			c0.06-0.08,0.12-0.14,0.17-0.22c1.82-2.43,4.12-4.46,6.52-6.07c0.69-0.44,1.41-0.85,2.15-1.2c0.48-0.22,0.96-0.42,1.46-0.55
			c0,0,0,0,0,0c0,0,0,0,0,0C30,27.94,27.83,29.82,25.75,31.8z"/>
		<path class="st7" d="M58.08,21.99c-0.24,0.21-0.51,0.35-0.78,0.41c-0.14,0.03-0.27,0.05-0.4,0.04c-1.06-0.04-1.8-1.15-1.29-1.94
			c-0.07,0-0.13,0.01-0.2,0.02c-0.64,0.03-1.15,0.26-1.52,0.6c-0.53,0.49-0.8,1.2-0.82,1.9c-0.01,0.26,0.03,0.8,0.31,1.31
			c0.32,0.57,0.94,1.11,2.22,1.16c0.55,0.02,1.08-0.03,1.58-0.15c0.98-0.23,1.85-0.74,2.57-1.48c0.01-0.01,0.02-0.02,0.04-0.03
			c0.01-0.01,0.02-0.02,0.03-0.03c0.35-0.37,0.67-0.81,0.94-1.3c0.67-1.2,1-2.61,1.02-4.05c0.02-1.57-0.33-3.19-1.08-4.64
			c-0.66-1.29-1.57-2.39-2.7-3.3c-1.83-1.47-4.25-2.44-7.14-2.85c-1.05-0.15-2.16-0.23-3.32-0.23c-1.79,0-3.46,0.15-5.04,0.4
			c11.25,0.72,14.53,6.62,15.49,9.82c0.22,0.2,0.41,0.44,0.57,0.7c0.25,0.42,0.42,0.91,0.42,1.48
			C58.98,20.83,58.59,21.55,58.08,21.99z"/>
		<path class="st7" d="M79.7,44.79c-0.32-0.81-0.7-1.59-1.12-2.35c-0.13-0.23-0.24-0.48-0.38-0.71c-3.63-5.81-9.83-9.14-16.01-10.63
			c-2.14-0.5-4.33-0.79-6.52-0.84c-3.65-0.09-7.32,0.48-10.77,1.81c-5.16,1.97-9.94,4.75-14.07,8.29c-4.6,3.94-8.39,8.85-11,14.72
			c-0.86,1.92-1.6,3.93-2.19,6.06v0.01C19.8,56.08,23.2,49.7,28.7,45.22C39.7,36.25,49.24,32.85,59.9,33.8
			c9.06,0.81,16.19,6.25,20.11,11.76c0.01,0.02,0.02,0.03,0.03,0.05C79.94,45.33,79.81,45.06,79.7,44.79z"/>
		<path class="st7" d="M59.53,33.26c-10.59-0.95-19.94,3.04-30.86,11.95c-5.47,4.46-8.85,10.79-11,15.83v0v0
			c2.15-5.04,5.66-11.2,11.13-15.66c10.92-8.91,19.87-11.68,30.46-10.73c9,0.8,17.93,4.65,20.38,10.9
			C77.35,39.7,68.52,34.07,59.53,33.26z"/>
		<path class="st9" d="M24.86,18.19c-5.31,6.61-7.2,14.21-7.2,18.7v2.81c0.27-0.42,0.56-0.82,0.85-1.23
			c2.48-3.51,5.46-6.63,8.67-9.35c0.63-0.53,1.26-1.05,1.9-1.55c2.05-1.6,4.24-2.95,6.48-4.22c0.09-0.05,0.18-0.11,0.27-0.16
			c-0.02-0.06-0.04-0.12-0.07-0.17c-0.43-0.67-1.09-1.05-2.16-0.82c-0.51,0.39-1.05,0.75-1.58,1.1c-5.25,3.24-9.77,6.01-12.43,12.26
			c0.03-0.1,0.07-0.19,0.1-0.28c-0.04,0.1-0.09,0.19-0.13,0.29c1.55-4.76,4.35-8.09,8.02-11.04c1.93-1.67,4.13-2.99,5.84-4.93
			c1.24-1.4,2.33-3.53,1.31-5.13c-0.38-0.59-0.91-0.99-1.57-1.26c-0.06-0.03-0.13-0.05-0.2-0.08c-0.65-0.24-1.34-0.29-2.01-0.16
			c-0.66,0.13-1.3,0.43-1.85,0.89C27.41,15.27,26,16.77,24.86,18.19z M30.94,17.22c-5.25,4.55-9.43,10.37-12.22,17.03c0,0,0,0,0,0
			c0,0,0,0,0,0C20.4,27.09,24.98,20.71,30.94,17.22C30.94,17.22,30.94,17.22,30.94,17.22C30.94,17.22,30.94,17.22,30.94,17.22z"/>
		<path class="st9" d="M27.18,29.12c-3.21,2.72-6.19,5.84-8.67,9.35C20.99,34.96,23.97,31.84,27.18,29.12z"/>
		<path class="st9" d="M35.83,23.19c-0.09,0.05-0.18,0.11-0.27,0.16C35.65,23.29,35.74,23.24,35.83,23.19L35.83,23.19z"/>
		<path class="st5" d="M42.46,7.76C42.46,7.76,42.46,7.76,42.46,7.76C42.46,7.76,42.46,7.76,42.46,7.76c1.58-0.26,3.26-0.4,5.04-0.4
			c1.17,0,2.27,0.08,3.32,0.23c2.89,0.41,5.31,1.38,7.14,2.85c1.13,0.91,2.05,2.02,2.71,3.3c0.74,1.45,1.1,3.07,1.08,4.64
			c-0.02,1.45-0.35,2.86-1.02,4.05c-0.27,0.49-0.59,0.92-0.94,1.3c-0.01,0.01-0.02,0.02-0.03,0.03c-0.01,0.01-0.02,0.02-0.04,0.03
			c-0.72,0.74-1.59,1.25-2.57,1.48c-0.5,0.12-1.03,0.17-1.58,0.15c-1.27-0.05-1.9-0.58-2.22-1.16c-0.28-0.51-0.32-1.05-0.31-1.31
			c0.02-0.69,0.29-1.41,0.82-1.9c0.37-0.35,0.88-0.57,1.52-0.6c0.07,0,0.13-0.02,0.2-0.02c-0.52,0.79,0.22,1.9,1.29,1.94
			c0.13,0.01,0.27-0.01,0.4-0.04c0.27-0.06,0.54-0.21,0.78-0.41c0.51-0.43,0.89-1.16,0.89-2.17c0-0.57-0.17-1.06-0.42-1.48
			c-0.16-0.26-0.35-0.5-0.57-0.7c0.36,1.21,0.39,2.04,0.39,2.04s-0.01-0.01-0.03-0.02c0,0.01,0,0.03,0,0.03s-1.37-1-3.02-0.71
			c-0.55,0.1-1.12,0.35-1.69,0.82c-1.83,1.53-2.01,4.58-0.12,5.99c1.67-0.07,3.38-0.01,5.09,0.18c1.44-0.68,2.76-2.03,3.52-4.33
			c1.11-3.38,0.97-9.79-5.98-13.18c-4.78-2.33-10.1-1.78-12.96-1.21c-1.29,0.26-2.07,0.52-2.07,0.52
			C41.56,7.71,42.01,7.73,42.46,7.76z"/>
		<path class="st5" d="M50.82,7.59c-1.05-0.15-2.16-0.23-3.32-0.23c-1.78,0-3.46,0.15-5.04,0.4c0,0,0,0,0,0
			c1.58-0.26,3.25-0.4,5.04-0.4C48.66,7.36,49.77,7.44,50.82,7.59z"/>
		<path class="st5" d="M53.86,21.07c-0.53,0.49-0.8,1.2-0.82,1.9c-0.01,0.26,0.03,0.8,0.31,1.31c-0.28-0.51-0.32-1.05-0.31-1.31
			C53.06,22.28,53.33,21.56,53.86,21.07z"/>
		<path class="st5" d="M56.86,22.39c0.13,0.01,0.27-0.01,0.4-0.04C57.12,22.38,56.99,22.4,56.86,22.39
			c-1.06-0.04-1.8-1.15-1.28-1.94c-0.07,0-0.13,0.01-0.2,0.02c0.07,0,0.13-0.02,0.2-0.02C55.06,21.24,55.8,22.35,56.86,22.39z"/>
		<path class="st5" d="M17.67,61.03c0.59-2.11,1.33-4.11,2.18-6.02c2.6-5.83,6.37-10.71,10.93-14.62c4.11-3.52,8.85-6.28,13.98-8.24
			c3.43-1.32,7.07-1.89,10.7-1.8c2.18,0.05,4.36,0.34,6.48,0.83c6.14,1.48,12.3,4.79,15.91,10.57c0.14,0.23,0.25,0.47,0.38,0.7
			c0.42,0.75,0.79,1.53,1.11,2.34c0.11,0.27,0.24,0.54,0.34,0.82c0,0,0,0,0,0c0,0,0,0,0,0c0.08,0.12,0.15,0.24,0.23,0.36
			c0.49,0.72,0.91,1.45,1.27,2.19c0.06,0.12,0.13,0.25,0.19,0.37c0.5,1.11,0.93,2.27,1.3,3.46v0c-0.04-1.06-0.16-2.1-0.33-3.14
			c-0.08-0.52-0.16-1.04-0.27-1.55l0-0.02c-0.02-0.08-0.04-0.17-0.06-0.25c-0.03-0.13-0.06-0.25-0.09-0.38l-0.01-0.02l0-0.02
			c-0.05-0.2-0.1-0.4-0.15-0.6c-0.01-0.02-0.01-0.05-0.02-0.07c-0.05-0.19-0.1-0.38-0.16-0.57c-0.01-0.04-0.02-0.07-0.03-0.11
			c-0.02-0.08-0.05-0.15-0.07-0.23c-0.03-0.1-0.06-0.2-0.09-0.3c-0.01-0.03-0.02-0.06-0.03-0.09c-0.01-0.02-0.01-0.04-0.02-0.06
			c-0.02-0.06-0.04-0.13-0.06-0.19c-0.03-0.1-0.06-0.19-0.09-0.29c-0.01-0.04-0.03-0.08-0.04-0.11c-0.01-0.03-0.02-0.06-0.03-0.08
			c-0.01-0.02-0.01-0.03-0.02-0.05c-0.04-0.13-0.09-0.25-0.13-0.38c-0.03-0.09-0.07-0.17-0.1-0.26c-0.05-0.12-0.09-0.24-0.14-0.36
			c-0.05-0.12-0.09-0.23-0.14-0.34c-0.04-0.09-0.07-0.18-0.11-0.26c-0.05-0.12-0.1-0.24-0.16-0.36c-0.04-0.08-0.07-0.16-0.1-0.24
			c-0.11-0.25-0.23-0.5-0.36-0.75c-0.03-0.05-0.06-0.11-0.09-0.16c-0.04-0.07-0.08-0.14-0.11-0.21c-0.12-0.21-0.25-0.42-0.38-0.64
			c-0.1-0.16-0.18-0.32-0.29-0.48c-0.14-0.21-0.3-0.41-0.45-0.62c-0.2-0.28-0.38-0.56-0.6-0.83c-0.19-0.24-0.39-0.47-0.59-0.71
			c-0.2-0.23-0.41-0.47-0.63-0.69c-0.13-0.14-0.26-0.27-0.4-0.4c-0.09-0.09-0.18-0.19-0.27-0.28c-1.84-1.79-4.1-3.39-6.67-4.67
			c-0.22-0.11-0.45-0.21-0.68-0.31c-0.3-0.14-0.6-0.28-0.9-0.41c-0.31-0.13-0.63-0.25-0.94-0.37c-0.24-0.09-0.47-0.19-0.71-0.27
			c-0.56-0.2-1.14-0.38-1.72-0.55c-0.12-0.03-0.24-0.06-0.35-0.09c-0.18-0.05-0.35-0.1-0.53-0.14c-0.59-0.15-1.2-0.28-1.81-0.4
			c-0.76-0.14-1.53-0.25-2.31-0.33c-0.05,0.02-0.1,0.05-0.16,0.08c0.18,0.03,0.37,0.05,0.55,0.08c1,0.17,2,0.38,2.99,0.64
			c0.66,0.18,1.31,0.37,1.96,0.59c0.64,0.22,1.27,0.46,1.89,0.74c0.01,0,0.02,0.01,0.03,0.01l-0.01,0.02l-0.02,0.05
			c-2.47-1-5.04-1.66-7.66-2c-1.1,0.44-2.3,0.65-3.57,0.6c-1.21-0.05-2.16-0.37-2.89-0.8c-3.3,0.22-6.58,0.94-9.68,2.14
			C34,34.04,26.49,41.15,21.43,49.79c-1.09,1.86-2.06,3.81-2.91,5.82c-0.56,1.32-1.09,2.66-1.53,4.03
			c-0.21,0.67-0.42,1.36-0.58,2.03v2.62c0.14-0.4,0.3-0.82,0.46-1.25c0.06-0.16,0.12-0.31,0.18-0.47
			C17.24,62.07,17.44,61.56,17.67,61.03L17.67,61.03z"/>
		<path class="st5" d="M30.78,40.39c-4.57,3.92-8.33,8.79-10.93,14.62C22.45,49.18,26.21,44.3,30.78,40.39z"/>
		<path class="st5" d="M52.53,28.32c0.73,0.42,1.68,0.75,2.89,0.8c1.26,0.05,2.46-0.16,3.57-0.6
			C56.85,28.24,54.68,28.18,52.53,28.32z"/>
		<path class="st5" d="M351.97,4.24H19.28c-2.09,0-3.78,1.86-3.78,4.14v37.51l0.74-0.61v-9.6c0.09-6.06,2.18-12.09,5.73-16.73
			l-0.01-0.01c-1,1.16-1.86,2.46-2.64,3.81c-1.33,2.33-2.36,4.87-3.02,7.52v-0.25c-0.02,0.08-0.05,0.16-0.07,0.24v-0.28c0,0,0,0,0,0
			V8.37c0.01-1.77,1.32-3.21,2.95-3.21h22.14c-0.01,0-0.02,0-0.03,0.01h0.1c-0.42,0.11-0.88,0.22-1.11,0.28
			c-0.3,0.1-0.9,0.29-1.21,0.38c-3.38,1.14-6.66,2.84-9.36,5.35l0.01,0.02c1.28-1.12,2.71-2.02,4.18-2.79
			c1.86-0.97,3.82-1.73,5.82-2.24L40.34,6l0.61-0.13l1.21-0.25l1.22-0.18c0.7-0.12,1.74-0.18,2.45-0.24
			c0.15-0.02,0.46-0.03,0.61-0.03c0.21,0,0.6-0.01,0.97-0.01v0c0.02,0,0.04,0,0.07,0c0,0,0,0,0,0v0c0.46,0,0.92,0.03,1.39,0.07
			c0.49,0.05,0.98,0.11,1.47,0.19c3.76,0.65,7.62,2.15,10.3,5.21c1.89,2.25,2.8,5.4,2.57,8.44c0.21-2.01-0.06-4.09-0.79-5.95
			c-1.68-4.23-5.79-6.73-9.91-7.97h4.87v0.01h0.07v0c0.15,0,0.29-0.01,0.44-0.01h2.87c1.17,0.03,2.35,0.1,3.52,0.23
			c1.19,0.13,2.38,0.32,3.54,0.58c0.84,0.21,1.68,0.46,2.47,0.84c2.57,1.15,3.91,4.09,2.47,6.87c0.96-1.67,0.88-3.89-0.29-5.43
			c-1.1-1.58-2.92-2.26-4.61-2.76c-0.45-0.12-0.9-0.23-1.35-0.33h27.84c-0.01,0-0.02,0.01-0.03,0.01h0.1
			c-5.47,1.3-10.67,3.97-15.2,7.53c4.17-2.87,8.77-5.04,13.53-6.37c3.84-1.1,7.73-1.33,11.61-1.02c6.44,0.51,12.86,2.52,19.01,4.53
			c4.31,1.43,10.47,3.62,14.84,4.72c-5.89-1.98-11.63-4.41-17.52-6.4c-3.56-1.2-7.19-2.28-10.88-3h69.08
			c-0.01,0-0.02,0.01-0.03,0.01h0.1c-5.8,1.34-11.61,3.97-16.62,6.8l0.01,0.03c1.81-0.97,3.66-1.83,5.54-2.63
			c5.65-2.34,11.61-4.23,17.69-4.19v0c0.98,0,1.97,0.04,2.97,0.14c6.93,0.64,14.22,3.51,20.33,6.69l0.02-0.04
			c-1.8-1.05-3.65-1.98-5.53-2.85c-1.88-0.87-3.79-1.66-5.73-2.35c-1.76-0.62-3.55-1.17-5.35-1.59h69.07
			c-0.01,0-0.02,0.01-0.03,0.01h0.1c-3.68,0.71-7.31,1.8-10.88,3c-5.84,1.98-11.54,4.38-17.38,6.35c4.39-1.12,10.44-3.27,14.7-4.69
			c8-2.6,16.45-5.23,24.82-4.54c1.94,0.16,3.87,0.49,5.8,1.04c4.82,1.34,9.47,3.55,13.68,6.47c-4.57-3.61-9.82-6.32-15.35-7.64
			h27.84c-0.01,0-0.02,0.01-0.03,0.01h0.1c-0.45,0.1-0.9,0.21-1.35,0.33c-1.28,0.38-2.58,0.85-3.66,1.72
			c-1.9,1.6-2.5,4.18-1.24,6.46l0,0c-0.43-0.82-0.64-1.79-0.58-2.72c0.13-1.9,1.48-3.45,3.05-4.15c0.79-0.37,1.62-0.63,2.47-0.84
			c2.29-0.53,4.64-0.75,6.99-0.81h2.87c0.17,0.01,0.34,0.01,0.51,0.01V5.16h4.86c-0.01,0-0.01,0.01-0.02,0.01h0.09
			c-3.15,0.94-6.16,2.59-8.32,5.22c-1.89,2.4-2.73,5.7-2.37,8.83c-0.22-2.56,0.36-5.21,1.67-7.34c2.43-3.87,7.1-5.75,11.19-6.45
			c0.94-0.15,1.91-0.25,2.85-0.26v0c0.38,0,0.76,0.01,0.97,0.01c0.15,0,0.46,0.01,0.62,0.03c0.36,0.03,0.81,0.06,1.26,0.1
			c0.45,0.04,0.9,0.08,1.26,0.14l1.22,0.18c0.4,0.08,1.44,0.3,1.82,0.38c3.78,0.96,7.52,2.56,10.6,5.19l0.02-0.02
			c-1.26-1.2-2.68-2.17-4.15-3.03c-2.03-1.17-4.2-2.06-6.42-2.71c-0.23-0.06-0.69-0.18-1.11-0.28h22.14c0.02,0,0.04,0.01,0.07,0.01
			h0c1.62,0,2.95,1.45,2.95,3.22v21.89c-0.02-0.09-0.05-0.17-0.07-0.25v0.25c-1.03-4.2-2.98-8.13-5.65-11.33l-0.01,0.01
			c0.48,0.6,0.92,1.25,1.34,1.9c2.68,4.29,4.29,9.42,4.4,14.63v11.16v12.94c-0.65-1.84-1.41-3.63-2.26-5.37
			c1.9,4.6,2.61,8.12,2.61,8.12v2.89c0.03,0.09,0.07,0.19,0.1,0.28v42.17h0.32V47.2v-4.11v-6.53v0V8.38
			C355.76,6.1,354.06,4.24,351.97,4.24z"/>
		<path class="st5" d="M19.42,22.71c-1.29,2.25-2.29,4.71-2.95,7.28v0.25c0.66-2.65,1.68-5.19,3.02-7.52
			c0.78-1.35,1.64-2.65,2.64-3.81l-0.04-0.04C21.07,20.03,20.2,21.34,19.42,22.71z"/>
		<polygon class="st5" points="47.56,5.18 47.56,5.18 47.56,5.18 		"/>
		<path class="st5" d="M39.01,5.82c-3.38,1.14-6.66,2.84-9.36,5.35l0.04,0.05c0.01-0.01,0.03-0.02,0.04-0.03l-0.01-0.02
			c2.7-2.51,5.99-4.21,9.36-5.35c0.3-0.1,0.9-0.29,1.21-0.38c0.23-0.06,0.69-0.18,1.11-0.28h-0.1c-0.41,0.11-0.86,0.22-1.08,0.28
			C39.91,5.54,39.31,5.73,39.01,5.82z"/>
		<path class="st5" d="M60.65,10.64c1.97,2.34,2.89,5.66,2.55,8.81l0.06,0.01c0.02-0.13,0.01-0.25,0.03-0.38
			c0.23-3.04-0.68-6.19-2.57-8.44c-2.68-3.06-6.55-4.56-10.3-5.21c-0.48-0.08-0.97-0.14-1.47-0.19c0.47,0.04,0.94,0.11,1.4,0.18
			C54.1,6.08,57.97,7.58,60.65,10.64z"/>
		<path class="st5" d="M52.14,28.08c-0.1,0.01-0.19,0.02-0.29,0.02c-0.39,0.03-0.78,0.05-1.18,0.09c-6.05,0.65-11.75,3.1-16.78,6.74
			l-0.15,0.13c0,0,0-0.01,0-0.01c-1.62,1.19-3.17,2.5-4.64,3.92c0.13-0.11,0.26-0.22,0.39-0.33c0.01-0.01,0.03-0.02,0.04-0.04
			c7.46-6.08,13.96-9.19,20.75-10.17c0.69-0.1,1.38-0.17,2.07-0.22C52.28,28.17,52.21,28.13,52.14,28.08z"/>
		<path class="st5" d="M52.14,28.08c-0.1,0.01-0.19,0.02-0.29,0.02C51.95,28.1,52.04,28.09,52.14,28.08
			C52.14,28.08,52.14,28.08,52.14,28.08z"/>
		<path class="st5" d="M33.74,35.07l0.15-0.13c-0.05,0.04-0.1,0.08-0.15,0.12C33.74,35.07,33.74,35.07,33.74,35.07z"/>
		<path class="st5" d="M52.14,28.08c0.07,0.05,0.15,0.09,0.22,0.14c1.59-0.13,3.2-0.15,4.85-0.07c-0.12-0.01-0.25-0.01-0.37-0.02
			C55.27,28,53.7,27.99,52.14,28.08z"/>
		<path class="st5" d="M56.83,28.13c-1.56-0.12-3.13-0.14-4.69-0.04c0,0,0,0,0,0C53.7,27.99,55.27,28,56.83,28.13z"/>
		<path class="st5" d="M16.4,61.67c0.16-0.67,0.37-1.36,0.58-2.03c0.44-1.37,0.97-2.71,1.53-4.03c0.86-2.01,1.82-3.95,2.91-5.82
			C26.49,41.15,34,34.04,42.85,30.47c3.11-1.21,6.38-1.92,9.68-2.14c-0.06-0.03-0.12-0.07-0.17-0.1c-0.69,0.06-1.39,0.13-2.07,0.22
			c-6.79,0.97-13.29,4.09-20.75,10.17c-0.01,0.01-0.03,0.02-0.04,0.04c-0.14,0.11-0.27,0.22-0.4,0.34c0,0,0.01-0.01,0.01-0.01
			c0,0,0,0,0,0c0,0,0,0-0.01,0.01c0,0,0,0-0.01,0.01c-2.91,2.81-5.49,6.02-7.67,9.47c-4.07,7.07-5.43,13.88-5.43,13.88v3.1
			c0.13-0.39,0.27-0.8,0.42-1.23V61.67z"/>
		<polygon class="st5" points="29.08,38.99 29.09,38.99 29.1,38.98 29.09,38.99 		"/>
		<path class="st5" d="M58.99,28.52c0.09-0.04,0.17-0.08,0.26-0.12c-0.68-0.1-1.36-0.19-2.04-0.25c0.01,0,0.01,0,0.02,0
			c0,0-0.01,0-0.01,0c0,0,0,0,0,0c0,0,0,0,0,0c0,0,0,0,0,0c0,0,0,0,0.01,0c-1.65-0.08-3.26-0.06-4.85,0.07
			c0.06,0.04,0.11,0.07,0.17,0.1C54.68,28.18,56.85,28.24,58.99,28.52z"/>
		<path class="st5" d="M29.09,38.99c0.13-0.11,0.27-0.23,0.4-0.34C29.36,38.76,29.23,38.87,29.09,38.99
			C29.1,38.98,29.09,38.98,29.09,38.99z"/>
		<path class="st5" d="M50.28,28.44c0.69-0.1,1.38-0.17,2.07-0.22c0,0,0,0,0,0C51.66,28.28,50.97,28.34,50.28,28.44z"/>
		<path class="st5" d="M57.21,28.15C57.21,28.15,57.21,28.15,57.21,28.15c-1.66-0.08-3.26-0.06-4.85,0.07c0,0,0,0,0,0
			C53.95,28.09,55.56,28.07,57.21,28.15z"/>
		<path class="st5" d="M20.85,49.31c-1.77,2.96-3.28,6.11-4.44,9.41v-9.34l0,0v9.41c1.16-3.3,2.67-6.46,4.44-9.41
			c0.06-0.11,0.13-0.21,0.2-0.32c0.12-0.22,0.24-0.44,0.37-0.66C21.22,48.7,21.03,49,20.85,49.31z"/>
		<polygon class="st5" points="16.4,45.28 16.4,45.21 16.38,45.23 16.38,49.4 16.4,49.38 16.4,45.28 		"/>
		
			<rect x="16.4" y="45.28" transform="matrix(0.7071 -0.7071 0.7071 0.7071 -28.6607 25.4605)" class="st5" width="0" height="4.1"/>
		<polygon class="st5" points="16.31,45.29 15.56,45.9 15.56,49.76 15.56,50.01 16.31,49.39 		"/>
		<polygon class="st5" points="15.56,49.76 15.56,45.9 15.56,45.9 15.56,49.69 15.56,50.01 15.56,50.01 		"/>
		<path class="st5" d="M15.56,96.19c0.29-1.11,0.57-2.19,0.84-3.23v-1.32c0.34-11.97,4.16-23.94,9.57-34.29l-0.03-0.02
			c-0.74,1.28-1.42,2.61-2.08,3.95c-0.65,1.34-1.27,2.7-1.86,4.07c-2.51,5.92-4.51,12.15-5.6,18.57v-0.07c0,0,0,0,0,0V64.29
			c-0.15,0.43-0.29,0.84-0.42,1.23v-0.07c0,0,0,0,0,0v-3.17c0,0,1.28-6.39,5.06-13.22c-0.07,0.11-0.13,0.21-0.2,0.32
			c-1.77,2.96-3.28,6.11-4.44,9.41v-9.41l-0.03,0.02v-4.17l-0.07,0.06v4.1l-0.74,0.61v0.08V96.19z"/>
		<polygon class="st5" points="15.56,96.19 15.56,50.09 15.56,50.01 15.56,50.01 15.56,96.19 		"/>
		<path class="st8" d="M18.71,34.25c2.8-6.65,6.97-12.48,12.22-17.02C24.98,20.71,20.4,27.09,18.71,34.25z"/>
		<path class="st8" d="M18.71,34.25C18.71,34.25,18.71,34.25,18.71,34.25c1.69-7.16,6.27-13.54,12.22-17.03c0,0,0,0,0,0
			C24.98,20.71,20.4,27.09,18.71,34.25z"/>
		<path class="st8" d="M30.98,27.04c-0.74,0.34-1.46,0.76-2.15,1.2c-2.4,1.61-4.7,3.65-6.52,6.07c-0.06,0.07-0.12,0.14-0.17,0.22
			c0,0,0,0,0,0.01c-1.1,1.51-2.02,3.18-2.65,4.99c1.63-2.74,3.62-5.11,5.82-7.3c0.15-0.14,0.31-0.28,0.46-0.43
			c2.08-1.98,4.25-3.86,6.68-5.31C31.94,26.62,31.45,26.82,30.98,27.04z"/>
		<path class="st8" d="M22.12,34.53C22.13,34.53,22.13,34.53,22.12,34.53C22.13,34.53,22.13,34.53,22.12,34.53z"/>
		<path class="st8" d="M28.83,28.24c0.69-0.44,1.41-0.85,2.15-1.2C30.23,27.38,29.52,27.8,28.83,28.24c-2.4,1.61-4.7,3.65-6.52,6.07
			C24.12,31.88,26.42,29.85,28.83,28.24z"/>
		<path class="st8" d="M25.75,31.8c2.08-1.98,4.25-3.86,6.69-5.32c0,0,0,0,0,0C30,27.94,27.83,29.82,25.75,31.8z"/>
		<path class="st8" d="M24.09,44.38c1.43-1.92,3.08-3.77,5-5.39c0,0,0,0-0.01,0.01c0,0,0,0,0,0c0,0,0,0,0.01-0.01
			c0,0,0.01,0,0.01-0.01c1.47-1.42,3.02-2.73,4.65-3.92c0-0.51-0.13-1.01-0.43-1.45l0,0c-0.05-0.08-0.11-0.16-0.18-0.23l-0.02-0.02
			c-0.03-0.03-0.06-0.06-0.09-0.09c-0.22,0.15-0.45,0.3-0.69,0.46c-1.41,0.93-2.72,2.01-4.01,3.14c-4.41,3.81-8.05,8.65-10.67,14.08
			v-3.88v-2.84l-0.03,0.02v2.6v1.5l-1.24,1.02v9.34c1.16-3.31,2.67-6.46,4.44-9.41c0.18-0.31,0.37-0.61,0.56-0.91
			c-0.13,0.22-0.24,0.44-0.37,0.66c0.12-0.2,0.24-0.4,0.37-0.59C22.2,47.09,23.09,45.72,24.09,44.38z"/>
		<path class="st8" d="M33.9,34.94c5.03-3.65,10.72-6.1,16.78-6.74c0.39-0.04,0.78-0.07,1.18-0.09c0.1-0.01,0.19-0.02,0.29-0.02
			c-0.45-0.31-0.81-0.66-1.08-0.98c-0.28-0.33-0.51-0.71-0.71-1.1c-0.19,0.03-0.4,0.04-0.59,0.07c-2.18,0.34-4.33,1-6.43,1.76
			c-4.15,1.49-6.28,2.75-8.5,4.22c0.32,0.49,0.55,1.01,0.67,1.56L33.9,34.94z"/>
		<path class="st8" d="M55.38,26.46c0.59,0.06,1.23,0.04,1.87-0.1c-0.63,0.13-1.26,0.15-1.84,0.09c-0.79-0.09-1.42-0.35-1.92-0.72
			c-0.01,0-0.02,0-0.03,0C53.96,26.11,54.59,26.37,55.38,26.46z"/>
		<path class="st8" d="M57.26,26.36c0.44-0.09,0.89-0.24,1.33-0.45c-1.72-0.19-3.42-0.25-5.09-0.18c0.5,0.37,1.13,0.64,1.92,0.72
			C56,26.51,56.62,26.49,57.26,26.36z"/>
		<path class="st8" d="M53.58,19.75c0.58-0.48,1.16-0.73,1.71-0.83c1.52-0.29,2.81,0.54,3.01,0.68c-0.01-0.13-0.06-0.9-0.39-2.01
			c-0.6-0.53-1.38-0.81-2.08-0.81c-3.78-0.08-6.12,3.09-6.2,6.1c-0.03,1.13,0.23,2.2,0.71,3.13c1.02-0.14,2.05-0.23,3.11-0.28
			C51.58,24.32,51.75,21.28,53.58,19.75z"/>
		<path class="st8" d="M58.99,28.52C58.99,28.52,58.99,28.52,58.99,28.52c-2.14-0.28-4.3-0.35-6.46-0.2c0,0,0,0,0,0
			C54.68,28.18,56.85,28.24,58.99,28.52z"/>
		<path class="st8" d="M22.04,18.95c-3.56,4.64-5.65,10.67-5.73,16.73v9.54l0.03-0.02v0.07l1.24-1.02v-4.56v-2.81
			c0-4.49,1.88-12.08,7.19-18.7c1.14-1.42,2.55-2.92,4.24-4.33c0.56-0.46,1.2-0.77,1.88-0.9c0.67-0.13,1.37-0.09,2.03,0.15
			c0.07,0.02,0.13,0.05,0.2,0.08c0.66,0.28,1.18,0.67,1.57,1.26c1.02,1.6-0.07,3.73-1.31,5.13c-1.71,1.95-3.91,3.26-5.84,4.93
			c-3.59,2.89-6.35,6.15-7.91,10.76c2.68-6.04,7.14-8.79,12.3-11.97c0.54-0.35,1.07-0.71,1.59-1.1c0.01,0,0.02,0,0.02,0c0,0,0,0,0,0
			c1.09-0.24,1.75,0.14,2.18,0.81c0,0,0,0,0,0.01c0,0,0,0,0-0.01c0.03,0.05,0.05,0.1,0.07,0.15c0,0,0,0,0,0l0,0c0,0-0.01,0-0.01,0
			c0.34,0.82,0,1.98-0.41,2.79c-0.75,1.32-1.81,2.44-2.95,3.46c0.01,0,0.01-0.01,0.02-0.01c-0.01,0.01-0.03,0.02-0.04,0.03
			c-0.4,0.36-0.81,0.7-1.21,1.03c0.41-0.33,0.82-0.68,1.21-1.03c0.01-0.01,0.01-0.01,0.02-0.02c-0.04,0.03-0.07,0.05-0.11,0.08
			c-0.38,0.34-0.77,0.66-1.16,0.98l-0.02,0.02c-0.21,0.17-0.42,0.34-0.62,0.5l-0.03,0.02c-0.2,0.16-0.4,0.32-0.6,0.48
			c-0.21,0.17-0.42,0.34-0.64,0.5c-0.02,0.01-0.04,0.03-0.05,0.04c-0.6,0.48-1.19,0.96-1.78,1.45c-0.06,0.05-0.11,0.1-0.17,0.15h0
			c-2.6,2.18-4.96,4.52-6.6,7.6c-0.05,0.07-0.09,0.14-0.13,0.21c-0.08,0.15-0.15,0.3-0.23,0.45c-0.01,0.02-0.02,0.04-0.03,0.06
			c-0.11,0.23-0.21,0.45-0.31,0.69l-0.01,0.02c-0.09,0.21-0.18,0.42-0.26,0.64c-0.02,0.05-0.04,0.11-0.06,0.16
			c-0.08,0.23-0.17,0.46-0.24,0.7c2.36-5.52,6.77-8.27,11.33-11.32c0.96-0.64,1.78-0.05,2.14,0.29c0.04,0.04,0.08,0.07,0.11,0.11
			c0,0,0,0,0,0c0.63-0.42,1.22-0.82,1.81-1.21c-0.28-0.42-0.62-0.83-1.04-1.19c1.33-0.95,2.58-2.01,3.58-3.38
			c2.29-3.13,1.44-6.25-1.15-7.96c0.32-0.45,0.6-0.94,0.83-1.48c1.35-3.07,0.07-6.23-2.59-7.72c2.31-1.15,4.95-2.06,7.96-2.55
			C41.92,7.73,41.46,7.71,41,7.7c0,0,0.79-0.26,2.1-0.52c2.85-0.57,8.2-1.13,12.99,1.21c6.95,3.39,7.09,9.8,5.98,13.18
			c-0.76,2.31-2.09,3.66-3.54,4.34c1.14,0.13,2.28,0.31,3.42,0.56c0.58-0.61,1.1-1.31,1.55-2.11c2.02-3.62,2.02-8.5,0-12.42
			c-0.22-0.43-0.5-0.91-0.84-1.41c0.98-1.13,2.65-2.45,5.1-2.37c4.25,0.14,4.54,2.54,2.99,6.02c-1.23,2.77,0.9,5.38,8.3,0.74
			C87.09,9.88,90.51,6.95,101.83,7c9.02,0.04,22.04,4.58,32.07,7.96c10.04,3.38,18.53,4.37,28.44-1.13
			c9.91-5.49,23.3-0.91,23.3-0.91s13.39-4.58,23.3,0.91c9.91,5.49,18.4,4.51,28.44,1.13c10.04-3.38,23.05-7.92,32.07-7.96
			c11.32-0.05,14.74,2.89,22.78,7.92c7.41,4.64,9.53,2.03,8.3-0.74c-1.54-3.48-1.26-5.88,2.99-6.02c2.45-0.08,4.12,1.24,5.1,2.37
			c-0.34,0.5-0.61,0.97-0.84,1.41c-2.01,3.92-2.01,8.8,0,12.42c0.61,1.1,1.38,2.02,2.25,2.76c-8.72,1.67-17.14,6.68-21.09,15.1
			c-2.07,4.39-2.93,9.6-2.18,14.52c0.63,4.11,2.19,8.13,4.78,11.23c2.74,3.28,6.99,4.99,11.06,4.1c3.91-0.85,6.87-3.94,7.16-8.45
			c0.14-2.28-0.46-4.77-2.13-6.25c-0.31-0.28-0.65-0.52-1.02-0.7c0.01,0.02,0.03,0.03,0.04,0.05c0.07,0.09,0.15,0.18,0.21,0.28
			c0.02,0.03,0.05,0.07,0.07,0.1c0.08,0.12,0.16,0.24,0.24,0.36c0.02,0.03,0.03,0.05,0.05,0.08c0.06,0.1,0.12,0.2,0.17,0.31
			c0.02,0.04,0.05,0.09,0.07,0.13c0.05,0.1,0.1,0.21,0.15,0.31c0.01,0.03,0.03,0.06,0.04,0.09c0.06,0.13,0.1,0.25,0.15,0.38
			c0.02,0.05,0.04,0.11,0.06,0.16c0.03,0.09,0.06,0.18,0.09,0.26c0.02,0.06,0.03,0.11,0.05,0.17c0.03,0.13,0.07,0.25,0.09,0.38
			c0.02,0.07,0.03,0.13,0.04,0.2c0.02,0.07,0.03,0.15,0.04,0.22c0.01,0.07,0.03,0.15,0.04,0.22c0.01,0.07,0.02,0.14,0.03,0.21
			c0.02,0.14,0.03,0.28,0.04,0.42c0,0.05,0.01,0.11,0.01,0.16c0,0.09,0.01,0.18,0.01,0.27c0,0.04,0,0.09,0,0.13
			c0,0.32-0.02,0.63-0.05,0.95c0,0,0,0,0,0c-0.01,0.23-0.01,0.46-0.04,0.69c0,0.03-0.01,0.05-0.01,0.08c-0.04,0.33-0.1,0.67-0.18,1
			l0,0.02c-0.03,0.11-0.06,0.22-0.09,0.33c-0.01,0.04-0.03,0.08-0.04,0.13c-0.02,0.07-0.04,0.13-0.06,0.2
			c-0.02,0.05-0.03,0.1-0.05,0.15c-0.02,0.06-0.04,0.11-0.06,0.17c-0.02,0.05-0.04,0.1-0.06,0.16c-0.02,0.05-0.04,0.1-0.07,0.16
			c-0.02,0.05-0.05,0.11-0.07,0.16c-0.02,0.05-0.05,0.1-0.07,0.15c-0.06,0.13-0.13,0.27-0.2,0.4l-0.02,0.04
			c-0.03,0.05-0.06,0.11-0.09,0.16c-0.02,0.04-0.04,0.07-0.06,0.11v0c-0.51,0.85-1.19,1.63-2.03,2.26v0l-0.03,0.02
			c-0.12,0.09-0.25,0.19-0.38,0.27l-0.01,0.01c-0.14,0.09-0.27,0.18-0.42,0.26c-0.04,0.02-0.07,0.04-0.11,0.06
			c-0.11,0.06-0.23,0.13-0.34,0.19c-0.16,0.08-0.33,0.16-0.5,0.23c-0.05,0.02-0.1,0.04-0.15,0.06l-0.04,0.01
			c-0.05,0.02-0.1,0.04-0.16,0.06l-0.01,0c-0.05,0.02-0.11,0.03-0.17,0.05l-0.04,0.01c-0.06,0.02-0.12,0.03-0.18,0.05l-0.01,0
			c-0.06,0.02-0.12,0.03-0.18,0.04l-0.04,0.01c-0.07,0.01-0.14,0.03-0.2,0.04l-0.01,0c-0.07,0.01-0.14,0.02-0.21,0.03l-0.04,0.01
			c-0.07,0.01-0.15,0.02-0.23,0.03l-0.01,0c-0.08,0.01-0.15,0.02-0.23,0.02l-0.03,0c-0.08,0.01-0.17,0.01-0.25,0.02h-0.01
			c-0.08,0-0.17,0.01-0.26,0.01h-0.02c-0.18,0-0.36,0-0.55-0.01h0c-0.1-0.01-0.21-0.01-0.32-0.02c-0.03,0-0.06-0.01-0.09-0.01
			c-0.08-0.01-0.16-0.02-0.25-0.03c-0.03,0-0.06-0.01-0.09-0.01c-0.1-0.01-0.2-0.03-0.31-0.04l-0.02,0
			c-0.12-0.02-0.23-0.04-0.35-0.06c-0.02,0-0.04-0.01-0.05-0.01c-0.1-0.02-0.2-0.04-0.3-0.07c-0.03-0.01-0.05-0.01-0.08-0.02
			c-0.1-0.03-0.21-0.05-0.32-0.09l-0.04-0.01c-0.24-0.07-0.49-0.15-0.73-0.25c-0.02-0.01-0.04-0.02-0.06-0.02
			c-0.11-0.04-0.22-0.09-0.33-0.13l-0.04-0.02c-0.25-0.11-0.5-0.23-0.75-0.36l-0.04-0.02c-0.11-0.06-0.22-0.12-0.33-0.19l-0.05-0.03
			c-0.25-0.15-0.5-0.32-0.75-0.49l-0.03-0.02c-0.11-0.08-0.22-0.17-0.34-0.26c-0.02-0.02-0.04-0.03-0.05-0.04
			c-0.12-0.09-0.23-0.19-0.35-0.29l0,0c-1.08-0.94-2.11-2.21-3-3.87c-1.66-3.13-2.41-6.52-2.46-9.89c-0.04-0.71-0.05-1.43-0.02-2.14
			v0c0.06-1.61,0.26-3.21,0.59-4.77l0-0.02c0.05-0.22,0.09-0.43,0.15-0.65l0.01-0.04c0.05-0.21,0.1-0.41,0.15-0.61
			c0.01-0.03,0.01-0.05,0.02-0.07c0.05-0.19,0.1-0.39,0.16-0.58c0.01-0.04,0.02-0.07,0.03-0.11c0.05-0.18,0.1-0.36,0.16-0.54
			c0.02-0.05,0.03-0.1,0.05-0.15c0.05-0.16,0.1-0.33,0.16-0.49c0.02-0.07,0.05-0.13,0.07-0.2c0.05-0.14,0.1-0.29,0.15-0.43
			c0.03-0.09,0.07-0.18,0.1-0.27c0.04-0.12,0.09-0.24,0.14-0.36c0.05-0.12,0.09-0.23,0.14-0.35c0.04-0.09,0.07-0.18,0.11-0.27
			c0.09-0.21,0.17-0.41,0.26-0.61c0.11-0.26,0.23-0.51,0.36-0.77c0.06-0.13,0.13-0.25,0.2-0.38c0.21-0.38,0.43-0.76,0.67-1.13
			c0.32-0.5,0.67-0.99,1.05-1.48c0.19-0.24,0.39-0.48,0.59-0.72c0.2-0.24,0.41-0.47,0.63-0.71c0.22-0.23,0.44-0.46,0.67-0.69
			c1.85-1.82,4.11-3.45,6.7-4.75c0.52-0.26,1.05-0.51,1.59-0.74c0.54-0.23,1.09-0.45,1.66-0.65c0.56-0.2,1.14-0.39,1.73-0.56
			c0.29-0.08,0.59-0.17,0.89-0.24c0.6-0.15,1.2-0.29,1.82-0.4c0.92-0.17,1.87-0.31,2.83-0.39c0.45-0.04,0.9-0.07,1.34-0.1
			c-3.13,0.32,6.97-0.77,14.78,2.34c6.52,2.67,12.31,7.28,16.95,13.02c1.72,1.97,3.16,4.09,4.37,6.19c0.19,0.31,0.38,0.61,0.57,0.93
			c0.79,1.31,1.51,2.66,2.18,4.04c-0.75-1.81-1.67-3.78-2.82-5.77c0.19,0.31,0.38,0.61,0.57,0.92c1.77,2.96,3.28,6.11,4.44,9.41
			V42.52v-7.05c-0.1-5.2-1.72-10.33-4.4-14.63c-0.42-0.66-0.85-1.3-1.34-1.9l0.05-0.05c0.01,0.01,0.02,0.03,0.03,0.04l0.04-0.04
			c2.64,3.15,4.56,7,5.62,11.12V8.38c0-1.75-1.29-3.18-2.88-3.22H329.9c0.42,0.11,0.88,0.22,1.11,0.28
			c2.21,0.65,4.39,1.54,6.42,2.71c1.47,0.85,2.89,1.82,4.15,3.02l-0.04,0.05c-0.01-0.01-0.03-0.02-0.05-0.04l-0.02,0.03
			c-3.09-2.65-6.85-4.26-10.65-5.23c-0.38-0.08-1.42-0.3-1.82-0.38l-1.22-0.18c-0.34-0.06-0.77-0.1-1.19-0.14
			c-0.42-0.03-0.85-0.06-1.19-0.09c-0.15-0.02-0.46-0.03-0.61-0.03c-0.21,0-0.6-0.01-0.97-0.01v0c-0.95,0-1.92,0.11-2.85,0.26
			c-4.1,0.7-8.76,2.57-11.19,6.45c-1.35,2.19-1.94,4.95-1.66,7.57l-0.06,0.01c-0.01-0.08-0.01-0.17-0.02-0.25
			c0.01,0.08,0.01,0.16,0.02,0.23l-0.06,0.01c-0.44-3.2,0.4-6.62,2.34-9.08c2.16-2.63,5.16-4.27,8.3-5.21h-4.77l0,0.01
			c-0.17,0-0.34-0.01-0.51-0.01h-2.87c-2.35,0.06-4.7,0.28-6.99,0.81c-0.84,0.21-1.68,0.46-2.47,0.84c-1.56,0.7-2.92,2.25-3.04,4.15
			c-0.06,0.93,0.15,1.9,0.58,2.72l-0.05,0.04c-0.01-0.01-0.01-0.03-0.02-0.04l-0.05,0.04c-1.29-2.29-0.68-4.9,1.22-6.5
			c1.08-0.88,2.38-1.34,3.66-1.72c0.44-0.12,0.88-0.23,1.32-0.33h-27.74c5.71,1.36,11.14,4.2,15.82,8
			c-0.18-0.13-0.36-0.25-0.54-0.37c0.16,0.12,0.32,0.24,0.47,0.36c-4.35-3.11-9.19-5.44-14.22-6.84c-1.9-0.54-3.81-0.87-5.73-1.03
			c-8.35-0.67-16.77,1.95-24.75,4.54c-4.38,1.45-10.64,3.68-15.05,4.78c0.09-0.03,0.19-0.07,0.28-0.1
			c-0.11,0.03-0.24,0.06-0.35,0.09c5.94-1.99,11.73-4.44,17.66-6.45c3.55-1.19,7.17-2.27,10.84-2.99h-68.96
			c1.81,0.43,3.6,0.97,5.35,1.59c1.94,0.69,3.85,1.48,5.73,2.35c1.88,0.87,3.73,1.81,5.53,2.85l-0.03,0.06
			c-0.02-0.01-0.04-0.02-0.06-0.03l-0.01,0.02c-6.1-3.17-13.39-6.06-20.32-6.71c-0.98-0.09-1.94-0.14-2.9-0.13
			c-6.09-0.03-12.04,1.86-17.69,4.2c-1.9,0.8-3.77,1.67-5.6,2.65l-0.02-0.03c-0.02,0.01-0.04,0.02-0.05,0.03l-0.03-0.06
			c5.01-2.82,10.8-5.45,16.59-6.79h-68.98c3.68,0.71,7.31,1.8,10.88,3c5.93,2.01,11.72,4.46,17.66,6.45
			c-0.07-0.02-0.14-0.04-0.21-0.06c0.05,0.02,0.09,0.03,0.14,0.05c-4.39-1.09-10.68-3.33-15.05-4.78c-6.13-1.99-12.52-4-18.94-4.52
			C100.49,5,96.63,5.23,92.81,6.33c-5.03,1.4-9.88,3.73-14.22,6.84c0.2-0.16,0.41-0.32,0.62-0.48c-0.23,0.16-0.46,0.31-0.69,0.47
			c4.67-3.79,10.09-6.63,15.8-8H66.57c0.45,0.1,0.9,0.21,1.35,0.33c1.69,0.5,3.51,1.18,4.61,2.76c1.18,1.54,1.25,3.79,0.27,5.46
			l-0.05-0.04c0,0,0,0,0-0.01c-0.01,0.01-0.01,0.03-0.02,0.04l-0.05-0.04c1.44-2.78,0.1-5.72-2.47-6.87
			c-0.79-0.37-1.62-0.63-2.47-0.84c-1.14-0.26-2.3-0.45-3.47-0.58c-1.15-0.12-2.3-0.19-3.45-0.22h-2.87c-0.17,0-0.34,0.01-0.51,0.01
			V5.17c-0.02,0-0.05,0-0.07,0V5.17h-4.8c4.12,1.24,8.23,3.74,9.91,7.97c0.78,1.98,1.06,4.2,0.77,6.33l-0.06-0.01
			c0.01-0.12,0.01-0.25,0.02-0.37c-0.01,0.13-0.01,0.25-0.03,0.38l-0.06-0.01c0.34-3.15-0.58-6.47-2.55-8.81
			c-2.68-3.06-6.55-4.56-10.3-5.21c-0.46-0.07-0.93-0.13-1.4-0.18c-0.46-0.04-0.93-0.07-1.39-0.07v0c0,0,0,0,0,0
			c-0.38,0-0.76,0.01-0.97,0.01c-0.16,0-0.46,0.01-0.62,0.03c-0.72,0.06-1.75,0.11-2.45,0.24l-1.22,0.18l-1.21,0.25l-0.61,0.13
			l-0.6,0.16c-2.01,0.51-3.96,1.28-5.82,2.24c-1.49,0.78-2.94,1.69-4.22,2.82l-0.03-0.04c-0.01,0.01-0.03,0.02-0.04,0.03l-0.04-0.05
			c2.71-2.51,5.99-4.21,9.36-5.35c0.3-0.1,0.9-0.29,1.2-0.38c0.22-0.06,0.67-0.17,1.08-0.28H19.25c-1.62,0-2.95,1.45-2.95,3.22
			v21.63c0.66-2.56,1.66-5.02,2.95-7.28c0.78-1.36,1.65-2.68,2.67-3.84l0.04,0.04c0.01-0.01,0.02-0.03,0.03-0.04L22.04,18.95z
			 M341.46,37.82c-10.07-8.21-18.4-11.01-28.03-10.44c5-0.5,10.1,0.16,14.84,1.93c5.02,1.95,9.62,5.02,13.62,8.87
			C341.75,38.06,341.6,37.94,341.46,37.82z M342.31,38.96c3.26,2.77,5.78,6.15,7.69,9.48C347.81,44.97,345.22,41.76,342.31,38.96z
			 M337.46,6.55h14.58c0.93,0,1.68,0.83,1.68,1.84v14.83c-1.18-2.5-2.72-5.04-4.67-7.46C346.48,12.54,342.7,8.97,337.46,6.55z
			 M337.33,13.71c0.13-0.1,0.27-0.2,0.42-0.28c0.15-0.08,0.3-0.16,0.47-0.23c0.07-0.03,0.13-0.05,0.2-0.08
			c0.17-0.06,0.34-0.11,0.51-0.15c0.17-0.04,0.35-0.06,0.52-0.08c0.59-0.04,1.19,0.05,1.75,0.28c0.02,0.01,0.05,0.02,0.07,0.03
			c0.14,0.06,0.27,0.12,0.4,0.19c-0.13-0.07-0.27-0.13-0.4-0.19c0.14,0.06,0.27,0.12,0.4,0.19c0.08,0.04,0.15,0.09,0.23,0.14
			c0.15,0.09,0.29,0.2,0.43,0.32c0.42,0.35,0.83,0.71,1.22,1.07c0.39,0.36,0.76,0.72,1.11,1.09c0.1,0.1,0.19,0.2,0.28,0.3
			c0.31,0.33,0.61,0.66,0.89,0.99c0.1,0.11,0.2,0.23,0.3,0.34c0.15,0.18,0.3,0.36,0.44,0.54c5.31,6.61,7.2,14.21,7.2,18.7v2.81
			c0,0,0,0,0,0v6.11l-0.03-0.02v2.09v3.88c-2.61-5.44-6.25-10.28-10.66-14.09c-0.64-0.56-1.3-1.11-1.97-1.63
			c-0.33-0.26-0.67-0.52-1.01-0.77c-0.34-0.25-0.68-0.5-1.03-0.74c-0.35-0.25-0.7-0.47-1.11-0.74c0.03-0.06,0.07-0.12,0.11-0.18v0
			c0.05-0.08,0.11-0.16,0.18-0.23l0.02-0.02c0.03-0.03,0.06-0.06,0.09-0.1c0.04-0.04,0.07-0.07,0.11-0.11
			c0.05-0.04,0.1-0.09,0.16-0.14c0.12-0.09,0.26-0.19,0.43-0.27c0.21-0.1,0.44-0.17,0.71-0.16c0.26,0.01,0.55,0.09,0.85,0.29
			c0.71,0.48,1.42,0.95,2.12,1.42c0.42,0.28,0.83,0.57,1.24,0.86c3,2.13,5.7,4.47,7.5,8.03c0.16,0.32,0.32,0.66,0.47,1
			c-0.08-0.24-0.16-0.47-0.24-0.7c-0.02-0.05-0.04-0.11-0.06-0.16c-0.08-0.22-0.17-0.43-0.26-0.64l-0.01-0.02
			c-0.1-0.23-0.2-0.46-0.31-0.69c-0.01-0.02-0.02-0.04-0.03-0.06c-0.11-0.22-0.22-0.44-0.33-0.66c-2.19-4.11-5.67-6.9-9.26-9.75
			c-0.37-0.29-0.74-0.59-1.12-0.9c-1.64-1.32-3.29-2.79-4.34-4.64c-0.03-0.05-0.06-0.11-0.08-0.16c-0.13-0.28-0.26-0.6-0.34-0.92
			c-0.17-0.65-0.21-1.34,0.08-1.86c0.11-0.17,0.23-0.32,0.37-0.45c0.1-0.1,0.22-0.18,0.35-0.24c0.08-0.04,0.17-0.08,0.27-0.11
			c0.05-0.02,0.09-0.03,0.15-0.04c0,0,0,0,0,0c0.01,0,0.02,0,0.02-0.01c0.08-0.02,0.17-0.02,0.25-0.02
			c0.08-0.01,0.15-0.02,0.23-0.02c-0.08,0-0.16,0.01-0.23,0.02c0.08-0.01,0.15-0.02,0.23-0.02c0.17,0,0.36,0.03,0.57,0.07
			c0.13,0.1,0.26,0.19,0.39,0.29c0.13,0.09,0.26,0.19,0.4,0.28c0.27,0.18,0.53,0.36,0.8,0.53c2.95,1.82,5.68,3.5,7.97,5.72
			c0.13,0.12,0.25,0.25,0.38,0.38c0.25,0.26,0.49,0.52,0.73,0.79c0.48,0.54,0.93,1.11,1.36,1.73c0.67,0.96,1.28,2.04,1.82,3.23
			c-0.46-1.32-1-2.54-1.65-3.66c-0.86-1.49-1.88-2.82-3.04-4.05c-0.97-1.03-2.03-1.99-3.17-2.91c-0.84-0.73-1.74-1.4-2.63-2.07
			c-0.13-0.1-0.25-0.19-0.38-0.29c-1-0.78-1.98-1.6-2.83-2.57c-0.27-0.31-0.53-0.65-0.77-1.01c-0.07-0.1-0.13-0.21-0.2-0.32
			c-0.09-0.16-0.18-0.32-0.26-0.49c-0.03-0.06-0.05-0.11-0.08-0.17c-0.05-0.11-0.1-0.22-0.14-0.34c-0.04-0.11-0.08-0.23-0.11-0.34
			c-0.03-0.11-0.06-0.23-0.08-0.34c-0.02-0.11-0.04-0.23-0.05-0.34c-0.01-0.11-0.02-0.23-0.02-0.34c0-0.06,0-0.11,0-0.17
			c0.01-0.11,0.02-0.22,0.04-0.33c0.02-0.11,0.04-0.22,0.08-0.33c0.03-0.11,0.07-0.21,0.12-0.32c0.05-0.1,0.1-0.21,0.17-0.31
			C336.84,14.16,337.06,13.91,337.33,13.71z M315.24,8.39c1.31-0.64,2.65-1.06,3.98-1.33c5.74-1.16,11.1,0.63,11.1,0.63
			c-0.01,0-0.03,0-0.04,0c0,0,0.01,0,0.01,0c-0.47,0.01-0.92,0.03-1.36,0.06c3.01,0.49,5.65,1.4,7.96,2.55
			c-2.66,1.49-3.94,4.66-2.59,7.72c0.24,0.53,0.52,1.02,0.83,1.48c-2.58,1.71-3.44,4.83-1.15,7.96c1,1.37,2.25,2.43,3.58,3.38
			c-0.63,0.54-1.09,1.15-1.39,1.81c-0.11-0.07-0.23-0.15-0.36-0.23c-2.5-1.48-5.11-2.74-7.76-3.8c-2.08-0.82-4.25-1.41-6.43-1.76
			c-0.34-0.06-0.69-0.11-1.04-0.15c0.77-1.08,1.17-2.43,1.13-3.86c-0.07-3.01-2.42-6.17-6.2-6.1c-0.68,0-1.45,0.28-2.04,0.79
			c0,0.01,0,0.01-0.01,0.02c-0.01,0.01-0.02,0.03-0.04,0.04c0,0,0,0,0,0c0.01-0.01,0.02-0.03,0.04-0.04
			c-0.35,1.16-0.39,1.95-0.39,2.02c0.13-0.09,0.7-0.46,1.5-0.64c0.9-0.21,2.08-0.18,3.23,0.78c2.18,1.82,2.02,5.78-1.15,6.59
			c-0.21,0.06-0.44,0.1-0.68,0.12c-2.35,0.25-5.4-0.87-6.72-4.88C308.15,18.19,308.29,11.78,315.24,8.39z M291.76,10.36
			c-1.09-0.7-2.13-1.35-3.14-1.97h8.18c-0.67,1.65-0.54,3.37-0.21,4.78c-0.7-0.3-1.58-0.76-2.68-1.45
			C293.16,11.25,292.44,10.79,291.76,10.36z M205.05,8.39h40.49c-2.67,0.85-5.27,1.73-7.72,2.56l-1.42,0.48
			c-5.34,1.8-9.4,2.6-13.17,2.6c-4.41,0-8.46-1.11-12.76-3.49C208.81,9.62,207,8.9,205.05,8.39z M134.9,11.43l-1.42-0.48
			c-2.46-0.83-5.06-1.71-7.72-2.56h40.49c-1.95,0.51-3.76,1.23-5.42,2.15c-4.3,2.38-8.35,3.49-12.76,3.49
			C144.3,14.03,140.24,13.23,134.9,11.43z M82.68,8.39c-1.01,0.61-2.04,1.27-3.14,1.97c-0.68,0.44-1.4,0.89-2.15,1.36
			c-1.1,0.69-1.98,1.14-2.68,1.45c0.34-1.41,0.46-3.13-0.21-4.78H82.68z M17.57,23.22V8.39c0-1.02,0.76-1.84,1.68-1.84h14.58
			c-5.24,2.42-9.02,5.99-11.6,9.21C20.29,18.18,18.75,20.71,17.57,23.22z"/>
		<path class="st8" d="M33.9,34.95L33.9,34.95c-0.05,0.04-0.1,0.08-0.15,0.12c0,0,0,0,0,0C33.79,35.02,33.84,34.98,33.9,34.95z"/>
		<path class="st8" d="M32.51,29.41c-0.01,0-0.01,0.01-0.02,0.01c-0.01,0.01-0.01,0.01-0.02,0.02
			C32.48,29.43,32.49,29.42,32.51,29.41z"/>
		<path class="st8" d="M35.86,23.17c-0.02-0.05-0.05-0.1-0.07-0.15c0,0,0,0,0,0.01C35.82,23.07,35.84,23.12,35.86,23.17
			C35.86,23.17,35.86,23.17,35.86,23.17z"/>
		<path class="st8" d="M32.47,29.44c-0.4,0.36-0.81,0.7-1.21,1.03C31.66,30.14,32.07,29.8,32.47,29.44z"/>
		<path class="st8" d="M35.41,25.97c-0.77,1.35-1.86,2.5-3.03,3.53c0.04-0.03,0.07-0.05,0.11-0.08c1.14-1.02,2.2-2.14,2.95-3.46
			c0.42-0.8,0.75-1.97,0.41-2.79c-0.01,0-0.02,0.01-0.02,0.01C36.16,24.01,35.83,25.17,35.41,25.97z"/>
		<path class="st8" d="M20.69,41.25c-0.04,0.07-0.07,0.14-0.1,0.2c0.05-0.07,0.09-0.14,0.13-0.21c1.64-3.08,4-5.42,6.6-7.6h0
			c0.06-0.05,0.11-0.1,0.17-0.15c-0.06,0.05-0.13,0.11-0.2,0.16C24.69,35.83,22.33,38.17,20.69,41.25z"/>
		<polygon class="st8" points="35.85,23.17 35.86,23.17 35.86,23.17 35.85,23.17 		"/>
		<path class="st8" d="M32.96,13.12c0.07,0.02,0.13,0.05,0.2,0.08c0.66,0.28,1.18,0.67,1.57,1.26c1.02,1.6-0.07,3.74-1.31,5.13
			c-1.71,1.95-3.91,3.26-5.84,4.93c-3.66,2.95-6.47,6.28-8.02,11.04c0.04-0.1,0.09-0.19,0.13-0.29c1.56-4.61,4.33-7.86,7.91-10.76
			c1.93-1.67,4.13-2.99,5.84-4.93c1.24-1.4,2.33-3.53,1.31-5.13c-0.39-0.59-0.91-0.99-1.57-1.26c-0.06-0.03-0.13-0.05-0.2-0.08
			c-0.66-0.24-1.36-0.29-2.03-0.15C31.61,12.84,32.3,12.88,32.96,13.12z"/>
		<path class="st8" d="M35.76,23.02c0.03,0.05,0.05,0.11,0.07,0.17c0.01,0,0.02-0.01,0.02-0.01c-0.02-0.05-0.04-0.1-0.06-0.15
			c0,0,0,0,0-0.01c-0.43-0.68-1.09-1.06-2.18-0.81c0,0,0,0,0,0C34.67,21.97,35.33,22.35,35.76,23.02z"/>
		<path class="st8" d="M35.86,23.17c-0.02-0.05-0.04-0.1-0.07-0.15C35.82,23.07,35.83,23.12,35.86,23.17
			C35.86,23.17,35.86,23.17,35.86,23.17z"/>
		<path class="st8" d="M35.83,23.19L35.83,23.19c0.01,0,0.02-0.01,0.02-0.01v0C35.84,23.18,35.84,23.18,35.83,23.19z"/>
		<path class="st8" d="M55.3,18.92c1.65-0.3,3.02,0.71,3.02,0.71s0-0.01,0-0.03C58.1,19.46,56.82,18.63,55.3,18.92z"/>
		<path class="st8" d="M56.12,8.4c6.95,3.39,7.09,9.8,5.98,13.18c-0.76,2.3-2.08,3.65-3.52,4.33c0,0,0.01,0,0.01,0
			c1.44-0.68,2.78-2.03,3.54-4.34c1.11-3.38,0.96-9.79-5.98-13.18c-4.79-2.34-10.13-1.78-12.99-1.21
			C46.03,6.61,51.35,6.06,56.12,8.4z"/>
		<path class="st8" d="M55.38,26.46c-0.8-0.09-1.43-0.35-1.93-0.73c-1.05,0.04-2.09,0.13-3.11,0.28c0.2,0.39,0.43,0.76,0.71,1.1
			c0.27,0.32,0.63,0.67,1.08,0.98c1.56-0.1,3.13-0.08,4.69,0.04c0.13,0.01,0.25,0.01,0.38,0.02c0,0,0,0,0,0c0,0,0,0,0,0
			c0.22,0.01,0.45,0.03,0.67,0.05c0.34,0.02,0.67,0.04,1.02,0.07c0.17,0.02,0.34,0.04,0.5,0.06c0.96-0.45,1.85-1.06,2.61-1.86
			c-1.14-0.24-2.28-0.43-3.42-0.56c-0.44,0.21-0.89,0.36-1.34,0.45C56.61,26.5,55.98,26.52,55.38,26.46z"/>
		<path class="st8" d="M33.13,33.37c0.07,0.08,0.12,0.16,0.18,0.23l0,0c0.3,0.44,0.43,0.94,0.43,1.45c0.05-0.04,0.1-0.08,0.16-0.12
			l1.61-1.33c-0.13-0.55-0.35-1.07-0.67-1.56c-0.58,0.39-1.17,0.79-1.81,1.21c0.03,0.03,0.06,0.06,0.09,0.09L33.13,33.37z"/>
		<polygon class="st8" points="17.64,48.36 17.64,46.86 17.64,44.26 16.4,45.28 16.4,49.38 		"/>
		<path class="st8" d="M30.66,47.9c1.22-1.35,2.51-2.65,3.85-3.82c0.34-0.32,0.78-0.68,1.2-1.02c-0.42,0.34-0.87,0.7-1.2,1.02
			C33.17,45.25,31.88,46.55,30.66,47.9z"/>
		<path class="st8" d="M46.96,36.96c3.23-0.94,6.6-1.23,9.76-0.49c0,0,0,0,0,0C53.56,35.73,50.2,36.02,46.96,36.96z"/>
		<path class="st8" d="M36.34,42.55c-0.1,0.08-0.22,0.18-0.33,0.27C36.12,42.73,36.24,42.64,36.34,42.55
			c0.52-0.38,1.37-1.05,1.92-1.4c0.23-0.16,0.47-0.32,0.71-0.47c-0.24,0.16-0.48,0.31-0.71,0.47C37.71,41.5,36.86,42.17,36.34,42.55
			z"/>
		<path class="st8" d="M32.47,50.74c0.42-0.53,0.85-1.06,1.29-1.58C33.32,49.68,32.89,50.2,32.47,50.74z"/>
		<path class="st8" d="M48.12,38.19c2.28-0.91,4.69-1.56,7.12-1.69C52.8,36.63,50.39,37.28,48.12,38.19
			c-5.44,2.2-10.27,6.17-14.32,10.93C37.85,44.35,42.67,40.39,48.12,38.19z"/>
		<path class="st8" d="M23.87,61.21c0.66-1.34,1.34-2.66,2.08-3.95L26,57.3c-0.01,0.02-0.02,0.03-0.03,0.05L26,57.37
			c-5.42,10.36-9.26,22.34-9.6,34.34v1.25c0.96-3.7,1.73-6.79,1.92-7.89c0.16-0.89,0.31-1.79,0.49-2.68
			c0.51-2.53,1.12-5.05,1.82-7.53c1.33-4.7,3.01-9.28,5.16-13.61c0.88-1.73,1.85-3.45,2.9-5.13c1.16-1.86,2.42-3.67,3.78-5.4
			c0.42-0.53,0.85-1.06,1.29-1.58c0.01-0.01,0.02-0.03,0.03-0.04c4.06-4.77,8.88-8.73,14.32-10.94c2.28-0.91,4.69-1.56,7.12-1.69
			c0.49-0.03,0.99-0.04,1.49-0.02c-3.16-0.74-6.53-0.45-9.76,0.49c-2.84,0.82-5.58,2.15-7.99,3.73c-0.24,0.16-0.48,0.31-0.71,0.47
			c-0.55,0.35-1.39,1.02-1.92,1.4c-0.1,0.08-0.22,0.18-0.33,0.27c-0.1,0.08-0.19,0.16-0.29,0.24c-0.42,0.34-0.87,0.7-1.2,1.02
			c-1.34,1.17-2.63,2.47-3.85,3.82c-0.4,0.44-0.79,0.89-1.18,1.34c-0.56,0.68-1.12,1.37-1.66,2.08c-1.11,1.45-2.17,2.97-3.15,4.53
			c-0.49,0.79-0.97,1.6-1.41,2.41c-0.41,0.75-0.79,1.52-1.17,2.28c-0.87,1.74-1.66,3.53-2.37,5.36c-0.76,1.95-1.46,3.93-2.06,5.96v0
			c0,0,0,0,0,0V61.05c-0.22,0.52-0.42,1.02-0.62,1.52c-0.06,0.16-0.12,0.31-0.18,0.47c-0.16,0.43-0.32,0.85-0.46,1.25v0c0,0,0,0,0,0
			v19.58c1.09-6.42,3.09-12.66,5.6-18.57C22.6,63.91,23.22,62.55,23.87,61.21z"/>
		<path class="st8" d="M352.14,2.86H19.35c-2.79,0-5.05,2.48-5.05,5.53v42.74v49.9c0.03-0.11,0.06-0.23,0.09-0.34
			c0.45-1.73,0.86-3.29,1.16-4.44c0-0.02,0.01-0.04,0.01-0.06V50l-0.1,0.08l0.1-0.08v-0.32V45.9l0,0V8.38c0-2.28,1.7-4.14,3.78-4.14
			c0,0,0,0,0,0h332.79c2.09,0,3.79,1.86,3.79,4.15v28.18v0v6.53v4.11v60.47h0.04v6.73h0v-6.73h1.23V48.05v-4.11V9.13V8.38
			C357.19,5.34,354.92,2.86,352.14,2.86z"/>
	</g>
</g>
</svg>
